<svg width="34" height="35" viewBox="0 0 34 35" fill="none" xmlns="http://www.w3.org/2000/svg">
<path d="M31.1949 30.4792L28.4692 25.6259C29.16 24.3811 29.3686 22.9137 29.0534 21.5174C28.7382 20.121 27.9224 18.8987 26.7692 18.095V5.77503C26.7692 5.41301 26.6295 5.06582 26.3808 4.80983C26.1321 4.55385 25.7949 4.41003 25.4432 4.41003H6.52787C6.354 4.41003 6.18184 4.44538 6.02128 4.51405C5.86072 4.58272 5.71492 4.68336 5.59224 4.81018C5.46956 4.93701 5.37242 5.08754 5.30641 5.25311C5.24039 5.41869 5.20679 5.59606 5.20753 5.77503V29.0209C5.20753 29.3813 5.34664 29.727 5.59425 29.9819C5.84186 30.2368 6.17769 30.38 6.52787 30.38H16.1895L16.1329 30.4792C16.0766 30.5719 16.0467 30.679 16.0467 30.7884C16.0467 30.8977 16.0766 31.0048 16.1329 31.0975C16.193 31.1923 16.2785 31.267 16.3791 31.3126C16.4798 31.3581 16.5911 31.3726 16.6995 31.3542L18.4619 31.1209L19.1475 32.8067C19.1885 32.9069 19.2558 32.9932 19.3419 33.0561C19.428 33.119 19.5295 33.1558 19.6349 33.1625H19.6689C19.7687 33.1629 19.8669 33.1362 19.9535 33.085C20.04 33.0337 20.1119 32.9599 20.1619 32.8709L22.6665 28.4142C22.9974 28.4772 23.333 28.5104 23.6695 28.5134C24.0079 28.5101 24.3454 28.4769 24.6782 28.4142L27.1999 32.8709C27.2498 32.9599 27.3217 33.0337 27.4083 33.085C27.4948 33.1362 27.593 33.1629 27.6929 33.1625H27.7269C27.8322 33.1558 27.9337 33.119 28.0198 33.0561C28.1059 32.9932 28.1732 32.9069 28.2142 32.8067L28.8999 31.1209L30.6622 31.3542C30.7679 31.3696 30.8757 31.3539 30.9731 31.3089C31.0705 31.264 31.1536 31.1916 31.2129 31.1002C31.2721 31.0087 31.305 30.9019 31.3078 30.7921C31.3107 30.6822 31.2833 30.5737 31.2289 30.4792H31.1949ZM6.52787 29.2134C6.47827 29.2134 6.43071 29.1931 6.39564 29.157C6.36057 29.1209 6.34087 29.0719 6.34087 29.0209V5.77503C6.34084 5.72343 6.36036 5.67385 6.39528 5.63681C6.43019 5.59978 6.47776 5.57822 6.52787 5.5767H25.4319C25.483 5.5767 25.532 5.5976 25.5681 5.63479C25.6042 5.67199 25.6245 5.72243 25.6245 5.77503V17.5C25.1287 17.3037 24.6074 17.1838 24.0775 17.1442V7.75253C24.0775 7.59782 24.0178 7.44945 23.9116 7.34006C23.8053 7.23066 23.6612 7.1692 23.5109 7.1692H8.44887C8.29858 7.1692 8.15444 7.23066 8.04817 7.34006C7.9419 7.44945 7.8822 7.59782 7.8822 7.75253V27.0375C7.8822 27.1922 7.9419 27.3406 8.04817 27.45C8.15444 27.5594 8.29858 27.6209 8.44887 27.6209H17.7365L16.8412 29.2134H6.52787ZM18.1332 22.8142C18.1338 23.8003 18.3838 24.7693 18.8585 25.6259L18.3882 26.4542H9.01553V8.33587H22.9442V17.1734C21.6151 17.3554 20.3952 18.0273 19.5105 19.0645C18.6259 20.1018 18.1366 21.434 18.1332 22.8142ZM19.7425 31.2725L19.3345 30.2634C19.2875 30.1513 19.2075 30.0573 19.1059 29.9945C19.0042 29.9317 18.886 29.9034 18.7679 29.9134L17.7139 30.0475L19.6179 26.6525C20.1497 27.2615 20.8031 27.745 21.5332 28.07L19.7425 31.2725ZM19.2665 22.8142C19.2677 21.9192 19.5265 21.0445 20.0104 20.3009C20.4942 19.5573 21.1814 18.978 21.985 18.6363C22.7886 18.2945 23.6726 18.2057 24.5252 18.3811C25.3778 18.5564 26.1608 18.988 26.7752 19.6213C27.3897 20.2546 27.8079 21.0611 27.9771 21.9391C28.1463 22.817 28.0589 23.7269 27.7259 24.5537C27.3929 25.3805 26.8293 26.0871 26.1063 26.5842C25.3833 27.0814 24.5333 27.3467 23.6639 27.3467C22.4971 27.3452 21.3786 26.8669 20.5541 26.0171C19.7296 25.1673 19.2665 24.0153 19.2665 22.8142ZM28.5882 29.9134C28.4655 29.8968 28.3409 29.9221 28.2335 29.9853C28.126 30.0485 28.0416 30.1462 27.9932 30.2634L27.5852 31.2725L25.7889 28.07C26.5414 27.7531 27.2167 27.2691 27.7665 26.6525L29.6705 30.0475L28.5882 29.9134Z" fill="white"/>
<path d="M26.3898 21.5075L25.0128 21L24.1118 19.8333C24.0586 19.7663 23.9917 19.7122 23.9157 19.6751C23.8397 19.6379 23.7567 19.6187 23.6726 19.6187C23.5885 19.6187 23.5055 19.6379 23.4295 19.6751C23.3536 19.7122 23.2866 19.7663 23.2334 19.8333L22.3324 21L20.9668 21.5075C20.8858 21.5377 20.8126 21.5865 20.7527 21.6502C20.6928 21.7139 20.6478 21.7907 20.6211 21.875C20.5942 21.9593 20.5863 22.0489 20.5981 22.1369C20.6099 22.2248 20.641 22.3088 20.6891 22.3825L21.5164 23.6308L21.5334 25.1417C21.5358 25.2307 21.558 25.3181 21.5983 25.3969C21.6386 25.4758 21.6959 25.5441 21.7658 25.5967C21.836 25.6491 21.9169 25.6843 22.0024 25.6995C22.0879 25.7146 22.1756 25.7094 22.2588 25.6842L23.6641 25.2583L25.0751 25.6842C25.1276 25.6931 25.1812 25.6931 25.2338 25.6842C25.3519 25.6834 25.4668 25.6446 25.5624 25.5733C25.6334 25.5214 25.6918 25.4534 25.7331 25.3745C25.7743 25.2955 25.7974 25.2079 25.8004 25.1183L25.8401 23.6075L26.6674 22.3592C26.7165 22.286 26.7486 22.2022 26.7614 22.1142C26.7742 22.0263 26.7672 21.9365 26.7411 21.8517C26.7109 21.7711 26.6638 21.6985 26.603 21.6389C26.5423 21.5794 26.4694 21.5345 26.3898 21.5075ZM24.8144 23.1175C24.7525 23.2085 24.7172 23.3157 24.7124 23.4267V24.3542L23.8001 24.0917C23.6965 24.0606 23.5864 24.0606 23.4828 24.0917L22.6668 24.3542L22.6384 23.4267C22.6337 23.3157 22.5983 23.2085 22.5364 23.1175L22.0321 22.3475L22.8764 22.0383C22.9783 21.9989 23.0682 21.9325 23.1371 21.8458L23.7038 21.1108L24.2704 21.8458C24.3393 21.9325 24.4293 21.9989 24.5311 22.0383L25.3754 22.3475L24.8144 23.1175Z" fill="white"/>
<path d="M18.5358 10.0917H13.4358C13.2855 10.0917 13.1414 10.1531 13.0351 10.2625C12.9288 10.3719 12.8691 10.5203 12.8691 10.675C12.8691 10.8297 12.9288 10.9781 13.0351 11.0875C13.1414 11.1969 13.2855 11.2583 13.4358 11.2583H18.5358C18.6861 11.2583 18.8302 11.1969 18.9365 11.0875C19.0428 10.9781 19.1025 10.8297 19.1025 10.675C19.1025 10.5203 19.0428 10.3719 18.9365 10.2625C18.8302 10.1531 18.6861 10.0917 18.5358 10.0917Z" fill="white"/>
<path d="M11.2141 21.9742H14.1098C14.2601 21.9742 14.4042 21.9127 14.5105 21.8033C14.6168 21.6939 14.6765 21.5455 14.6765 21.3908C14.6765 21.2361 14.6168 21.0877 14.5105 20.9784C14.4042 20.869 14.2601 20.8075 14.1098 20.8075H11.2141C11.0638 20.8075 10.9197 20.869 10.8134 20.9784C10.7072 21.0877 10.6475 21.2361 10.6475 21.3908C10.6475 21.5455 10.7072 21.6939 10.8134 21.8033C10.9197 21.9127 11.0638 21.9742 11.2141 21.9742Z" fill="white"/>
<path d="M16.4331 23.3859H11.2141C11.0638 23.3859 10.9197 23.4473 10.8134 23.5567C10.7072 23.6661 10.6475 23.8145 10.6475 23.9692C10.6475 24.1239 10.7072 24.2723 10.8134 24.3817C10.9197 24.4911 11.0638 24.5525 11.2141 24.5525H16.4331C16.5834 24.5525 16.7276 24.4911 16.8338 24.3817C16.9401 24.2723 16.9998 24.1239 16.9998 23.9692C16.9998 23.8145 16.9401 23.6661 16.8338 23.5567C16.7276 23.4473 16.5834 23.3859 16.4331 23.3859Z" fill="white"/>
</svg>
   