<?xml version="1.0" encoding="utf-8"?>
<!-- Generator: Adobe Illustrator 26.0.3, SVG Export Plug-In . SVG Version: 6.00 Build 0)  -->
<svg version="1.1" xmlns="http://www.w3.org/2000/svg" xmlns:xlink="http://www.w3.org/1999/xlink" x="0px" y="0px"
	 viewBox="0 0 172.52 173.75" style="enable-background:new 0 0 172.52 173.75;" xml:space="preserve">
<style type="text/css">
	.st0{display:none;}
	.st1{display:inline;}
	.st2{fill:#FFFFFF;}
	.st3{display:none;fill:#FFFFFF;}
	.st4{display:inline;fill:#FFFFFF;}
	.st5{fill-rule:evenodd;clip-rule:evenodd;fill:#FFFFFF;}
	.st6{display:inline;fill:#F1E4B2;}
	.st7{display:inline;fill:none;stroke:#9AFF01;stroke-width:6;stroke-linecap:round;stroke-miterlimit:10;}
	.st8{fill-rule:evenodd;clip-rule:evenodd;fill:url(#SVGID_1_);}
	.st9{fill:url(#SVGID_00000010287231770039951190000004223311354421348759_);}
	.st10{fill:#F1E4B2;}
	.st11{fill:url(#SVGID_00000140007173377135596630000003229224178345971132_);}
	.st12{fill:url(#SVGID_00000173850740167629236270000010973748091451616445_);}
	.st13{fill:url(#SVGID_00000178917419781613071540000000314965955711201922_);}
	.st14{fill:none;stroke:#FFCB01;stroke-width:6;stroke-linecap:round;stroke-miterlimit:10;}
	.st15{fill:url(#SVGID_00000160175858424867328530000002769279810970813085_);}
	.st16{fill:url(#SVGID_00000176018817267707059640000001255314160510757823_);}
	.st17{fill:url(#SVGID_00000087373289254538104470000016182363734259566007_);}
	.st18{fill:none;stroke:#FF6600;stroke-width:6;stroke-linecap:round;stroke-miterlimit:10;}
	.st19{fill:url(#SVGID_00000140724364470704354790000009323329510178893703_);}
	.st20{fill:url(#SVGID_00000121242822042160157810000002536944852994177703_);}
	.st21{fill:none;stroke:#FF3301;stroke-width:6;stroke-linecap:round;stroke-miterlimit:10;}
	.st22{fill:url(#SVGID_00000018945518402470665150000005188468420923503533_);}
	.st23{fill:url(#SVGID_00000041276096727971324290000016964057773338540189_);}
	.st24{fill:url(#SVGID_00000097476982243911300540000006234855275868729220_);}
	.st25{fill:url(#SVGID_00000153671724047611089100000000327794310198490274_);}
	.st26{fill:none;stroke:#0C97D2;stroke-width:6;stroke-linecap:round;stroke-miterlimit:10;}
	.st27{fill:none;stroke:#A53694;stroke-width:6;stroke-linecap:round;stroke-miterlimit:10;}
	.st28{fill:url(#SVGID_00000015327654613326384040000018203838561679331726_);}
	.st29{fill:url(#SVGID_00000111902070562580509920000008192872869318809229_);}
	.st30{fill:url(#SVGID_00000100353625815172895350000005041791782938180533_);}
	.st31{fill:url(#SVGID_00000070119269782684403650000007834463773610335130_);}
	.st32{fill:url(#SVGID_00000015346274627784599050000001268519834128307116_);}
</style>
<g id="Camada_1">
</g>
<g id="Camada_3">
	<g class="st0">
		<g class="st1">
			<path class="st2" d="M130.55,28.88H41.67c-4.33,0-7.84,3.53-7.84,7.84v59.38c0,4.32,3.51,7.84,7.84,7.84h88.88
				c4.33,0,7.84-3.53,7.84-7.84V36.73C138.4,32.41,134.89,28.88,130.55,28.88z M134.56,96.11c0,2.21-1.8,4.01-4.01,4.01H41.67
				c-2.21,0-4.01-1.8-4.01-4.01V93h96.9C134.56,93,134.56,96.11,134.56,96.11z M134.56,76.29h-96.9V36.73c0-2.21,1.8-4.01,4.01-4.01
				h88.88c2.21,0,4.01,1.8,4.01,4.01V76.29z"/>
			<path class="st2" d="M127.67,39.83H86.11c-1.06,0-1.92,0.86-1.92,1.92s0.86,1.92,1.92,1.92h41.56c1.06,0,1.92-0.86,1.92-1.92
				S128.73,39.83,127.67,39.83z"/>
			<path class="st2" d="M127.67,60.23h-20.78c-1.06,0-1.92,0.86-1.92,1.92s0.86,1.92,1.92,1.92h20.78c1.06,0,1.92-0.86,1.92-1.92
				S128.73,60.23,127.67,60.23z"/>
			<path class="st2" d="M127.67,50.03H93.45c-1.06,0-1.92,0.86-1.92,1.92s0.86,1.92,1.92,1.92h34.21c1.06,0,1.92-0.86,1.92-1.92
				S128.73,50.03,127.67,50.03z"/>
			<path class="st2" d="M70.73,46.16h-7.12v-7.12c0-0.54-0.42-0.96-0.96-0.96H52.8c-0.54,0-0.96,0.42-0.96,0.96v7.12h-7.12
				c-0.52,0-0.96,0.42-0.96,0.96v9.86c0,0.54,0.44,0.96,0.96,0.96h7.12v7.1c0,0.52,0.42,0.96,0.96,0.96h9.86
				c0.54,0,0.96-0.44,0.96-0.96v-7.1h7.12c0.54,0,0.96-0.42,0.96-0.96v-9.86C71.69,46.59,71.27,46.16,70.73,46.16z"/>
		</g>
	</g>
	<path class="st3" d="M100.08,120.63c-1.14,0-2.11-0.84-2.28-1.98c-1.67-9.28-0.19-18.85,4.19-27.2l-5.96-3.12l5.47-4.83
		c-2.12-2.96-3.56-6.36-4.19-9.95c-1.2,0.83-2.46,1.57-3.77,2.23l4.47,6.55h-9.32c-3.39,9.04-2.09,13.75-0.6,17.45
		c1.71,4.25,3.64,9.07-0.63,19.43c-0.36,0.86-1.2,1.43-2.13,1.43c-0.77,0-1.49-0.39-1.91-1.03c-0.43-0.64-0.51-1.45-0.21-2.16
		c3.55-8.6,2.19-11.99,0.62-15.93l-0.01-0.02c-1.82-4.51-3.07-9.96,0.02-19.17H73.75l4.42-6.45c-1.29-0.63-2.54-1.35-3.73-2.15
		c-0.65,3.53-2.07,6.86-4.15,9.78l5.47,4.83l-5.96,3.12c4.38,8.35,5.86,17.92,4.2,27.2c-0.17,1.13-1.14,1.97-2.28,1.98
		c-0.66,0.01-1.3-0.28-1.73-0.78c-0.44-0.51-0.64-1.19-0.55-1.86c1.37-9.46,0.18-17.21-3.72-24.4l-6.59,3.45l-0.6-7.62h-0.1
		c-4.75-0.13-9.35-1.64-13.26-4.34c-5.03-3.44-9.04-8.18-11.61-13.71c-1.93-3.88-2.96-8.15-3.01-12.49
		c-0.18-8.05,4.28-15.49,11.47-19.13c2.93-1.59,6.21-2.43,9.55-2.46c2.22,0,4.42,0.41,6.5,1.18c0.22-7.68,3.2-15.02,8.4-20.68
		c5.07-5.22,12.08-8.1,19.35-7.94c7.32-0.15,14.37,2.76,19.43,8.04c5.21,5.73,8.16,13.15,8.33,20.9c2.25-0.88,4.64-1.33,7.05-1.34
		c3.2,0.01,6.34,0.81,9.16,2.31c7.18,3.64,11.64,11.08,11.46,19.13c-0.24,7.75-3.28,15.14-8.57,20.8
		c-5.53,6.15-12.61,9.69-19.41,9.73l-0.59,7.62l-6.59-3.45c-3.91,7.17-5.1,14.93-3.72,24.4c0.09,0.67-0.11,1.35-0.55,1.87
		C101.38,120.36,100.74,120.64,100.08,120.63z M62.34,84.8L62.34,84.8l0.44,5.64l5.73-3l-4.12-3.64c2.38-1.91,5.4-5.71,6.3-13.01
		c-3.58-3.26-6.5-7.18-8.58-11.55c-2.4-5.05-3.75-10.53-3.98-16.11c-2.1-1.04-4.41-1.59-6.76-1.59c-2.59,0.02-5.14,0.67-7.43,1.9
		c-10.59,5.55-10.97,17.13-6.64,26.13c3.62,7.55,11.85,15.67,21.32,15.67C59.87,85.24,61.12,85.1,62.34,84.8L62.34,84.8z
		 M120.47,41.55c-2.42,0.01-4.81,0.59-6.96,1.7c-0.25,5.48-1.6,10.86-3.95,15.81c-2.07,4.32-4.93,8.22-8.45,11.47
		c0.9,8.06,4.29,11.31,5.91,12.87l0.01,0.01c0.15,0.15,0.29,0.28,0.4,0.39l-4.13,3.64l5.72,3l0.44-5.65
		c1.12,0.17,2.26,0.26,3.39,0.26c9.02,0,16.91-5.65,21.65-15.49c4.33-9.01,3.95-20.58-6.64-26.13
		C125.59,42.2,123.05,41.56,120.47,41.55L120.47,41.55z M90.18,24.58L90.18,24.58c3.95,4.35,6.12,10.02,6.08,15.9
		c-0.42,8.9-4.42,17.26-11.1,23.17c9.58-3.33,16.16-12.17,16.6-22.3c0.02-3.44-0.96-6.81-2.82-9.71
		C96.82,28.44,93.76,25.97,90.18,24.58L90.18,24.58z M46.9,111.78L46.9,111.78l-6.48-4.64l-7.68,2.14l2.4-7.61l-4.41-6.64l7.97-0.07
		l4.95-6.25l2.52,7.57l7.47,2.79l-6.41,4.74L46.9,111.78L46.9,111.78z M127.46,109.41c-4.97-0.01-8.99-4.03-9-9c0-4.97,4.03-9,9-9
		c4.97,0.01,8.99,4.04,8.99,9C136.45,105.38,132.43,109.4,127.46,109.41L127.46,109.41z M122.79,32.69L122.79,32.69l-1.25-7.5
		l-6.61-3.73l6.74-3.5l1.51-7.46l5.41,5.34l7.55-0.87l-3.4,6.8l3.16,6.91l-7.52-1.13L122.79,32.69L122.79,32.69z M45.16,27.92
		c-4.69-0.01-8.5-3.81-8.5-8.51c0-4.7,3.8-8.5,8.5-8.51c4.69,0.01,8.5,3.82,8.5,8.51c-0.01,4.69-3.81,8.49-8.5,8.5L45.16,27.92z"/>
	<g class="st0">
		<g class="st1">
			<path class="st2" d="M91.3,62.53c7.82,0,14.18-6.36,14.18-14.18S99.12,34.17,91.3,34.17s-14.18,6.36-14.18,14.18
				S83.48,62.53,91.3,62.53z M91.3,41.26c3.91,0,7.09,3.18,7.09,7.09s-3.18,7.09-7.09,7.09s-7.09-3.18-7.09-7.09
				S87.39,41.26,91.3,41.26z"/>
			<path class="st2" d="M91.3,66.07c-13.68,0-24.81,11.13-24.81,24.81v3.54c0,1.96,1.59,3.54,3.54,3.54h42.53
				c1.96,0,3.54-1.59,3.54-3.54v-3.54C116.11,77.2,104.98,66.07,91.3,66.07z M73.58,90.88c0-9.77,7.95-17.72,17.72-17.72
				s17.72,7.95,17.72,17.72H73.58z"/>
			<path class="st2" d="M123.2,9.36H52.31c-5.86,0-10.63,4.77-10.63,10.63v14.18h-3.54c-1.96,0-3.54,1.59-3.54,3.54
				c0,1.96,1.59,3.54,3.54,3.54h3.54v7.09h-3.54c-1.96,0-3.54,1.59-3.54,3.54c0,1.96,1.59,3.54,3.54,3.54h3.54v7.09h-3.54
				c-1.96,0-3.54,1.59-3.54,3.54s1.59,3.54,3.54,3.54h3.54v7.09h-3.54c-1.96,0-3.54,1.59-3.54,3.54c0,1.96,1.59,3.54,3.54,3.54h3.54
				v7.09h-3.54c-1.96,0-3.54,1.59-3.54,3.54c0,1.96,1.59,3.54,3.54,3.54h3.54v14.18c0,5.86,4.77,10.63,10.63,10.63h70.89
				c5.86,0,10.63-4.77,10.63-10.63V19.99C133.83,14.13,129.06,9.36,123.2,9.36z M126.74,112.15c0,1.95-1.59,3.54-3.54,3.54H52.31
				c-1.95,0-3.54-1.59-3.54-3.54V97.97h3.54c1.96,0,3.54-1.59,3.54-3.54c0-1.96-1.59-3.54-3.54-3.54h-3.54v-7.09h3.54
				c1.96,0,3.54-1.59,3.54-3.54c0-1.96-1.59-3.54-3.54-3.54h-3.54v-7.09h3.54c1.96,0,3.54-1.59,3.54-3.54s-1.59-3.54-3.54-3.54
				h-3.54v-7.09h3.54c1.96,0,3.54-1.59,3.54-3.54c0-1.96-1.59-3.54-3.54-3.54h-3.54v-7.09h3.54c1.96,0,3.54-1.59,3.54-3.54
				c0-1.96-1.59-3.54-3.54-3.54h-3.54V19.99c0-1.95,1.59-3.54,3.54-3.54h70.89c1.95,0,3.54,1.59,3.54,3.54V112.15z"/>
		</g>
	</g>
	<g class="st0">
		<path class="st4" d="M124.07,10.62h-0.73h-3.85H55.93h-5.2h-2.65c-6.69,0-12.17,5.44-12.17,12.17v84.81
			c0,6.73,5.48,12.19,12.17,12.19h2.65h5.2h68.14c5.1,0,9.46-3.14,11.28-7.59c0.59-1.42,0.9-2.96,0.9-4.59V22.79
			C136.25,16.06,130.77,10.62,124.07,10.62z M129.99,107.68c-0.05,3.22-2.7,5.86-5.93,5.86H55.93V16.86h63.56h3.85h0.73
			c3.26,0,5.93,2.65,5.93,5.93V107.68z"/>
		<path class="st4" d="M117.52,44.65c0.01-2.28,0.02-4.56,0-6.84c-0.02-1.87,0.17-4.07-1.3-5.51c-6.19-6.06-9.23,8.73-9.8,12.31
			c-0.58,3.69-1.07,7.39-1.47,11.1c-0.02,0.23-0.05,0.46-0.07,0.7c-0.15,1.52-0.73,9.38-0.08,11.48c0.86,2.77,2.3,4.38,4.53,5.07
			c0.43,0.13,0.89,0.22,1.38,0.31c0.25,0.05,0.51,0.09,0.77,0.15l0.78,0.16l-0.08,0.79c-0.06,0.61-0.13,1.21-0.19,1.81
			c-0.14,1.32-0.27,2.57-0.41,3.85c-0.14,1.24-0.28,2.48-0.42,3.72c-0.22,1.88-0.44,3.83-0.65,5.74c-0.19,1.76-0.37,3.55-0.54,5.29
			c-0.18,1.81-0.37,3.69-0.57,5.54c-0.07,0.7,0.11,1.34,0.52,1.8c0.39,0.44,0.98,0.69,1.65,0.7c0.66,0.01,1.31,0.01,1.97,0.01
			c0.71,0,1.33-0.01,1.9-0.02c1.11-0.02,1.91-0.75,2.03-1.86c0.05-0.45,0.07-0.9,0.07-1.33c-0.01-2.09-0.02-4.17-0.03-6.25
			c-0.02-3.25-0.03-6.61-0.04-9.92c-0.01-9.07,0-18.74,0.02-30.43C117.5,50.22,117.51,47.38,117.52,44.65z"/>
		<g class="st1">
			<g>
				<path class="st2" d="M82.73,100.43c0.01,1.37-1.08,2.37-2.57,2.39c-0.5,0.01-1.01,0-1.51,0c-0.45,0-0.9,0-1.36,0
					c-0.49,0-0.97,0-1.46,0c-0.78-0.01-1.47-0.27-1.94-0.74c-0.44-0.44-0.67-1.02-0.64-1.68c0.14-3.26,0.31-6.58,0.48-9.79
					c0.07-1.3,0.14-2.59,0.2-3.89c0.04-0.76,0.08-1.51,0.11-2.27c0.09-1.75,0.17-3.57,0.28-5.35c0.23-3.84,0.48-7.63,0.72-11.16
					c0.17-2.59,0.37-5.23,0.56-7.78l0.02-0.25c0.02-0.21,0.03-0.42,0.04-0.64c0.03-0.43,0.05-0.85,0.1-1.25h4.35
					c0.24,2.35,0.45,4.67,0.62,6.89c0.23,2.99,0.46,6.19,0.68,9.76c0.13,2.02,0.23,4.07,0.34,6.06c0.03,0.66,0.07,1.32,0.1,1.99
					c0.23,4.45,0.47,8.89,0.69,13.34c0.01,0.27,0.03,0.54,0.04,0.82C82.66,98.04,82.72,99.25,82.73,100.43z"/>
				<g>
					<path class="st2" d="M76.27,51.96c0-0.37,0-0.69,0-0.99c0-6.28,0-12.57,0.01-18.85c0-1.07,0.45-1.73,1.27-1.9
						c1.16-0.25,2.05,0.43,2.13,1.66c0.05,0.69,0.01,1.39,0.01,2.08c0,5.68,0,11.35,0,17.02c0,0.31,0,0.62,0,0.93
						c2-0.25,4.07-2.25,4.55-4.49c0.21-1,0.22-2.07,0.15-3.1c-0.29-4.1-0.64-8.19-0.97-12.29c-0.09-1.21,0.59-2.09,1.64-2.13
						c1.01-0.04,1.7,0.74,1.79,1.93c0.32,4.24,0.61,8.48,1.01,12.72c0.58,6.07-4.1,11.3-10.08,11.17c-5.51-0.12-9.98-4.75-9.7-10.24
						c0.24-4.59,0.67-9.17,1.03-13.76c0.1-1.23,0.86-1.93,1.86-1.81c1.04,0.12,1.58,0.87,1.49,2.15c-0.32,4.39-0.64,8.77-0.98,13.15
						c-0.23,2.88,1.49,5.63,4.21,6.6C75.83,51.89,76,51.9,76.27,51.96z"/>
				</g>
			</g>
		</g>
	</g>
	<g class="st0">
		<g class="st1">
			<path class="st5" d="M83.39,57.69h22.5c1.55,0,2.81,1.26,2.81,2.81l0,0c0,1.55-1.26,2.81-2.81,2.81h-22.5
				c-1.55,0-2.81-1.26-2.81-2.81l0,0C80.58,58.95,81.83,57.69,83.39,57.69z"/>
			<path class="st5" d="M83.39,35.19h22.5c1.55,0,2.81,1.26,2.81,2.81l0,0c0,1.55-1.26,2.81-2.81,2.81h-22.5
				c-1.55,0-2.81-1.26-2.81-2.81l0,0C80.58,36.45,81.83,35.19,83.39,35.19z"/>
			<path class="st5" d="M83.39,80.19h22.5c1.55,0,2.81,1.26,2.81,2.81l0,0c0,1.55-1.26,2.81-2.81,2.81h-22.5
				c-1.55,0-2.81-1.26-2.81-2.81l0,0C80.58,81.45,81.83,80.19,83.39,80.19z"/>
			<path class="st5" d="M67.92,33.78L67.92,33.78c2.33,0,4.22,1.89,4.22,4.22l0,0c0,2.33-1.89,4.22-4.22,4.22l0,0
				c-2.33,0-4.22-1.89-4.22-4.22l0,0C63.7,35.67,65.59,33.78,67.92,33.78z"/>
			<path class="st5" d="M72.39,58.99L72.39,58.99c0.88,0.88,0.88,2.3,0,3.18l-4.77,4.77c-0.88,0.88-2.3,0.88-3.18,0l0,0
				c-0.88-0.88-0.88-2.3,0-3.18l4.77-4.77C70.09,58.12,71.51,58.12,72.39,58.99z"/>
			<path class="st5" d="M67.62,54.22l4.77,4.77c0.88,0.88,0.88,2.3,0,3.18v0c-0.88,0.88-2.3,0.88-3.18,0l-4.77-4.77
				c-0.88-0.88-0.88-2.3,0-3.18l0,0C65.32,53.34,66.74,53.34,67.62,54.22z"/>
			<path class="st5" d="M72.99,78.14L72.99,78.14c0.92,0.92,0.92,2.4,0,3.31l-6.63,6.63c-0.92,0.92-2.4,0.92-3.31,0l0,0
				c-0.92-0.92-0.92-2.4,0-3.31l6.63-6.63C70.59,77.22,72.07,77.22,72.99,78.14z"/>
			<path class="st5" d="M66.36,78.14l6.63,6.63c0.92,0.92,0.92,2.4,0,3.31v0c-0.92,0.92-2.4,0.92-3.31,0l-6.63-6.63
				c-0.92-0.92-0.92-2.4,0-3.31l0,0C63.96,77.22,65.44,77.22,66.36,78.14z"/>
			<path class="st2" d="M55.26,15.5c-6.21,0-11.25,5.04-11.25,11.25v67.51c0,6.21,5.04,11.25,11.25,11.25h61.88
				c6.21,0,11.25-5.04,11.25-11.25V26.75c0-6.21-5.04-11.25-11.25-11.25H55.26z M55.26,9.88h61.88c9.32,0,16.88,7.56,16.88,16.88
				v67.51c0,9.32-7.56,16.88-16.88,16.88H55.26c-9.32,0-16.88-7.56-16.88-16.88V26.75C38.38,17.43,45.94,9.88,55.26,9.88z"/>
			<path class="st2" d="M59.94,125.68c-1.82,1.61-4.68,0.32-4.68-2.11v-14.06c0-1.55,1.26-2.81,2.81-2.81s2.81,1.26,2.81,2.81v7.82
				l3.76-3.33c1.06-0.94,2.66-0.94,3.73,0l3.76,3.33v-7.3c0-1.55,1.26-2.81,2.81-2.81s2.81,1.26,2.81,2.81v13.55
				c0,2.42-2.86,3.71-4.68,2.11l-6.57-5.82L59.94,125.68z"/>
		</g>
	</g>
	<g class="st0">
		<path class="st4" d="M94.11,14.64H74.89c-19.84,0-35.92,16.08-35.92,35.92V79.9c0,19.84,16.08,35.92,35.92,35.92h51.92
			c1.78,0,3.22-1.44,3.22-3.22V50.56C130.03,30.72,113.95,14.64,94.11,14.64z M85.7,41.67c5.64,0,10.21,4.57,10.21,10.21
			c0,5.64-4.57,10.21-10.21,10.21c-5.64,0-10.21-4.57-10.21-10.21C75.49,46.24,80.06,41.67,85.7,41.67z M116.04,67.9L90.88,93.05
			c-1.34,1.34-3.11,2-4.87,1.98c-1.76,0.02-3.52-0.64-4.87-1.98L55.98,67.9c-2.65-2.65-2.65-6.95,0-9.6L56.27,58
			c2.65-2.65,6.95-2.65,9.6,0l20.13,20.13L106.14,58c2.65-2.65,6.95-2.65,9.6,0l0.29,0.29C118.69,60.94,118.69,65.24,116.04,67.9z"
			/>
	</g>
	<path class="st3" d="M81.87,65.52v19.45c0,0.49,0.2,0.96,0.55,1.29l2.83,2.7c0.69,0.65,1.77,0.65,2.46,0l2.81-2.68l3.47-3.13
		c0.73-0.66,0.79-1.79,0.13-2.52c-0.08-0.08-0.16-0.16-0.25-0.23l-1.75-1.32l1.88-1.7c0.73-0.66,0.79-1.79,0.13-2.52
		c-0.08-0.08-0.16-0.16-0.25-0.23l-2.77-2.08v-7.04c6.47-2.55,9.64-9.86,7.09-16.32c-2.55-6.47-9.86-9.64-16.32-7.09
		c-6.47,2.55-9.64,9.86-7.09,16.32C76.05,61.67,78.62,64.24,81.87,65.52L81.87,65.52z M86.48,47.9c2.12,0,3.83,1.72,3.83,3.83
		c0,2.12-1.72,3.83-3.83,3.83s-3.83-1.72-3.83-3.83C82.65,49.61,84.37,47.9,86.48,47.9z"/>
	<path class="st3" d="M144.06,93.49h-5.53V34.36c-0.01-6.11-4.96-11.06-11.07-11.07H45.5c-6.11,0.01-11.06,4.95-11.07,11.06v59.12
		H28.9c-0.98,0-1.78,0.8-1.78,1.78v6.85c0,2.91,2.36,5.26,5.26,5.26h108.2c2.91,0,5.26-2.36,5.26-5.26v-6.85
		C145.84,94.28,145.05,93.49,144.06,93.49L144.06,93.49z M37.99,34.36c0-4.15,3.36-7.51,7.51-7.51h81.96
		c4.14,0.01,7.5,3.36,7.51,7.51v59.12h-3.75V35.87c0-2.91-2.36-5.26-5.26-5.26H47.01c-2.91,0-5.26,2.36-5.26,5.26v57.62h-3.75V34.36
		z M72.9,93.49H45.31V35.87c0-0.94,0.76-1.7,1.7-1.7h78.94c0.94,0,1.7,0.76,1.7,1.7v57.62h-27.58c-0.98,0-1.78,0.8-1.78,1.78l0,0
		v1.06c0,0.3-0.24,0.54-0.54,0.54H75.21c-0.3,0-0.54-0.24-0.54-0.54v-1.06C74.67,94.28,73.88,93.49,72.9,93.49L72.9,93.49
		L72.9,93.49z M142.28,102.11c0,0.94-0.76,1.7-1.7,1.7H32.38c-0.94,0-1.7-0.76-1.7-1.7v-5.06h40.49c0.35,1.96,2.05,3.38,4.04,3.38
		h22.53c1.99,0,3.69-1.43,4.04-3.38h40.5V102.11z"/>
	<path class="st3" d="M95.09,62.46l-5.15-7.57l-5.09,11.27c-0.28,0.64-0.83,1.02-1.46,1.02h-0.01c-0.63,0-1.17-0.38-1.46-1.01
		l-3.6-7.85l-2.16,3.99c-0.4,0.75-1.27,1.26-2.12,1.26h-0.23h-2.25h-6.71c-0.73,0-1.31,0.59-1.31,1.31c0,0.72,0.58,1.31,1.31,1.31
		h8.66c2.57,2.9,6.39,5.53,11.84,7.41c7.06-2.43,11.39-6.11,13.79-10.03h-1.96C96.4,63.58,95.53,63.12,95.09,62.46z"/>
	<path class="st3" d="M107.47,58.37h-6.22c1.36-6.4-1.51-12.37-5.42-13.77c-7.03-2.51-10.47,3.84-10.47,3.84s-3.43-6.36-10.47-3.84
		c-4.44,1.59-7.53,9.04-4.65,16.36h3.67l3.03-5.62c0.32-0.59,0.88-0.94,1.49-0.92c0.62,0.02,1.15,0.4,1.44,1.02l3.5,7.62l4.87-10.78
		c0.26-0.59,0.78-0.98,1.38-1.03c0.6-0.06,1.17,0.24,1.53,0.78l6.09,8.96h1.26h1.94h7.02c0.72,0,1.31-0.59,1.31-1.31
		C108.78,58.95,108.19,58.37,107.47,58.37z"/>
	<path class="st3" d="M120.66,25.05h-14.71v-2.83c0-2.2-1.79-3.98-3.98-3.98h-3.45c-2.42-4.33-7.04-7.26-12.35-7.26
		c-5.31,0-9.93,2.93-12.35,7.26h-3.45c-2.2,0-3.98,1.78-3.98,3.98v2.83H51.67c-4,0-7.26,3.26-7.26,7.26v82.6
		c0,4,3.26,7.26,7.26,7.26h68.99c4,0,7.26-3.26,7.26-7.26v-82.6C127.92,28.3,124.66,25.05,120.66,25.05z M51.67,114.91v-82.6h14.71
		v3.96c0,2.2,1.79,3.98,3.98,3.98h31.59c2.2,0,3.98-1.78,3.98-3.98v-3.96h14.71l0.01,82.6H51.67z"/>
	<path class="st3" d="M91.43,84.62c0,0.43-0.35,0.77-0.77,0.77H61.7c-0.43,0-0.77-0.35-0.77-0.77v-3.1c0-0.43,0.35-0.77,0.77-0.77
		h28.96c0.43,0,0.77,0.35,0.77,0.77C91.43,81.52,91.43,84.62,91.43,84.62z"/>
	<path class="st3" d="M103.81,87.9c-0.84,0-1.62-0.4-2.16-1.1l-6.03-7.9l3.32-2.53l4.72,6.19l7.72-12.67l3.56,2.17l-8.83,14.51
		c-0.49,0.8-1.28,1.29-2.17,1.33C103.9,87.9,103.86,87.9,103.81,87.9z"/>
	<path class="st3" d="M91.43,105.5c0,0.43-0.35,0.77-0.77,0.77H61.7c-0.43,0-0.77-0.34-0.77-0.77v-3.1c0-0.43,0.35-0.77,0.77-0.77
		h28.96c0.43,0,0.77,0.35,0.77,0.77C91.43,102.4,91.43,105.5,91.43,105.5z"/>
	<path class="st3" d="M103.81,108.78c-0.84,0-1.62-0.4-2.16-1.1l-6.03-7.9l3.32-2.53l4.72,6.19l7.72-12.67l3.56,2.17l-8.83,14.51
		c-0.49,0.8-1.28,1.29-2.17,1.33C103.9,108.78,103.86,108.78,103.81,108.78z"/>
	<g class="st0">
		<g class="st1">
			<path class="st2" d="M132.04,98.18V55.87h-6.51v42.32H47.41V55.87c0-1.8,1.46-3.26,3.26-3.26h9.77V46.1h-9.77
				c-5.39,0-9.77,4.37-9.77,9.77v42.32h-6.51v15.37l12.49,4.16h79.18l12.49-4.16V98.18H132.04z M132.04,108.86L125,111.2H47.93
				l-7.04-2.35v-4.16h91.14V108.86z"/>
			<path class="st2" d="M70.19,91.67c7.18,0.01,13-5.8,13.01-12.98c0.01-5.94-4.01-11.12-9.76-12.6V47.73
				c0-4.49,3.64-8.14,8.14-8.14s8.14,3.64,8.14,8.14v9.77c0,8.09,6.56,14.65,14.65,14.65s14.65-6.56,14.65-14.65v-5.21
				c7.57-1.56,13.01-8.22,13.02-15.95V13.55h-12.82v6.51h6.31v16.28c0,5.39-4.37,9.77-9.77,9.77S106,41.73,106,36.34V20.06h6.51
				v-6.51H99.49v22.79c0.01,7.73,5.45,14.39,13.02,15.95v5.21c0,4.49-3.64,8.14-8.14,8.14c-4.49,0-8.14-3.64-8.14-8.14v-9.77
				c0-8.09-6.56-14.65-14.65-14.65s-14.65,6.56-14.65,14.65V66.1c-6.95,1.79-11.13,8.87-9.35,15.82
				C59.07,87.67,64.26,91.68,70.19,91.67z M70.19,72.14c3.6,0,6.51,2.91,6.51,6.51s-2.91,6.51-6.51,6.51c-3.6,0-6.51-2.91-6.51-6.51
				S66.6,72.14,70.19,72.14z"/>
			<polygon class="st2" points="112.51,85.16 106,85.16 106,91.67 119.02,91.67 119.02,78.65 112.51,78.65 			"/>
			<rect x="92.98" y="85.16" class="st2" width="6.51" height="6.51"/>
		</g>
	</g>
	<path class="st3" d="M142.44,37.34h-18v-9.56c4.33-2.16,2.88-8.68-2.02-8.75h-17.24c-2.54,0-4.61,2.06-4.61,4.6
		c0,1.76,1,3.37,2.59,4.14v9.56h-6.6v-9.56c4.33-2.16,2.88-8.68-2.02-8.75H77.31c-2.54,0-4.61,2.06-4.61,4.6
		c0,1.76,1,3.37,2.59,4.15v9.56h-6.6v-9.56c4.33-2.16,2.89-8.68-2.02-8.75H49.43c-2.54,0-4.61,2.06-4.61,4.6
		c0,1.76,1,3.37,2.59,4.15v9.56h-18c-1.51,0-2.73,1.22-2.73,2.73v8.63c0,1.51,1.22,2.73,2.73,2.73h1.98v54
		c0,3.3,2.68,5.98,5.98,5.98h97.11c3.3,0,5.98-2.68,5.98-5.98V51.44h1.98c1.51,0,2.73-1.22,2.73-2.73v-8.63
		C145.17,38.57,143.95,37.35,142.44,37.34z M105.18,21.77h17.24c2.47,0.08,2.49,3.65,0.02,3.75h-17.27
		C102.7,25.42,102.7,21.86,105.18,21.77z M105.9,28.26h15.81v9.08H105.9V28.26z M77.31,21.77h17.24c2.47,0.08,2.49,3.65,0.02,3.75
		H77.29C74.82,25.42,74.83,21.86,77.31,21.77z M78.02,28.26h15.81v9.08H78.02L78.02,28.26z M49.43,21.77h17.24
		c2.47,0.08,2.49,3.65,0.02,3.75H49.42C46.95,25.42,46.95,21.86,49.43,21.77z M50.14,28.26h15.81v9.08H50.14L50.14,28.26z
		 M47.41,51.44V75.5c0,5.88,4.76,10.64,10.64,10.64s10.64-4.76,10.64-10.64V51.44h6.6V75.5c0,5.88,4.77,10.64,10.64,10.63
		c5.87,0,10.63-4.76,10.63-10.63V51.44h6.6V75.5c0,5.88,4.76,10.64,10.64,10.64c5.05,0,9.4-3.55,10.42-8.5
		c0.45,0.18,0.12-25.42,0.22-26.2h5.21V90.8H42.2V51.44L47.41,51.44z M65.96,57.6H50.14v-6.16h15.81L65.96,57.6z M50.14,60.33h15.81
		V75.5c0,4.37-3.54,7.91-7.91,7.91s-7.91-3.54-7.91-7.91V60.33z M93.83,57.6H78.02v-6.16h15.81L93.83,57.6z M78.02,60.33h15.81V75.5
		c0,4.37-3.54,7.91-7.91,7.91s-7.91-3.54-7.91-7.91V60.33z M107.04,79.6c-0.75-1.23-1.15-2.65-1.15-4.1V60.33h15.81V75.5
		c0,1.45-0.4,2.86-1.15,4.1C117.55,84.65,110.06,84.65,107.04,79.6L107.04,79.6z M121.71,57.6H105.9v-6.16h15.81V57.6z M39.47,90.8
		h-5.34V51.44h5.34V90.8z M137.73,105.44c0,1.79-1.45,3.25-3.25,3.25H37.37c-1.79,0-3.25-1.46-3.25-3.25V93.53h103.61V105.44z
		 M137.73,90.8h-5.34V51.44h5.34V90.8z M29.41,48.71v-8.63h113.03l0,8.63H29.41z"/>
</g>
<g id="Camada_4">
	<g class="st0">
		<circle class="st6" cx="85" cy="85.06" r="85.06"/>
		<path class="st7" d="M169.27,84.05c0.44,28.8-13.48,54.47-35.15,70.19c-13.67,9.92-30.43,15.88-48.61,16.16"/>
		<g class="st1">
			<g>
				<linearGradient id="SVGID_1_" gradientUnits="userSpaceOnUse" x1="33.3993" y1="85.0645" x2="137.1807" y2="85.0645">
					<stop  offset="0" style="stop-color:#00501B"/>
					<stop  offset="0.5" style="stop-color:#066F32"/>
					<stop  offset="0.99" style="stop-color:#00501B"/>
					<stop  offset="1" style="stop-color:#00501B"/>
				</linearGradient>
				<path class="st8" d="M129.69,128.06c1.45,0,2.63-1.18,2.63-2.64v-60.4H38.27v60.4c0,1.45,1.18,2.63,2.63,2.64H129.69z
					 M40.89,49.42h12.37v4.45v0c0,0.77,0.31,1.51,0.85,2.05c0.54,0.54,1.28,0.85,2.05,0.85h8.19h0c0.77,0,1.51-0.31,2.05-0.85
					c0.54-0.54,0.85-1.28,0.85-2.05v-4.45h36.08v4.45v0c0,0.77,0.31,1.51,0.85,2.05c0.54,0.54,1.28,0.85,2.05,0.85h8.19
					c0.77,0,1.51-0.31,2.05-0.85c0.54-0.54,0.85-1.28,0.85-2.05v-4.45h12.37c1.45,0,2.63,1.18,2.63,2.63v8.11H38.26v-8.11v0
					C38.26,50.6,39.44,49.42,40.89,49.42L40.89,49.42z M58.13,42.07v9.83h4.26v-9.83H58.13z M108.19,42.07v9.83h4.26v-9.83H108.19z
					 M129.68,44.56h-12.37v-4.45c0-0.77-0.31-1.51-0.85-2.05c-0.54-0.54-1.28-0.85-2.05-0.85h-8.19c-0.77,0-1.51,0.31-2.05,0.85
					c-0.54,0.54-0.85,1.28-0.85,2.05v4.45H67.25v-4.45c0-0.77-0.31-1.51-0.85-2.05c-0.54-0.54-1.28-0.85-2.05-0.85h-8.19h0
					c-0.77,0-1.51,0.31-2.05,0.85c-0.54,0.54-0.85,1.28-0.85,2.05v4.45H40.89c-1.99,0-3.89,0.79-5.3,2.2c-1.4,1.4-2.2,3.31-2.2,5.3
					v73.38c0,1.99,0.79,3.89,2.2,5.3c1.4,1.4,3.31,2.2,5.3,2.2h88.79c1.99,0,3.89-0.79,5.3-2.2s2.2-3.31,2.2-5.3V52.05
					c0-1.99-0.79-3.89-2.2-5.3C133.58,45.35,131.67,44.56,129.68,44.56L129.68,44.56z"/>
			</g>
			<g>
				
					<linearGradient id="SVGID_00000068662699722901284440000001426238653591732636_" gradientUnits="userSpaceOnUse" x1="60.1885" y1="94.5247" x2="113.4424" y2="94.5247">
					<stop  offset="0" style="stop-color:#00501B"/>
					<stop  offset="0.5" style="stop-color:#066F32"/>
					<stop  offset="0.99" style="stop-color:#00501B"/>
					<stop  offset="1" style="stop-color:#00501B"/>
				</linearGradient>
				<path style="fill:url(#SVGID_00000068662699722901284440000001426238653591732636_);" d="M60.75,120.8
					c0.61,0.49,1.49,0.43,2.03-0.14l5.42-5.42l11.09-0.02c0.41,0,0.8-0.16,1.08-0.45l20.29-20.29l1.06,1.06l0,0
					c0.03,0.03,0.06,0.07,0.1,0.1c0.3,0.27,0.69,0.41,1.09,0.39c0.4-0.02,0.78-0.2,1.05-0.49c0.27-0.3,0.41-0.69,0.39-1.09
					c-0.02-0.4-0.2-0.78-0.49-1.05l-4.79-4.79l9.61-9.61l2.13,2.13c0.03,0.03,0.06,0.07,0.1,0.1c0.62,0.56,1.57,0.51,2.13-0.1
					c0.56-0.62,0.52-1.57-0.1-2.13l-10.64-10.64c-0.28-0.29-0.67-0.45-1.07-0.45c-0.4,0-0.79,0.16-1.08,0.44
					c-0.29,0.29-0.45,0.67-0.44,1.08c0,0.4,0.17,0.79,0.45,1.07l2.13,2.13l-9.61,9.61l-4.79-4.79C87.62,77.17,87.24,77,86.84,77
					c-0.4,0-0.79,0.16-1.08,0.44c-0.29,0.29-0.45,0.67-0.44,1.08c0,0.4,0.17,0.79,0.45,1.07l1.06,1.06l-20.29,20.29l0,0
					c-0.29,0.29-0.45,0.68-0.45,1.08l-0.02,11.09l-5.42,5.42c-0.31,0.3-0.48,0.72-0.47,1.16C60.21,120.13,60.41,120.53,60.75,120.8
					L60.75,120.8z M69.09,112.23l0.02-9.59l15.58-15.58l9.58,9.58L90,100.9l-2.66-2.66c-0.28-0.29-0.67-0.45-1.07-0.45
					c-0.4,0-0.79,0.16-1.08,0.44c-0.29,0.29-0.45,0.67-0.44,1.08c0,0.4,0.17,0.79,0.45,1.07l2.66,2.66l-2.14,2.14l-2.66-2.66
					c-0.28-0.29-0.67-0.45-1.07-0.45c-0.4,0-0.79,0.16-1.08,0.44c-0.29,0.29-0.45,0.67-0.44,1.08c0,0.4,0.17,0.79,0.45,1.07
					l2.66,2.66l-2.14,2.14l-2.66-2.66c-0.28-0.29-0.67-0.45-1.07-0.45c-0.4,0-0.79,0.16-1.08,0.44c-0.29,0.29-0.45,0.67-0.44,1.08
					c0,0.4,0.17,0.79,0.46,1.07l2.66,2.66l-0.63,0.63L69.09,112.23z M96.4,94.49l-1.6-1.6l2.14-2.14l1.6,1.6L96.4,94.49z
					 M92.68,90.77l-2.13-2.13l2.14-2.14l2.13,2.13L92.68,90.77z M88.42,86.51l-1.6-1.6l2.14-2.14l1.6,1.6L88.42,86.51z M96.95,86.5
					l-2.13-2.13l9.61-9.61l2.13,2.13L96.95,86.5z"/>
			</g>
		</g>
	</g>
	<g>
		<circle class="st10" cx="85.5" cy="85.74" r="85.06"/>
		<g>
			
				<linearGradient id="SVGID_00000001622529628940040440000013051800400115663253_" gradientUnits="userSpaceOnUse" x1="53.9349" y1="116.3132" x2="68.5373" y2="116.3132">
				<stop  offset="0" style="stop-color:#00501B"/>
				<stop  offset="0.5" style="stop-color:#066F32"/>
				<stop  offset="0.99" style="stop-color:#00501B"/>
				<stop  offset="1" style="stop-color:#00501B"/>
			</linearGradient>
			<path style="fill:url(#SVGID_00000001622529628940040440000013051800400115663253_);" d="M66.71,114.49h-3.65v-3.65
				c0-1.01-0.82-1.83-1.83-1.83c-1.01,0-1.83,0.82-1.83,1.83v3.65h-3.65c-1.01,0-1.83,0.82-1.83,1.83c0,1.01,0.82,1.83,1.83,1.83
				h3.65v3.65c0,1.01,0.82,1.83,1.83,1.83c1.01,0,1.83-0.82,1.83-1.83v-3.65h3.65c1.01,0,1.83-0.82,1.83-1.83
				C68.54,115.31,67.72,114.49,66.71,114.49z"/>
			
				<linearGradient id="SVGID_00000102528582395505513080000017207357171122355354_" gradientUnits="userSpaceOnUse" x1="89.733" y1="112.5213" x2="103.8626" y2="112.5213">
				<stop  offset="0" style="stop-color:#00501B"/>
				<stop  offset="0.5" style="stop-color:#066F32"/>
				<stop  offset="0.99" style="stop-color:#00501B"/>
				<stop  offset="1" style="stop-color:#00501B"/>
			</linearGradient>
			<path style="fill:url(#SVGID_00000102528582395505513080000017207357171122355354_);" d="M98.62,117.76v-3.41h3.42
				c1.01,0,1.83-0.82,1.83-1.83s-0.82-1.83-1.83-1.83h-3.42v-3.41c0-1.01-0.82-1.83-1.83-1.83c-1.01,0-1.83,0.82-1.83,1.83v3.41
				h-3.41c-1.01,0-1.83,0.82-1.83,1.83s0.82,1.83,1.83,1.83h3.41v3.41c0,1.01,0.82,1.83,1.83,1.83
				C97.81,119.59,98.62,118.77,98.62,117.76z"/>
			
				<linearGradient id="SVGID_00000057835893042402160100000003700326417079121087_" gradientUnits="userSpaceOnUse" x1="35.6829" y1="83.4572" x2="145.2009" y2="83.4572">
				<stop  offset="0" style="stop-color:#00501B"/>
				<stop  offset="0.5" style="stop-color:#066F32"/>
				<stop  offset="0.99" style="stop-color:#00501B"/>
				<stop  offset="1" style="stop-color:#00501B"/>
			</linearGradient>
			<path style="fill:url(#SVGID_00000057835893042402160100000003700326417079121087_);" d="M143.78,123.11
				c-1.79-2.99-5.07-4.85-8.55-4.85c-5.28,0-9.6,4.12-9.94,9.32h-2.21v-6.32c0-1.42-0.55-2.75-1.56-3.76
				c-1.01-1.01-2.34-1.56-3.76-1.56c-0.59,0-1.14,0.12-1.67,0.3V95.24c0-0.01,0-0.01,0-0.02l0-6.15c0-0.01,0-0.01,0-0.02v-2.07h1.68
				c1.01,0,1.83-0.82,1.83-1.83l0-16.3c0-1.01-0.82-1.83-1.83-1.83H75.84c-1.01,0-1.83,0.82-1.83,1.83v3.93
				c-1.18-2.86-1.83-5.94-1.83-9.08V43.3h3.65c1.01,0,1.83-0.82,1.83-1.83V30.52c0-1.01-0.82-1.83-1.83-1.83h-29.2
				c-1.01,0-1.83,0.82-1.83,1.83v10.95c0,1.01,0.82,1.83,1.83,1.83h3.65v20.41c0,5.37-1.85,10.63-5.21,14.81l-3.39,4.25
				c-3.87,4.85-6,10.92-6,17.11v34.68c0,2.01,1.64,3.65,3.65,3.65h74.93c0.49,0,0.93-0.2,1.26-0.51c0.68,0.32,1.44,0.51,2.24,0.51
				h11.64c0.86,0,1.71-0.23,2.42-0.59c1.07,0.39,2.21,0.59,3.4,0.59c1.83,0,3.61-0.49,5.13-1.42c1.4-0.84,2.59-2.02,3.42-3.41
				c0.94-1.54,1.43-3.31,1.43-5.14C145.2,126.41,144.71,124.63,143.78,123.11L143.78,123.11z M135.22,121.91
				c1.22,0,2.37,0.35,3.36,0.97l-5.88,5.88c-0.91-0.73-2.05-1.18-3.3-1.18h-0.47C129.26,124.4,131.96,121.91,135.22,121.91
				L135.22,121.91z M101.94,125.95c-0.27-0.13-0.51-0.3-0.74-0.49c-0.02-0.02-0.03-0.03-0.05-0.05h5.23
				c-0.06,0.05-0.11,0.11-0.17,0.16c-0.07,0.05-0.14,0.11-0.21,0.16c-0.25,0.17-0.52,0.32-0.8,0.43c-0.01,0-0.01,0.01-0.02,0.01
				c-0.3,0.11-0.61,0.16-0.92,0.2c-0.09,0.01-0.17,0.02-0.26,0.02c-0.64,0.03-1.29-0.1-1.87-0.36
				C102.06,126,102,125.98,101.94,125.95L101.94,125.95z M39.33,105.36H77.5v21.9H39.33L39.33,105.36z M106.87,86.98
				c-0.11,0.08-0.2,0.18-0.3,0.27c-0.16,0.14-0.32,0.27-0.47,0.42c-0.12,0.12-0.22,0.26-0.32,0.39c-0.31,0.38-0.58,0.79-0.8,1.23
				c-0.04,0.08-0.1,0.16-0.14,0.25c-0.09,0.19-0.14,0.4-0.21,0.61c-0.05,0.15-0.11,0.29-0.15,0.44c-0.07-0.02-0.15-0.02-0.22-0.04
				c-0.29-0.08-0.59-0.13-0.9-0.16c-0.13-0.01-0.26-0.03-0.39-0.04c-0.12-0.01-0.23-0.04-0.35-0.04c-1.25,0-2.43,0.36-3.44,1
				c-0.03,0.02-0.07,0.03-0.1,0.05c0,0,0,0,0,0c-0.01-0.02-0.03-0.03-0.04-0.04c-0.24-0.3-0.5-0.58-0.77-0.84
				c-0.08-0.07-0.16-0.15-0.24-0.22c-0.23-0.21-0.48-0.4-0.73-0.59c-0.08-0.06-0.15-0.11-0.23-0.17c-0.67-0.46-1.41-0.82-2.19-1.07
				c-0.07-0.02-0.15-0.04-0.22-0.07c-0.33-0.1-0.68-0.18-1.02-0.24c-0.07-0.01-0.14-0.03-0.22-0.04c-0.42-0.06-0.84-0.1-1.27-0.1
				c-0.48,0-0.95,0.05-1.41,0.12c-0.09,0.01-0.18,0.04-0.26,0.05c-0.37,0.07-0.73,0.16-1.08,0.28c-0.1,0.03-0.2,0.07-0.3,0.1
				c-0.37,0.14-0.73,0.29-1.07,0.48c-0.05,0.03-0.1,0.05-0.15,0.07c-0.38,0.21-0.75,0.46-1.1,0.72c-0.1,0.07-0.18,0.16-0.27,0.23
				c-0.24,0.2-0.46,0.4-0.68,0.63c-0.12,0.12-0.23,0.25-0.34,0.38c-0.17,0.2-0.34,0.42-0.49,0.64c-0.1,0.14-0.2,0.28-0.3,0.43
				c-0.02,0.03-0.04,0.06-0.06,0.09c-0.01-0.01-0.02-0.01-0.04-0.01c-0.37-0.19-0.76-0.32-1.16-0.44c-0.15-0.04-0.29-0.08-0.44-0.11
				c-0.38-0.08-0.76-0.13-1.15-0.14c-0.06,0-0.11-0.02-0.17-0.02c-0.17,0-0.34,0.01-0.51,0.02v-4.53L106.87,86.98z M106.9,129.79
				c0.02-0.06,0.04-0.12,0.06-0.18c0.04-0.11,0.1-0.21,0.16-0.31c0.02-0.01,0.04-0.03,0.06-0.04c0.74-0.37,1.4-0.85,1.98-1.42
				c0.02-0.02,0.04-0.03,0.05-0.05c0.09-0.01,0.18-0.04,0.27-0.04c0.09,0,0.19-0.01,0.28,0c0.09,0,0.19,0.01,0.28,0.03
				c0.09,0.01,0.18,0.03,0.27,0.06c0.11,0.03,0.22,0.06,0.32,0.1c0.06,0.02,0.11,0.05,0.16,0.07c0.12,0.06,0.25,0.12,0.36,0.2
				c0.02,0.02,0.04,0.03,0.07,0.05c0.13,0.09,0.26,0.19,0.37,0.31c0,0,0.01,0.01,0.01,0.01c0.51,0.51,0.82,1.22,0.82,1.99
				c0,1.56-1.27,2.83-2.83,2.83c-1.56,0-2.83-1.27-2.83-2.83C106.78,130.3,106.82,130.04,106.9,129.79L106.9,129.79z M112.44,98.41
				v1.22h-4.01c0.13-0.27,0.24-0.54,0.33-0.83c0.05-0.15,0.11-0.29,0.15-0.45c0.12,0.04,0.24,0.05,0.36,0.08
				c0.11,0.03,0.22,0.06,0.34,0.08c0.36,0.07,0.73,0.11,1.1,0.11c0.02,0,0.05,0.01,0.07,0.01c0.06,0,0.12-0.02,0.18-0.02
				c0.34-0.01,0.68-0.05,1.01-0.11c0.09-0.02,0.19-0.03,0.28-0.05C112.31,98.43,112.37,98.43,112.44,98.41L112.44,98.41z
				 M81.15,95.2c0.15-0.03,0.3-0.05,0.46-0.05c0.11,0,0.22,0.01,0.34,0.02c0.15,0.02,0.29,0.04,0.44,0.08
				c0.09,0.02,0.17,0.05,0.26,0.08c0.23,0.09,0.46,0.2,0.68,0.35c0.02,0.01,0.04,0.04,0.06,0.06c-0.04,0.34-0.07,0.7-0.07,1.05
				c0,0.09,0.02,0.17,0.02,0.26c0.01,0.33,0.04,0.65,0.08,0.97c0.02,0.15,0.04,0.29,0.07,0.43c0.07,0.35,0.15,0.68,0.26,1.02
				c0.02,0.05,0.02,0.1,0.04,0.15h-2.64L81.15,95.2z M111.54,89.43c0.07,0.02,0.15,0.04,0.22,0.07c0.24,0.09,0.48,0.2,0.69,0.35
				v4.57c-0.01,0.01-0.02,0.01-0.03,0.02c-0.21,0.15-0.44,0.26-0.67,0.35c-0.06,0.02-0.12,0.04-0.18,0.06
				c-0.25,0.07-0.51,0.12-0.78,0.12c0,0,0,0-0.01,0c-1.56,0-2.83-1.27-2.83-2.83c0-1.56,1.27-2.83,2.83-2.83
				c0.03,0,0.06,0.01,0.09,0.01C111.09,89.33,111.32,89.37,111.54,89.43L111.54,89.43z M87.83,99.63c-0.1-0.16-0.19-0.32-0.28-0.5
				c-0.01-0.02-0.02-0.03-0.03-0.04c0,0,0-0.01-0.01-0.01c0-0.01,0-0.02-0.01-0.02c-0.06-0.11-0.08-0.22-0.13-0.33
				c-0.25-0.6-0.4-1.23-0.4-1.91c0-0.42,0.05-0.82,0.16-1.23c0.55-2.31,2.61-3.93,5-3.93c1.82,0,3.49,0.98,4.41,2.5
				c0.16,0.26,0.3,0.54,0.41,0.84c0,0,0,0,0,0.01c0.22,0.59,0.34,1.2,0.34,1.82c0,0.61-0.11,1.22-0.34,1.82c0,0,0,0,0,0
				c-0.06,0.16-0.15,0.29-0.22,0.44c-0.09,0.19-0.17,0.4-0.29,0.58L87.83,99.63z M100.75,94.69c0.22-0.19,0.46-0.34,0.72-0.45
				c0.07-0.03,0.15-0.06,0.22-0.09c0.29-0.1,0.59-0.17,0.9-0.17c0,0,0.01,0,0.01,0c1.56,0,2.83,1.27,2.83,2.83
				c0,1.56-1.27,2.83-2.83,2.83c-0.02,0-0.04-0.01-0.06-0.01c-0.3-0.01-0.58-0.07-0.85-0.16c-0.08-0.03-0.16-0.06-0.24-0.1
				c-0.25-0.11-0.49-0.26-0.7-0.44c-0.02-0.02-0.04-0.03-0.06-0.05c0.03-0.11,0.04-0.22,0.06-0.33c0.02-0.11,0.04-0.23,0.06-0.34
				c0.08-0.46,0.13-0.93,0.13-1.4c0-0.47-0.05-0.94-0.13-1.4c-0.02-0.11-0.04-0.23-0.06-0.34c-0.02-0.11-0.03-0.22-0.06-0.33
				C100.72,94.71,100.74,94.7,100.75,94.69L100.75,94.69z M81.15,103.54v-0.26h5.78c0.01,0,0.01,0,0.02,0h10.39
				c0.01,0,0.01,0,0.02,0h5.2c0.02,0,0.05,0,0.07,0c0.01,0,0.03,0,0.04,0h9.77v18.47H81.15L81.15,103.54z M116.09,132.9v-4h3.34v4
				c0,0.52-0.23,0.89-0.45,1.13c-0.3,0.34-0.74,0.53-1.22,0.53C116.84,134.57,116.09,133.82,116.09,132.9L116.09,132.9z
				 M117.76,119.59c0.44,0,0.86,0.17,1.18,0.49c0.32,0.32,0.49,0.73,0.49,1.18v4h-3.34v-4
				C116.09,120.33,116.84,119.59,117.76,119.59L117.76,119.59z M77.66,70.68h38.27v12.65H77.66V70.68z M48.46,32.35h25.55v7.3H48.46
				V32.35z M39.33,99.89c0-5.36,1.85-10.63,5.21-14.83l3.39-4.25c3.87-4.83,6-10.9,6-17.09V43.3h14.6v20.41
				c0,5.92,1.94,11.72,5.48,16.41v5.04c0,1.01,0.82,1.83,1.83,1.83h1.66v14.73H39.33L39.33,99.89z M39.33,130.92H77.5v3.65H39.33
				L39.33,130.92z M81.15,134.57v-9.16h15.59c0.14,0.33,0.31,0.65,0.49,0.95c0.06,0.1,0.13,0.18,0.19,0.27
				c0.15,0.23,0.31,0.45,0.48,0.66c0.12,0.14,0.24,0.27,0.37,0.4c0.14,0.14,0.28,0.28,0.43,0.42c0.15,0.13,0.3,0.26,0.46,0.38
				c0.15,0.11,0.3,0.21,0.46,0.31c0.17,0.11,0.34,0.23,0.52,0.33c0.19,0.1,0.39,0.18,0.59,0.27c0.31,0.13,0.62,0.25,0.94,0.34
				c0.18,0.05,0.36,0.11,0.55,0.15c0.2,0.04,0.41,0.07,0.62,0.1c0.1,0.01,0.2,0.04,0.31,0.05c-0.01,0.15-0.02,0.3-0.02,0.44
				c0,0.03-0.01,0.06-0.01,0.09c0,0.08,0.02,0.15,0.02,0.23c0.01,0.33,0.04,0.65,0.1,0.96c0.03,0.16,0.08,0.31,0.12,0.47
				c0.06,0.23,0.12,0.45,0.21,0.66c0.06,0.16,0.14,0.32,0.21,0.47c0.09,0.2,0.2,0.39,0.31,0.57c0.09,0.15,0.18,0.29,0.29,0.43
				c0.05,0.06,0.08,0.13,0.13,0.19L81.15,134.57z M122.81,134.57c0.05-0.15,0.08-0.31,0.11-0.47c0.02-0.1,0.05-0.19,0.07-0.28
				c0.05-0.3,0.08-0.61,0.08-0.92v-1.67h6.33c0.92,0,1.67,0.75,1.67,1.67c0,0.26-0.06,0.48-0.15,0.68c-0.09,0.19-0.2,0.34-0.31,0.47
				l0,0c-0.01,0.01-0.01,0.02-0.02,0.03c-0.04,0.03-0.07,0.07-0.11,0.11l-0.01-0.01c-0.21,0.18-0.57,0.4-1.07,0.4L122.81,134.57z
				 M140.64,131.5c-0.54,0.9-1.27,1.63-2.18,2.17c-1.18,0.72-2.63,1.01-4,0.85c0.04-0.14,0.07-0.29,0.1-0.43
				c0.02-0.1,0.05-0.19,0.07-0.29c0.05-0.3,0.08-0.6,0.08-0.9c0-0.31-0.04-0.61-0.09-0.9l6.36-6.36c0.37,0.81,0.56,1.69,0.56,2.6
				C141.55,129.4,141.24,130.52,140.64,131.5L140.64,131.5z"/>
		</g>
		<path class="st14" d="M169.07,84.72c0.44,28.8-13.48,54.47-35.15,70.19c-13.67,9.92-30.43,15.88-48.61,16.16"/>
	</g>
	<g>
		<circle class="st10" cx="58.68" cy="-142.99" r="85.06"/>
		<g>
			
				<linearGradient id="SVGID_00000034079288544022973410000001702673926637594285_" gradientUnits="userSpaceOnUse" x1="22.7329" y1="-142.4254" x2="92.1481" y2="-142.4254">
				<stop  offset="0" style="stop-color:#00501B"/>
				<stop  offset="0.5" style="stop-color:#066F32"/>
				<stop  offset="0.99" style="stop-color:#00501B"/>
				<stop  offset="1" style="stop-color:#00501B"/>
			</linearGradient>
			<path style="fill:url(#SVGID_00000034079288544022973410000001702673926637594285_);" d="M92.15-101.35v-39.13
				c0-4.05-1.03-8.08-2.97-11.64l-3.74-6.85c-1.59-2.91-2.43-6.2-2.43-9.52v-1.91h0.26c1.22,0,2.21-0.99,2.21-2.21v-13.09
				c0-4.87-3.96-8.83-8.83-8.83H37.01c-4.87,0-8.83,3.96-8.83,8.83v13.09c0,1.22,0.99,2.21,2.21,2.21h1.49v1.91
				c0,3.32-0.84,6.61-2.43,9.52l-3.74,6.85c-1.94,3.56-2.97,7.58-2.97,11.64v39.13c0,6.09,4.95,11.04,11.04,11.04h47.33
				C87.19-90.32,92.15-95.27,92.15-101.35L92.15-101.35z M32.59-185.7c0-2.44,1.98-4.42,4.42-4.42h39.64c2.44,0,4.42,1.98,4.42,4.42
				v10.88H32.59V-185.7z M87.73-101.35c0,3.65-2.97,6.62-6.62,6.62H33.77c-3.65,0-6.62-2.97-6.62-6.62v-39.13
				c0-3.32,0.84-6.61,2.43-9.52l3.74-6.85c1.94-3.56,2.97-7.58,2.97-11.64v-1.91h42.31v1.91c0,4.05,1.03,8.08,2.97,11.64l3.74,6.85
				c1.59,2.91,2.43,6.2,2.43,9.52V-101.35z"/>
			
				<linearGradient id="SVGID_00000158734237392946397840000008680214061170094472_" gradientUnits="userSpaceOnUse" x1="45.6654" y1="-133.7386" x2="71.5725" y2="-133.7386">
				<stop  offset="0" style="stop-color:#00501B"/>
				<stop  offset="0.5" style="stop-color:#066F32"/>
				<stop  offset="0.99" style="stop-color:#00501B"/>
				<stop  offset="1" style="stop-color:#00501B"/>
			</linearGradient>
			<path style="fill:url(#SVGID_00000158734237392946397840000008680214061170094472_);" d="M66.74-137.28H62.3l0.62-5.26
				c0.17-1.23-0.3-2.46-1.24-3.27c-0.94-0.81-2.23-1.08-3.42-0.73c-1.19,0.35-2.12,1.29-2.46,2.48l-0.68,2.37l0,0
				c-0.51,1.79-1.49,3.4-2.84,4.68c-0.2-0.17-0.46-0.27-0.72-0.27h-4.71c-0.65,0-1.18,0.53-1.18,1.18v14.13
				c0,0.31,0.12,0.61,0.35,0.83c0.22,0.22,0.52,0.35,0.83,0.35h4.71c0.31,0,0.61-0.12,0.83-0.35c0.22-0.22,0.35-0.52,0.35-0.83
				v-0.16l0.12,0.08c1.22,0.82,2.66,1.25,4.14,1.25h6.03c1.33,0,2.57-0.68,3.28-1.82l4.54-7.27c0.61-0.98,0.85-2.15,0.68-3.29
				c-0.17-1.14-0.75-2.19-1.63-2.94C69.01-136.86,67.89-137.28,66.74-137.28L66.74-137.28z M50.38-123.15h-2.36v-11.78h2.36V-123.15
				z M68.84-131.12l-4.54,7.27c-0.27,0.44-0.76,0.71-1.28,0.71h-6.03c-1.01,0-1.99-0.3-2.83-0.86l-1.43-0.95v-9.37
				c2.25-1.67,3.88-4.02,4.65-6.71l0.68-2.37c0.08-0.27,0.24-0.51,0.46-0.68c0.22-0.17,0.5-0.26,0.78-0.26
				c0.37,0,0.73,0.16,0.98,0.45c0.25,0.29,0.36,0.68,0.3,1.06l-0.77,6.6c-0.04,0.33,0.06,0.67,0.29,0.92
				c0.22,0.25,0.55,0.4,0.88,0.4h5.76c0.59,0,1.17,0.21,1.62,0.6c0.45,0.39,0.75,0.92,0.84,1.51
				C69.28-132.23,69.15-131.63,68.84-131.12L68.84-131.12z"/>
			
				<linearGradient id="SVGID_00000116915817375155124810000014345459709525941908_" gradientUnits="userSpaceOnUse" x1="36.2445" y1="-132.5679" x2="78.638" y2="-132.5679">
				<stop  offset="0" style="stop-color:#00501B"/>
				<stop  offset="0.5" style="stop-color:#066F32"/>
				<stop  offset="0.99" style="stop-color:#00501B"/>
				<stop  offset="1" style="stop-color:#00501B"/>
			</linearGradient>
			<path style="fill:url(#SVGID_00000116915817375155124810000014345459709525941908_);" d="M57.44-153.76
				c-5.62,0-11.01,2.23-14.99,6.21c-3.98,3.98-6.21,9.37-6.21,14.99s2.23,11.01,6.21,14.99c3.98,3.98,9.37,6.21,14.99,6.21
				s11.01-2.23,14.99-6.21c3.98-3.98,6.21-9.37,6.21-14.99c-0.01-5.62-2.24-11.01-6.22-14.98
				C68.45-151.52,63.06-153.76,57.44-153.76L57.44-153.76z M57.44-113.73c-5,0-9.79-1.99-13.32-5.52
				c-3.53-3.53-5.52-8.33-5.52-13.32c0-5,1.99-9.79,5.52-13.32c3.53-3.53,8.33-5.52,13.32-5.52s9.79,1.99,13.32,5.52
				c3.53,3.53,5.52,8.33,5.52,13.32c-0.01,5-1.99,9.78-5.53,13.32C67.23-115.72,62.44-113.73,57.44-113.73L57.44-113.73z"/>
		</g>
		<path class="st18" d="M142.92-144.01c0.44,28.8-13.48,54.47-35.15,70.19c-13.67,9.92-30.43,15.88-48.61,16.16"/>
	</g>
	<g>
		<circle class="st10" cx="251.68" cy="-142.99" r="85.06"/>
		<g>
			
				<linearGradient id="SVGID_00000046329988258584157230000010528694811372584842_" gradientUnits="userSpaceOnUse" x1="241.6648" y1="-144.3541" x2="260.8071" y2="-144.3541">
				<stop  offset="0" style="stop-color:#00501B"/>
				<stop  offset="0.5" style="stop-color:#066F32"/>
				<stop  offset="0.99" style="stop-color:#00501B"/>
				<stop  offset="1" style="stop-color:#00501B"/>
			</linearGradient>
			<path style="fill:url(#SVGID_00000046329988258584157230000010528694811372584842_);" d="M245.59-132.75
				c3.47,2.39,7.83,2.39,11.3,0c11.39-7.85-5.65-25-5.65-25S234.2-140.6,245.59-132.75L245.59-132.75z"/>
			
				<linearGradient id="SVGID_00000032648250006292123290000012824552831567685567_" gradientUnits="userSpaceOnUse" x1="212.9444" y1="-144.3512" x2="289.5263" y2="-144.3512">
				<stop  offset="0" style="stop-color:#00501B"/>
				<stop  offset="0.5" style="stop-color:#066F32"/>
				<stop  offset="0.99" style="stop-color:#00501B"/>
				<stop  offset="1" style="stop-color:#00501B"/>
			</linearGradient>
			<path style="fill:url(#SVGID_00000032648250006292123290000012824552831567685567_);" d="M237.83-88.83h3.83
				c2.11,0,3.83-1.72,3.83-3.83v-3.83c0-2.11-1.72-3.83-3.83-3.83h-1.91v-1.91h22.97v1.91h-1.91c-2.11,0-3.83,1.72-3.83,3.83v3.83
				c0,2.11,1.72,3.83,3.83,3.83h11.49c2.11,0,3.83-1.72,3.83-3.83v-3.83c0-2.11-1.72-3.83-3.83-3.83h-1.91v-1.91h7.66
				c6.34,0,11.49-5.15,11.49-11.49v-59.35c0-6.34-5.15-11.49-11.49-11.49h-9.57v-3.83c0-6.34-5.15-11.49-11.49-11.49h-11.49
				c-6.34,0-11.49,5.15-11.49,11.49v3.83h-9.57c-6.34,0-11.49,5.15-11.49,11.49v59.35c0,6.34,5.15,11.49,11.49,11.49h7.66v1.91
				h-1.91c-2.11,0-3.83,1.72-3.83,3.83v3.83c0,2.11,1.72,3.83,3.83,3.83H234 M272.3-92.66h-11.49v-3.83h11.49L272.3-92.66z
				 M268.47-123.29H234c-1.05,0-1.91-0.86-1.91-1.91v-38.29c0-1.05,0.86-1.91,1.91-1.91h34.46c1.05,0,1.91,0.86,1.91,1.91v38.29
				C270.38-124.15,269.52-123.29,268.47-123.29z M239.75-106.06c0-3.18,2.57-5.74,5.74-5.74h11.49c3.18,0,5.74,2.57,5.74,5.74
				H239.75z M237.83-188.39c0-4.22,3.44-7.66,7.66-7.66h11.49c4.22,0,7.66,3.44,7.66,7.66v3.83h-3.83v-3.83
				c0-2.11-1.72-3.83-3.83-3.83h-11.49c-2.11,0-3.83,1.72-3.83,3.83v3.83h-3.83V-188.39z M256.98-188.39v3.83h-11.49v-3.83H256.98z
				 M224.43-106.06c-4.22,0-7.66-3.44-7.66-7.66v-59.35c0-4.22,3.44-7.66,7.66-7.66h53.61c4.22,0,7.66,3.44,7.66,7.66v59.35
				c0,4.22-3.44,7.66-7.66,7.66h-7.66v-3.62c0-1.13,0.46-2.12,1.19-2.85c0.73-0.73,1.72-1.19,2.85-1.19c3.06,0,5.53-2.47,5.53-5.53
				v-46.16c0-5.28-4.29-9.57-9.57-9.57h-38.29c-5.28,0-9.57,4.29-9.57,9.57v46.16c0,1.53,0.61,2.91,1.61,3.92
				c1.01,1,2.39,1.61,3.92,1.61c2.24,0,4.04,1.8,4.04,4.04v3.62L224.43-106.06z M230.18-92.66v-3.83h11.49l0,3.83H230.18z"/>
		</g>
		<path class="st21" d="M337.24-144.01c0.44,28.8-13.48,54.47-35.15,70.19c-13.67,9.92-30.43,15.88-48.61,16.16"/>
	</g>
	<g>
		<circle class="st10" cx="445.78" cy="-142.99" r="85.06"/>
		<g>
			<g>
				
					<linearGradient id="SVGID_00000146465253254745075150000014257258755961623998_" gradientUnits="userSpaceOnUse" x1="390.4871" y1="-141.5172" x2="503.071" y2="-141.5172">
					<stop  offset="0" style="stop-color:#00501B"/>
					<stop  offset="0.5" style="stop-color:#066F32"/>
					<stop  offset="0.99" style="stop-color:#00501B"/>
					<stop  offset="1" style="stop-color:#00501B"/>
				</linearGradient>
				<path style="fill:url(#SVGID_00000146465253254745075150000014257258755961623998_);" d="M446.78-85.23
					c-31.04,0-56.29-25.25-56.29-56.29s25.25-56.29,56.29-56.29s56.29,25.25,56.29,56.29S477.82-85.23,446.78-85.23z M446.78-192.81
					c-28.28,0-51.29,23.01-51.29,51.29s23.01,51.29,51.29,51.29s51.29-23.01,51.29-51.29S475.06-192.81,446.78-192.81z"/>
			</g>
			<g>
				
					<linearGradient id="SVGID_00000089559751655282979200000011413037567493276296_" gradientUnits="userSpaceOnUse" x1="414.3122" y1="-141.4858" x2="431.5203" y2="-141.4858">
					<stop  offset="0" style="stop-color:#00501B"/>
					<stop  offset="0.5" style="stop-color:#066F32"/>
					<stop  offset="0.99" style="stop-color:#00501B"/>
					<stop  offset="1" style="stop-color:#00501B"/>
				</linearGradient>
				<path style="fill:url(#SVGID_00000089559751655282979200000011413037567493276296_);" d="M431.52-135.61
					c0,2.38-0.86,4.26-2.57,5.63c-1.71,1.37-4.1,2.06-7.16,2.06c-2.82,0-5.31-0.53-7.48-1.59v-5.2c1.78,0.79,3.29,1.35,4.52,1.68
					c1.23,0.33,2.36,0.49,3.39,0.49c1.23,0,2.17-0.23,2.83-0.7c0.66-0.47,0.98-1.17,0.98-2.09c0-0.52-0.14-0.98-0.43-1.38
					c-0.29-0.4-0.71-0.79-1.27-1.16c-0.56-0.37-1.7-0.97-3.42-1.79c-1.61-0.76-2.82-1.49-3.63-2.18c-0.81-0.7-1.45-1.51-1.93-2.44
					c-0.48-0.93-0.72-2.01-0.72-3.25c0-2.34,0.79-4.17,2.38-5.51c1.58-1.34,3.77-2,6.56-2c1.37,0,2.68,0.16,3.93,0.49
					c1.25,0.33,2.55,0.78,3.91,1.37l-1.81,4.35c-1.41-0.58-2.57-0.98-3.49-1.21c-0.92-0.23-1.83-0.34-2.72-0.34
					c-1.06,0-1.87,0.25-2.44,0.74c-0.57,0.49-0.85,1.14-0.85,1.93c0,0.49,0.11,0.92,0.34,1.29c0.23,0.37,0.59,0.72,1.09,1.07
					c0.5,0.34,1.68,0.96,3.55,1.85c2.47,1.18,4.16,2.36,5.07,3.55C431.06-138.78,431.52-137.33,431.52-135.61z"/>
				
					<linearGradient id="SVGID_00000044891369746199166130000011790078126090246832_" gradientUnits="userSpaceOnUse" x1="432.983" y1="-141.4769" x2="457.0165" y2="-141.4769">
					<stop  offset="0" style="stop-color:#00501B"/>
					<stop  offset="0.5" style="stop-color:#066F32"/>
					<stop  offset="0.99" style="stop-color:#00501B"/>
					<stop  offset="1" style="stop-color:#00501B"/>
				</linearGradient>
				<path style="fill:url(#SVGID_00000044891369746199166130000011790078126090246832_);" d="M451.36-154.68h5.65l-8.97,26.4h-6.1
					l-8.96-26.4h5.65l4.97,15.71c0.28,0.93,0.56,2.01,0.86,3.24c0.3,1.23,0.48,2.09,0.55,2.57c0.13-1.11,0.58-3.05,1.35-5.81
					L451.36-154.68z"/>
				
					<linearGradient id="SVGID_00000106869669964666220620000000926594410620277908_" gradientUnits="userSpaceOnUse" x1="459.1642" y1="-141.5039" x2="484.2986" y2="-141.5039">
					<stop  offset="0" style="stop-color:#00501B"/>
					<stop  offset="0.5" style="stop-color:#066F32"/>
					<stop  offset="0.99" style="stop-color:#00501B"/>
					<stop  offset="1" style="stop-color:#00501B"/>
				</linearGradient>
				<path style="fill:url(#SVGID_00000106869669964666220620000000926594410620277908_);" d="M484.3-141.51
					c0,4.37-1.08,7.73-3.25,10.08c-2.17,2.35-5.27,3.52-9.32,3.52c-4.04,0-7.15-1.17-9.32-3.52c-2.17-2.35-3.25-5.72-3.25-10.11
					c0-4.39,1.09-7.75,3.26-10.07c2.17-2.32,5.29-3.48,9.34-3.48c4.06,0,7.16,1.17,9.31,3.5
					C483.22-149.25,484.3-145.89,484.3-141.51z M465.03-141.51c0,2.95,0.56,5.17,1.68,6.66c1.12,1.49,2.79,2.24,5.02,2.24
					c4.47,0,6.7-2.97,6.7-8.9c0-5.95-2.22-8.92-6.66-8.92c-2.23,0-3.91,0.75-5.04,2.25C465.6-146.69,465.03-144.46,465.03-141.51z"
					/>
			</g>
		</g>
		<path class="st26" d="M531.56-144.01c0.44,28.8-13.48,54.47-35.15,70.19c-13.67,9.92-30.43,15.88-48.61,16.16"/>
	</g>
	<g>
		<circle class="st10" cx="639.86" cy="-142.99" r="85.06"/>
		<path class="st27" d="M725.89-144.01c0.44,28.8-13.48,54.47-35.15,70.19c-13.67,9.92-30.43,15.88-48.61,16.16"/>
		<g>
			
				<linearGradient id="SVGID_00000120518621033534655890000017784313199909979523_" gradientUnits="userSpaceOnUse" x1="602.3301" y1="-141.4769" x2="666.5895" y2="-141.4769">
				<stop  offset="0" style="stop-color:#00501B"/>
				<stop  offset="0.5" style="stop-color:#066F32"/>
				<stop  offset="0.99" style="stop-color:#00501B"/>
				<stop  offset="1" style="stop-color:#00501B"/>
			</linearGradient>
			<path style="fill:url(#SVGID_00000120518621033534655890000017784313199909979523_);" d="M666.4-163.75
				c-0.95-8.8-5.05-16.96-11.54-22.97c-6.49-6.02-14.93-9.49-23.78-9.78c-8.84-0.29-17.5,2.63-24.36,8.21
				c-2.73,2.18-4.34,5.46-4.38,8.95c0,1.27,1.03,2.29,2.3,2.29c1.27,0,2.29-1.03,2.29-2.29c0.02-2.1,0.97-4.09,2.59-5.42
				c8.8-7.07,20.66-9.02,31.25-5.11c10.59,3.9,18.36,13.07,20.46,24.16c2.1,11.09-1.76,22.47-10.19,29.98
				c-6.42,5.91-9.32,14.73-7.64,23.3c0.85,5.06-0.46,10.25-3.61,14.31c-3.15,4.05-7.86,6.6-12.98,7.03
				c-5.12,0.42-10.18-1.31-13.96-4.79c-3.78-3.48-5.93-8.38-5.93-13.52c0-1.27-1.03-2.29-2.29-2.29c-1.27,0-2.3,1.03-2.3,2.29
				c0,6.09,2.42,11.93,6.72,16.23c4.3,4.3,10.14,6.72,16.23,6.72c6-0.05,11.74-2.43,16.02-6.63c4.28-4.2,6.77-9.9,6.93-15.89
				c0-4.45-3.28-15.31,5.83-23.3c4.41-3.89,7.83-8.78,9.98-14.25C666.19-151.99,667-157.9,666.4-163.75L666.4-163.75z"/>
			
				<linearGradient id="SVGID_00000060029027111837951060000015781556579598590854_" gradientUnits="userSpaceOnUse" x1="611.5107" y1="-144.9717" x2="652.829" y2="-144.9717">
				<stop  offset="0" style="stop-color:#00501B"/>
				<stop  offset="0.5" style="stop-color:#066F32"/>
				<stop  offset="0.99" style="stop-color:#00501B"/>
				<stop  offset="1" style="stop-color:#00501B"/>
			</linearGradient>
			<path style="fill:url(#SVGID_00000060029027111837951060000015781556579598590854_);" d="M613.81-134.64
				c-1.27,0-2.29,1.03-2.29,2.3c0,1.27,1.03,2.29,2.29,2.29c3-0.01,5.81-1.48,7.52-3.95c1.71-2.46,2.11-5.61,1.07-8.42
				c-1.04-2.81-3.39-4.94-6.29-5.7v-2.59h8.81c3.07,0.01,5.95,1.48,7.74,3.98c1.79,2.49,2.29,5.69,1.32,8.6
				c-4.59,13.52-4.11,11.18-4.11,22.96c0,2.05-1.09,3.94-2.87,4.97c-1.78,1.03-3.96,1.03-5.74,0c-1.78-1.03-2.87-2.92-2.87-4.97
				v-1.1c0-1.27-1.03-2.29-2.3-2.29c-1.27,0-2.3,1.03-2.3,2.29v1.15c0,3.69,1.97,7.1,5.16,8.95c3.2,1.85,7.13,1.85,10.33,0
				c3.2-1.85,5.16-5.26,5.16-8.95c0-11.36-0.5-8.47,3.86-21.55c1.44-4.31,0.72-9.05-1.94-12.74c-2.66-3.69-6.92-5.87-11.47-5.88
				h-8.81v-16.07c0-6.04,8.01-9.18,13.77-9.18v0c4.87,0,9.54,1.93,12.98,5.38c3.44,3.44,5.38,8.11,5.38,12.98
				c0,1.27,1.03,2.3,2.3,2.3s2.3-1.03,2.3-2.3c0-6.09-2.42-11.93-6.72-16.23c-4.3-4.3-10.14-6.72-16.23-6.72
				c-8.03,0-18.36,4.59-18.36,13.77v25.25c0,0.61,0.24,1.19,0.67,1.62c0.43,0.43,1.01,0.67,1.62,0.67c1.64,0,3.16,0.88,3.98,2.3
				c0.82,1.42,0.82,3.17,0,4.59C616.96-135.52,615.45-134.64,613.81-134.64L613.81-134.64z"/>
			
				<linearGradient id="SVGID_00000106862089622387080110000012310307767668290214_" gradientUnits="userSpaceOnUse" x1="678.0322" y1="-111.7128" x2="684.0139" y2="-111.7128">
				<stop  offset="0" style="stop-color:#00501B"/>
				<stop  offset="0.5" style="stop-color:#066F32"/>
				<stop  offset="0.99" style="stop-color:#00501B"/>
				<stop  offset="1" style="stop-color:#00501B"/>
			</linearGradient>
			<path style="fill:url(#SVGID_00000106862089622387080110000012310307767668290214_);" d="M683.33-113.27
				c0.43-0.43,0.68-1.02,0.68-1.63c0-0.61-0.24-1.2-0.68-1.63c-2.3-2.3-5.3,1.15-5.3,4.84c0,2.3,1.56,5.53,3.65,5.53
				c0.94,0.01,1.79-0.56,2.14-1.43c0.35-0.87,0.14-1.87-0.53-2.52C682.46-111,682.48-112.4,683.33-113.27L683.33-113.27z"/>
			
				<linearGradient id="SVGID_00000101061398428111648830000017487457651241963138_" gradientUnits="userSpaceOnUse" x1="668.9159" y1="-111.6259" x2="677.5194" y2="-111.6259">
				<stop  offset="0" style="stop-color:#00501B"/>
				<stop  offset="0.5" style="stop-color:#066F32"/>
				<stop  offset="0.99" style="stop-color:#00501B"/>
				<stop  offset="1" style="stop-color:#00501B"/>
			</linearGradient>
			<path style="fill:url(#SVGID_00000101061398428111648830000017487457651241963138_);" d="M673.63-123.05
				c-9.53,9.43-2.3,23.39,1.61,23.39c0.93,0,1.76-0.57,2.11-1.43c0.35-0.86,0.15-1.85-0.51-2.5c-2.14-2.15-3.35-5.07-3.35-8.1
				c0-3.04,1.2-5.95,3.35-8.1c0.79-0.91,0.74-2.26-0.1-3.12C675.9-123.76,674.54-123.82,673.63-123.05L673.63-123.05z"/>
			
				<linearGradient id="SVGID_00000000196084129312525120000009488860930820915892_" gradientUnits="userSpaceOnUse" x1="659.7073" y1="-111.6885" x2="671.0415" y2="-111.6885">
				<stop  offset="0" style="stop-color:#00501B"/>
				<stop  offset="0.5" style="stop-color:#066F32"/>
				<stop  offset="0.99" style="stop-color:#00501B"/>
				<stop  offset="1" style="stop-color:#00501B"/>
			</linearGradient>
			<path style="fill:url(#SVGID_00000000196084129312525120000009488860930820915892_);" d="M670.37-126.29c0.9-0.9,0.9-2.36,0-3.26
				c-0.9-0.9-2.36-0.9-3.26,0c-4.74,4.74-7.4,11.16-7.4,17.86s2.66,13.12,7.4,17.86c0.9,0.9,2.36,0.9,3.26,0
				c0.9-0.9,0.9-2.36,0-3.26c-3.87-3.87-6.04-9.12-6.04-14.6C664.32-117.16,666.5-122.41,670.37-126.29L670.37-126.29z"/>
		</g>
	</g>
</g>
<g id="Camada_2">
</g>
</svg>
