<svg width="253" height="74" viewBox="0 0 253 74" fill="none" xmlns="http://www.w3.org/2000/svg">
<path d="M91.241 14.3801C80.8554 14.3801 73.0254 21.0695 73.0254 29.9552C73.0254 38.841 80.9642 45.5802 91.1322 45.5802C97.2222 45.5802 102.007 43.1841 105.107 39.7895V39.0906L99.071 34.3982H98.3641C96.5153 36.2451 93.9597 37.2935 91.241 37.2935C86.8367 37.4932 83.0848 34.3482 82.8673 30.2547C82.6497 26.2112 86.0754 22.7667 90.5341 22.5671H91.241C93.9597 22.6169 96.5153 23.6653 98.3641 25.4624H99.071L105.107 20.72V20.071C101.627 16.4768 96.5697 14.3303 91.241 14.3801Z" fill="#405965"/>
<path d="M110.163 44.9811H135.284V37.4431H120.168V33.2H131.532V26.1612H120.168V21.918H135.284V14.38H110.163V44.9811Z" fill="#405965"/>
<path d="M247.025 34.3981L243.056 26.261L237.238 14.38H228.049L214.074 44.9811H224.568L226.417 40.3885H238.869C239.685 41.8361 240.772 43.0842 242.077 44.1823C243.545 45.1808 245.394 45.6799 247.243 45.5801C248.928 45.6301 250.56 45.2806 252.028 44.5818L247.569 35.4464C247.406 35.1469 247.243 34.7974 247.025 34.3981ZM229.027 34.2981L232.725 25.2127L236.205 34.2981H229.027Z" fill="#405965"/>
<path d="M171.933 34.3981L167.963 26.261L162.2 14.38H153.01L139.036 44.9811H149.53L151.379 40.3885H163.831C164.647 41.8361 165.734 43.0842 167.039 44.1823C168.507 45.1808 170.356 45.6799 172.205 45.5801C173.89 45.6301 175.522 45.2806 176.99 44.5818L172.477 35.4464C172.259 35.1469 172.096 34.7974 171.933 34.3981ZM153.88 34.2981L157.578 25.1628L161.058 34.2483L153.88 34.2981Z" fill="#405965"/>
<path d="M203.635 33.0003C207.278 31.5026 209.67 28.6072 209.67 24.6137C209.67 18.3737 205.048 14.38 196.403 14.38H180.852V44.9811H190.857V34.2483H191.672C193.902 34.2483 195.968 38.4416 197.164 40.4383C199.393 44.0825 201.568 45.5801 206.082 45.5801C208.093 45.5801 210.16 44.9811 211.193 44.2323L211.247 44.1325L203.852 33.2C203.743 33.15 203.689 33.0502 203.635 33.0003ZM196.022 28.158H190.857V21.918H196.022C197.871 21.8182 199.393 23.1161 199.502 24.8134V25.1129C199.502 27.1096 197.871 28.1081 196.022 28.158Z" fill="#405965"/>
<path d="M83.7376 55.8638C83.7376 57.1118 83.1938 58.3599 82.2151 59.2085C81.1819 60.107 79.8226 60.6063 78.4088 60.6063C75.4725 60.6063 73.0801 58.4097 73.0801 55.714C73.0801 53.0183 75.4725 50.8219 78.4088 50.8219C80.04 50.8219 81.617 51.4709 82.65 52.619V52.7688L81.1276 53.9169H80.9101C80.312 53.2181 79.3875 52.8187 78.4088 52.8187C76.7775 52.8187 75.4182 54.0667 75.4725 55.5643V55.6642C75.4182 57.2116 76.7775 58.4597 78.4632 58.4597C79.1701 58.4597 79.8769 58.26 80.4751 57.8107C80.8556 57.4613 81.1276 57.0619 81.2363 56.5628H78.5176V54.9154H83.52L83.7376 55.0651V55.8638Z" fill="#405965"/>
<path d="M85.3682 55.764C85.3682 52.9685 87.815 50.8718 90.9687 50.8718C94.1225 50.8718 96.5693 52.9685 96.5693 55.764C96.5693 58.5594 94.1225 60.6561 90.9687 60.6561C87.815 60.6561 85.3682 58.5594 85.3682 55.764ZM94.0681 55.764C94.0681 54.1666 92.7088 52.9185 90.9687 52.9185C89.2287 52.9185 87.8693 54.1666 87.8693 55.764C87.8693 57.3614 89.2287 58.6094 90.9687 58.6094C92.6544 58.6594 94.0138 57.4613 94.0681 55.9137V55.764Z" fill="#405965"/>
<path d="M108.097 51.2212L103.475 60.4565H102.061L97.4395 51.2212L97.5482 51.0714H100.049L102.768 57.0618L105.596 51.0714H107.988L108.097 51.2212Z" fill="#405965"/>
<path d="M112.448 52.9185V54.8654H116.308V56.6125H112.448V58.6094H117.45V60.4565H109.946V51.0714H117.45V52.9185H112.448Z" fill="#405965"/>
<path d="M128.434 60.2568L128.325 60.4065H125.878L123.812 56.8622H122.398V60.4065H119.951V51.0714H124.356C126.966 51.0714 128.325 52.2197 128.325 54.0666C128.325 55.2647 127.509 56.313 126.313 56.6625L128.434 60.2568ZM122.398 55.3646H124.41C125.117 55.4145 125.769 54.9652 125.824 54.3163V54.1665C125.824 53.4676 125.28 52.9185 124.519 52.9185H122.398V55.3646Z" fill="#405965"/>
<path d="M139.961 51.0714V60.5063H138.438L133.218 54.8654V60.4565H130.771V51.0714H132.294L137.46 56.6625V51.0714H139.961Z" fill="#405965"/>
<path d="M142.3 55.764C142.3 52.9685 144.747 50.8718 147.9 50.8718C151.054 50.8718 153.501 52.9685 153.501 55.764C153.501 58.5594 151.054 60.6561 147.9 60.6561C144.747 60.6561 142.3 58.5096 142.3 55.764ZM151 55.764C151 54.2164 149.64 52.9185 147.9 52.9185C146.215 52.9185 144.801 54.1666 144.801 55.764C144.801 57.3614 146.16 58.6094 147.9 58.6094C149.586 58.6594 150.945 57.4613 151 55.9137V55.764Z" fill="#405965"/>
<path d="M169.758 55.714C169.758 58.5594 167.692 60.4065 164.375 60.4065H159.916V51.0714H164.375C167.692 51.0714 169.758 52.9185 169.758 55.714ZM167.257 55.714C167.257 53.9169 166.06 52.8685 164.266 52.8685H162.308V58.5594H164.266C166.06 58.5594 167.257 57.5111 167.257 55.714Z" fill="#405965"/>
<path d="M171.499 55.764C171.499 52.9685 173.946 50.8718 177.1 50.8718C180.253 50.8718 182.7 52.9685 182.7 55.764C182.7 58.5594 180.253 60.6561 177.1 60.6561C173.946 60.6561 171.499 58.5594 171.499 55.764ZM180.199 55.764C180.199 54.2164 178.84 52.9185 177.154 52.9185C175.468 52.9185 174.055 54.1666 174.055 55.714C174.055 57.2616 175.414 58.5594 177.1 58.5594H177.154C178.84 58.6094 180.199 57.4113 180.253 55.8638C180.199 55.8139 180.199 55.764 180.199 55.764Z" fill="#405965"/>
<path d="M191.563 52.9185V54.8654H195.424V56.6125H191.563V58.6094H196.62V60.4565H189.116V51.0714H196.566V52.9185H191.563Z" fill="#405965"/>
<path d="M198.305 58.909V58.7592L199.501 57.4613H199.664C200.371 58.2101 201.404 58.6594 202.492 58.7092C203.525 58.7092 204.123 58.3099 204.123 57.7608C204.123 56.9621 203.144 56.8623 201.893 56.5128C200.48 56.1135 198.794 55.3647 198.794 53.6174C198.794 51.97 200.371 50.8219 202.655 50.8219C204.068 50.7719 205.482 51.2712 206.515 52.2197V52.3695L205.319 53.6174H205.156C204.503 53.0183 203.634 52.619 202.709 52.5691C201.893 52.5691 201.35 52.8686 201.35 53.4178C201.35 54.0168 202.111 54.2664 202.981 54.5659C204.721 55.0652 206.733 55.5643 206.733 57.6609C206.733 59.508 204.939 60.5064 202.709 60.5064C201.024 60.6561 199.447 60.0571 198.305 58.909Z" fill="#405965"/>
<path d="M213.585 60.4565H211.138V52.9185H207.93V51.0714H216.847V52.9185H213.585V60.4565Z" fill="#405965"/>
<path d="M227.396 60.2568L227.287 60.4565H224.786L224.025 58.8091H219.675L218.913 60.4565H216.521L216.412 60.2568L221.143 51.0216H222.665L227.396 60.2568ZM223.372 57.2116L221.958 54.0168L220.49 57.2116H223.372Z" fill="#405965"/>
<path d="M228.809 12.5332L241.968 7.99047V7.34147L238.488 2.09985H237.781L226.145 8.63947V9.28835L228.102 12.5332H228.809Z" fill="#405965"/>
<path d="M239.086 55.714C239.086 58.5594 237.02 60.4065 233.703 60.4065H229.244V51.0714H233.703C237.02 51.0714 239.086 52.9185 239.086 55.714ZM236.585 55.714C236.585 53.9169 235.388 52.8685 233.649 52.8685H231.691V58.5594H233.649C235.443 58.5594 236.639 57.5111 236.585 55.714Z" fill="#405965"/>
<path d="M240.88 55.764C240.88 52.9685 243.327 50.8718 246.481 50.8718C249.634 50.8718 252.081 52.9685 252.081 55.764C252.081 58.5594 249.634 60.6561 246.481 60.6561C243.327 60.6561 240.88 58.5594 240.88 55.764ZM249.58 55.764C249.58 54.1666 248.22 52.9185 246.481 52.9185C244.741 52.9185 243.381 54.1666 243.381 55.764C243.381 57.3614 244.741 58.6094 246.481 58.6094C248.166 58.6594 249.525 57.4613 249.58 55.9137V55.764Z" fill="#405965"/>
<path d="M54.0486 30.3015C54.4292 27.4061 56.6586 25.4093 59.2686 23.8618L59.758 23.6122L51.0036 13.4784L50.8404 13.4284C49.8074 13.2288 48.7742 13.0791 47.7411 12.9293C44.5874 12.5299 42.3037 12.2803 40.3462 12.0806L38.7149 11.9808H38.6605L38.1711 11.9308H37.9536C36.7574 11.881 35.5611 11.831 34.3649 11.7811H33.6037C29.1993 11.6813 25.3387 11.831 22.5656 11.9808C21.5869 12.0308 15.4424 12.5798 14.2463 12.7296H14.0831C12.6693 12.9293 9.78747 13.3286 8.75431 13.4784L0 23.6122L0.489374 23.8618C3.09937 25.3594 5.32869 27.4061 5.70936 30.3015C6.09003 33.1968 4.34994 36.4915 3.15378 39.0874C1.57683 42.5819 0.108706 46.0264 0.108706 49.8702C0.108706 50.6689 0.271831 51.5175 0.489374 52.3163C1.35941 54.8622 3.48003 56.9089 5.76378 58.5563C8.48248 60.4034 11.3643 62.0507 14.4094 63.4484C17.5087 64.946 20.6624 66.3938 23.6531 68.0411C25.665 69.1393 28.275 70.7867 29.3624 72.7336L29.7974 73.5323L30.2325 72.7336C31.3199 70.7867 33.9843 69.1893 35.9418 68.0411C38.9323 66.3938 42.0861 64.946 45.1855 63.4484C48.2304 62.0507 51.1124 60.4034 53.8311 58.5563C56.1148 56.9089 58.2355 54.8622 59.1055 52.3163C59.3773 51.5175 59.486 50.7188 59.486 49.8702C59.486 46.0264 58.0179 42.5819 56.4411 39.0874C55.3536 36.4915 53.668 33.1968 54.0486 30.3015Z" fill="white"/>
<path fill-rule="evenodd" clip-rule="evenodd" d="M40.4551 1.94692L42.2494 2.19648V1.19812L40.4551 1.94692Z" fill="#EAD7B1"/>
<path fill-rule="evenodd" clip-rule="evenodd" d="M24.7949 0.649048V1.59745L25.8281 1.49765L24.7949 0.649048Z" fill="#EAD7B1"/>
<path fill-rule="evenodd" clip-rule="evenodd" d="M33.875 1.49756L34.8537 1.54752V0.598999L33.875 1.49756Z" fill="#EAD7B1"/>
<mask id="mask0_600_588" style="mask-type:luminance" maskUnits="userSpaceOnUse" x="12" y="0" width="35" height="5">
<path d="M27.8944 0.14978C27.7857 0.14978 27.6769 0.249581 27.6769 0.349501V1.64738C26.5894 1.64738 25.502 1.69734 24.4144 1.74718V0.449301C24.4144 0.399341 24.4144 0.349501 24.3601 0.299541C24.3057 0.249581 24.2513 0.249581 24.197 0.249581C23.0007 0.299541 21.7501 0.399341 20.4994 0.499261C20.3907 0.499261 20.3363 0.599061 20.3363 0.698862V1.99686C19.2488 2.09667 18.2701 2.19647 17.1826 2.34623V1.0983C17.1826 1.04834 17.1826 0.998383 17.1282 0.948542C17.0738 0.898582 17.0195 0.898582 16.9651 0.898582C16.1495 0.998383 15.3339 1.1981 14.5182 1.34786C14.0289 1.44766 13.5939 1.54758 13.1045 1.59742C12.9957 1.59742 12.9414 1.69734 12.9414 1.79714V3.24479L13.5395 4.29311C13.5939 4.34307 13.6482 4.39303 13.7026 4.39303H13.8113C18.9226 3.64423 24.0882 3.24479 29.2539 3.19495C34.4738 3.19495 39.585 3.74403 45.675 4.64259H45.7294C45.7837 4.64259 45.8381 4.64259 45.8381 4.59263C45.8926 4.54279 45.8926 4.49283 45.8926 4.44287V4.29311L46.3819 3.44451L46.4906 3.24479V1.79714C46.4906 1.69734 46.4362 1.64738 46.3275 1.59742L45.7837 1.49762C44.7507 1.2979 43.6631 1.0983 42.6301 0.948542C42.5757 0.948542 42.5212 0.948542 42.4669 0.998383C42.4125 0.998383 42.4125 1.04834 42.3581 1.0983V2.29639C41.4882 2.19647 40.6726 2.09667 39.857 2.04671L39.2045 1.99686V0.748822C39.2045 0.649021 39.15 0.599061 39.0413 0.549101C37.845 0.449301 36.5945 0.349501 35.3438 0.299541C35.2895 0.299541 35.2351 0.299541 35.1806 0.349501C35.1263 0.399341 35.1263 0.449301 35.1263 0.499261V1.74718C34.0388 1.69734 32.9513 1.69734 31.8639 1.64738V0.349501C31.8639 0.249581 31.755 0.14978 31.6463 0.14978H27.8944Z" fill="white"/>
</mask>
<g mask="url(#mask0_600_588)">
<path d="M46.5995 0.14978H12.9414V4.64259H46.5995V0.14978Z" fill="url(#paint0_linear_600_588)"/>
</g>
<mask id="mask1_600_588" style="mask-type:luminance" maskUnits="userSpaceOnUse" x="13" y="3" width="33" height="3">
<path d="M13.5938 4.59256L15.0619 5.89056C19.9012 5.1916 24.7405 4.79228 29.6342 4.74232C34.6368 4.84224 39.6937 5.1916 44.6417 5.89056L45.6204 5.04184L45.8924 4.59256C40.7811 3.694 35.5611 3.29468 30.3412 3.29468C24.6862 3.34464 19.14 3.79392 13.5938 4.59256Z" fill="white"/>
</mask>
<g mask="url(#mask1_600_588)">
<path d="M45.8924 3.3446H13.5938V5.94049H45.8924V3.3446Z" fill="url(#paint1_linear_600_588)"/>
</g>
<mask id="mask2_600_588" style="mask-type:luminance" maskUnits="userSpaceOnUse" x="12" y="4" width="35" height="10">
<path d="M16.2579 5.8407L12.8867 13.179C12.8867 13.179 21.2605 12.2804 30.2866 12.0807C35.8873 11.9809 41.3791 12.3802 46.871 13.2289C46.8166 13.179 43.3366 5.79074 43.3366 5.79074C43.3366 5.79074 37.3554 5.0919 30.2323 4.94214H28.7098C24.5773 4.9921 20.4449 5.29162 16.2579 5.8407Z" fill="white"/>
</mask>
<g mask="url(#mask2_600_588)">
<path d="M46.8713 4.94214H12.9414V13.2788H46.8713V4.94214Z" fill="url(#paint2_linear_600_588)"/>
</g>
<path fill-rule="evenodd" clip-rule="evenodd" d="M32.136 11.9808L27.0791 12.0308C27.1335 11.1322 27.1878 10.2835 27.4054 9.43492C27.6229 8.78592 28.0578 8.18688 28.6559 7.78756C29.1997 7.43808 29.8522 7.38824 30.5047 7.538C31.1028 7.7376 31.6466 8.13704 31.9184 8.63616C32.2991 9.2352 32.5166 9.8842 32.5709 10.5332C32.6253 11.0323 32.6253 11.5316 32.5709 12.0308L32.136 11.9808Z" fill="#EAD7B1"/>
<path fill-rule="evenodd" clip-rule="evenodd" d="M37.3558 6.24004C36.5402 6.29 35.8333 6.73928 35.8877 7.33832C35.9421 7.93736 36.3227 10.7328 36.3227 10.7328L39.5852 10.9326L38.9871 7.08876C38.9871 7.08876 38.1715 6.1902 37.3558 6.24004Z" fill="#EAD7B1"/>
<mask id="mask3_600_588" style="mask-type:luminance" maskUnits="userSpaceOnUse" x="2" y="14" width="55" height="55">
<path d="M10.1682 15.8746L3.96942 22.9633C6.30745 24.7604 8.04753 27.0068 8.42807 29.952C8.86316 33.4465 7.17749 36.9408 5.76379 40.0858C4.34996 43.2308 2.88184 46.4756 2.88184 49.9201C2.88184 50.4692 2.99067 51.0183 3.1538 51.5675C4.5675 55.7608 11.6906 59.2053 15.66 61.1522C18.8138 62.6996 22.0762 64.1474 25.1212 65.8446C26.8069 66.6933 28.3837 67.7416 29.7974 68.8897C31.1568 67.7416 32.6793 66.6933 34.3106 65.8446C37.3555 64.1474 40.618 62.6996 43.7718 61.1522C48.013 59.1054 56.6042 55.0618 56.6042 49.9201C56.6042 46.4756 55.1905 43.2807 53.7767 40.1357C52.363 36.9908 50.6773 33.4465 51.058 29.952C51.4387 27.0068 53.1786 24.8602 55.5168 23.0631L49.318 15.8746C43.0649 14.8762 36.7575 14.377 30.3956 14.377C23.6531 14.377 16.8563 14.8762 10.1682 15.8746Z" fill="white"/>
</mask>
<g mask="url(#mask3_600_588)">
<path d="M56.5498 14.327H2.88184V68.8898H56.5498V14.327Z" fill="url(#paint3_radial_600_588)"/>
</g>
<path fill-rule="evenodd" clip-rule="evenodd" d="M11.3098 25.4093L10.766 26.9069H9.13477L10.4942 27.8554L9.95039 29.353L11.3098 28.4045L12.6148 29.353L12.1254 27.8554L13.4847 26.9069H11.7992L11.3098 25.4093Z" fill="white"/>
<path fill-rule="evenodd" clip-rule="evenodd" d="M9.89659 35.593L9.40721 37.0906H7.72168L9.08096 38.0391L8.59159 39.5367L9.89659 38.5882L11.256 39.5367L10.7122 38.0391L12.0716 37.0906H10.386L9.89659 35.593Z" fill="white"/>
<path fill-rule="evenodd" clip-rule="evenodd" d="M8.10166 44.7284L7.61229 46.226H5.92676L7.28604 47.1745L6.74238 48.6721L8.10166 47.7236L9.46108 48.6721L8.91729 47.1745L10.2767 46.226H8.59104L8.10166 44.7284Z" fill="white"/>
<path fill-rule="evenodd" clip-rule="evenodd" d="M29.6339 60.653L29.1445 62.1506L27.459 62.1006L28.8183 63.0491L28.3289 64.5467L29.6339 63.5982L30.9933 64.5467L30.4495 63.0491L31.8089 62.1006L30.1777 62.1506L29.6339 60.653Z" fill="white"/>
<path fill-rule="evenodd" clip-rule="evenodd" d="M39.6389 56.9089L39.0951 58.4065H37.4639L38.8233 59.3551L38.2795 60.8527L39.6389 59.9041L40.9439 60.8527L40.4545 59.3551L41.7595 58.4065H40.1283L39.6389 56.9089Z" fill="white"/>
<path fill-rule="evenodd" clip-rule="evenodd" d="M19.5754 56.9089L20.0648 58.4065H21.7505L20.3911 59.3551L20.9348 60.8527L19.5754 59.9041L18.216 60.8527L18.7598 59.3551L17.4004 58.4065H19.0316L19.5754 56.9089Z" fill="white"/>
<path fill-rule="evenodd" clip-rule="evenodd" d="M11.636 52.0667L12.1253 53.5643H13.8109L12.4516 54.4628L12.9953 55.9604L11.636 55.0619L10.2766 55.9604L10.8204 54.4628L9.46094 53.5643H11.1466L11.636 52.0667Z" fill="white"/>
<mask id="mask4_600_588" style="mask-type:luminance" maskUnits="userSpaceOnUse" x="13" y="20" width="34" height="20">
<path d="M13.539 39.2872H46.0008C46.2183 29.8023 40.7808 20.0179 29.7428 20.0179C18.7046 20.0179 13.2672 29.8023 13.539 39.2872Z" fill="white"/>
</mask>
<g mask="url(#mask4_600_588)">
<path d="M46.2187 20.0179H13.2676V39.2871H46.2187V20.0179Z" fill="url(#paint4_radial_600_588)"/>
</g>
<path fill-rule="evenodd" clip-rule="evenodd" d="M13.5398 38.3386H22.6747V38.6881H13.4854V38.6381L13.5398 38.3386Z" fill="#CAA52E"/>
<path fill-rule="evenodd" clip-rule="evenodd" d="M13.5938 36.6913L22.6743 38.3386L22.5656 38.6881L13.5938 37.0408V36.6913Z" fill="#CAA52E"/>
<path fill-rule="evenodd" clip-rule="evenodd" d="M13.8111 34.994L22.7287 38.3387L22.5656 38.6882L13.7568 35.3935C13.7568 35.2437 13.7568 35.0939 13.8111 34.994Z" fill="#CAA52E"/>
<path fill-rule="evenodd" clip-rule="evenodd" d="M14.1373 33.147L22.7286 38.3386L22.5111 38.6381L14.083 33.5463C14.083 33.3965 14.1373 33.2967 14.1373 33.147Z" fill="#CAA52E"/>
<path fill-rule="evenodd" clip-rule="evenodd" d="M14.7358 31.1501L22.7832 38.3886L22.5113 38.6382L14.627 31.5495L14.7358 31.1501Z" fill="#CAA52E"/>
<path fill-rule="evenodd" clip-rule="evenodd" d="M15.7146 28.8538L22.8377 38.4384L22.5114 38.6381L15.4971 29.2532L15.7146 28.8538Z" fill="#CAA52E"/>
<path fill-rule="evenodd" clip-rule="evenodd" d="M17.2367 26.3079L22.8373 38.4385L22.4567 38.5882L16.9648 26.6573C17.0735 26.5575 17.128 26.4576 17.2367 26.3079Z" fill="#CAA52E"/>
<path fill-rule="evenodd" clip-rule="evenodd" d="M19.5206 23.762L22.8375 38.4884L22.4568 38.5384L19.1943 24.0116C19.3032 23.9617 19.4119 23.8619 19.5206 23.762Z" fill="#CAA52E"/>
<path fill-rule="evenodd" clip-rule="evenodd" d="M22.7829 21.5656L22.8373 38.5384H22.4566L22.4023 21.7653L22.7829 21.5656Z" fill="#CAA52E"/>
<path fill-rule="evenodd" clip-rule="evenodd" d="M26.7527 20.2676L22.8377 38.5882L22.457 38.5383L26.372 20.3674L26.7527 20.2676Z" fill="#CAA52E"/>
<path fill-rule="evenodd" clip-rule="evenodd" d="M31.1571 20.0679L22.8377 38.6382L22.457 38.4884L30.7764 20.0679H31.1571Z" fill="#CAA52E"/>
<path fill-rule="evenodd" clip-rule="evenodd" d="M35.6158 21.0662L22.7833 38.6382L22.457 38.4384L35.2352 20.9664L35.6158 21.0662Z" fill="#CAA52E"/>
<path fill-rule="evenodd" clip-rule="evenodd" d="M39.4764 23.3626L22.729 38.6881L22.457 38.4384L39.2046 23.113C39.3133 23.2128 39.3677 23.2628 39.4764 23.3626Z" fill="#CAA52E"/>
<path fill-rule="evenodd" clip-rule="evenodd" d="M42.4664 26.6074L22.7283 38.6882L22.5107 38.3886L42.3032 26.2581C42.3575 26.4078 42.4119 26.5076 42.4664 26.6074Z" fill="#CAA52E"/>
<path fill-rule="evenodd" clip-rule="evenodd" d="M44.4238 30.4014L22.6739 38.738L22.5107 38.3886L44.315 30.0519C44.3694 30.1518 44.4238 30.3016 44.4238 30.4014Z" fill="#CAA52E"/>
<path fill-rule="evenodd" clip-rule="evenodd" d="M45.6203 34.4449L22.6741 38.738L22.5654 38.3887L45.566 34.0955L45.6203 34.4449Z" fill="#CAA52E"/>
<path fill-rule="evenodd" clip-rule="evenodd" d="M45.9465 38.5383L22.5654 38.6881V38.3386L45.9465 38.1888V38.5383Z" fill="#CAA52E"/>
<path fill-rule="evenodd" clip-rule="evenodd" d="M22.6199 33.147C25.8824 33.147 28.6012 35.5431 28.6012 38.5383H16.6387C16.6931 35.5431 19.3574 33.147 22.6199 33.147Z" fill="#CAA52E"/>
<path fill-rule="evenodd" clip-rule="evenodd" d="M22.6197 33.5963C25.6104 33.5464 28.0573 35.693 28.1117 38.4385H17.1279C17.2366 35.693 19.6835 33.5464 22.6197 33.5963Z" fill="#FACB13"/>
<mask id="mask5_600_588" style="mask-type:luminance" maskUnits="userSpaceOnUse" x="13" y="38" width="31" height="20">
<path d="M13.4854 38.6882C13.4854 39.387 13.5398 40.0859 13.5942 40.7848C17.3461 40.8846 22.1854 40.6849 22.2941 41.3339C22.2941 41.4337 22.5116 41.3839 22.6747 41.3339C22.8379 41.2839 23.001 41.2341 22.8923 41.3339C21.1522 43.0811 23.3272 46.1262 25.4479 47.6738C32.1904 52.4661 29.7435 55.2117 24.2516 56.26C25.9917 56.859 27.8403 57.1585 29.6891 57.1087C35.9422 57.1087 40.3466 54.0136 43.0109 49.6705C38.9872 48.1729 32.136 47.4241 30.5047 44.1294C29.9609 43.0312 33.2234 40.9844 33.7128 40.0859C34.6915 38.3887 28.3297 38.738 28.5472 38.6382L13.5942 38.5883C13.7029 38.5883 13.6485 38.6382 13.4854 38.6882Z" fill="white"/>
</mask>
<g mask="url(#mask5_600_588)">
<path d="M43.0656 38.3887H13.54V57.1087H43.0656V38.3887Z" fill="url(#paint5_linear_600_588)"/>
</g>
<mask id="mask6_600_588" style="mask-type:luminance" maskUnits="userSpaceOnUse" x="13" y="38" width="18" height="20">
<path d="M13.4854 38.5883V38.4885C12.6698 42.582 14.573 48.9217 18.5967 52.8655C21.9136 56.1102 26.5898 57.508 28.4928 57.2585H28.8735C29.0911 57.2585 29.2542 57.3083 29.3085 57.1586C33.4954 49.9701 18.3248 41.883 29.0911 38.6882C29.8523 38.4885 28.4928 38.3887 26.2635 38.3887C22.5661 38.3887 16.4216 38.5883 13.4854 38.5883Z" fill="white"/>
</mask>
<g mask="url(#mask6_600_588)">
<path d="M33.5499 38.3887H12.6699V57.508H33.5499V38.3887Z" fill="url(#paint6_linear_600_588)"/>
</g>
<mask id="mask7_600_588" style="mask-type:luminance" maskUnits="userSpaceOnUse" x="29" y="29" width="17" height="10">
<path d="M43.9893 30.002C40.1832 30.0518 40.5094 34.1453 37.845 34.3949C37.1925 34.4448 35.67 33.9956 34.5825 33.7958C33.1144 33.5962 30.2326 36.791 29.5801 38.4884H45.9468C45.9468 35.593 45.4032 32.6977 44.2613 29.952C44.2069 30.002 44.0982 30.002 43.9893 30.002Z" fill="white"/>
</mask>
<g mask="url(#mask7_600_588)">
<path d="M45.947 30.002H29.5801V38.5383H45.947V30.002Z" fill="url(#paint7_linear_600_588)"/>
</g>
<path fill-rule="evenodd" clip-rule="evenodd" d="M20.2277 49.2212C18.0526 45.1777 19.1945 42.7316 22.1852 41.1841C20.8258 43.3805 22.8377 45.2776 25.6652 47.3243C23.762 47.6238 21.9133 48.2228 20.2821 49.1713L20.2277 49.2212Z" fill="white"/>
<mask id="mask8_600_588" style="mask-type:luminance" maskUnits="userSpaceOnUse" x="28" y="38" width="19" height="14">
<path d="M30.7218 46.875C33.3861 49.4209 38.2799 49.7704 41.8686 51.4676C44.5874 48.0731 45.9467 43.4805 46.0011 38.9377V38.7879L29.6887 38.6382C28.1661 40.7348 27.3505 43.6302 30.7218 46.875Z" fill="white"/>
</mask>
<g mask="url(#mask8_600_588)">
<path d="M45.9468 38.5883H27.3506V51.4677H45.9468V38.5883Z" fill="url(#paint8_linear_600_588)"/>
</g>
<mask id="mask9_600_588" style="mask-type:luminance" maskUnits="userSpaceOnUse" x="37" y="34" width="10" height="5">
<path d="M42.3579 34.5447C40.9986 34.6944 40.0199 36.7412 37.3555 38.2887H46.0011C46.0011 37.1905 45.8924 36.0922 45.7292 35.0439C44.9136 34.9441 43.6086 34.6446 42.6842 34.5447H42.3579Z" fill="white"/>
</mask>
<g mask="url(#mask9_600_588)">
<path d="M46.0011 34.5447H37.3555V38.2887H46.0011V34.5447Z" fill="url(#paint9_linear_600_588)"/>
</g>
<path d="M23.6526 28.5543H21.4775V29.6026H23.6526V28.5543Z" fill="#FACB13"/>
<path fill-rule="evenodd" clip-rule="evenodd" d="M30.4496 26.3079C31.8634 26.2081 33.2771 26.3578 34.5821 26.7572C35.6153 27.1066 35.9958 27.1067 36.9746 27.9054L35.5609 28.754C34.0928 27.2564 32.2984 27.0068 30.4496 26.5076C29.634 26.258 29.634 26.3079 30.4496 26.3079Z" fill="white"/>
<path fill-rule="evenodd" clip-rule="evenodd" d="M36.3221 27.8554C37.464 27.9552 38.8234 27.1066 39.3672 27.0068C39.5846 26.9569 39.9108 27.3063 39.7477 27.4061C39.4759 27.5559 39.1496 27.7057 38.8234 27.8055C39.1496 27.6557 39.4759 27.5059 39.8566 27.4061C40.1284 27.4561 40.2915 27.8554 40.1828 27.9552C40.1828 27.9552 39.2583 28.1549 38.9865 28.3047C39.3672 28.1549 39.7477 28.0551 40.1828 27.9552C40.3459 27.9552 40.5091 28.4045 40.2915 28.5044C39.639 28.9037 38.8234 28.9037 38.1709 29.1533C38.4427 30.0519 39.0952 31.1501 39.0409 32.0987C38.9865 33.5963 38.1165 34.994 37.8446 36.3918C37.7359 36.9408 37.7902 37.0906 37.6815 36.4417C37.3553 34.6446 37.1921 31.3997 36.2678 30.2016C35.9416 29.9521 35.5609 29.8023 35.1259 29.6525C34.7453 29.5527 34.419 29.5028 34.0384 29.5028C33.7665 29.5527 33.1684 29.7025 32.8965 29.7523C33.0053 29.3031 33.3316 28.105 34.2559 28.2049L36.3221 27.8554Z" fill="white"/>
<path fill-rule="evenodd" clip-rule="evenodd" d="M36.7573 43.73L36.7029 44.2292L37.4098 44.6785V44.1293L36.7573 43.73ZM36.4854 52.2164V52.7156L36.5398 52.7656H37.2467L36.4854 52.2164ZM36.4854 51.268V51.7671L37.6816 52.6158V52.1166L36.4854 51.268ZM36.5398 50.3194V50.8187L37.7361 51.6173V51.1182L36.5398 50.3194ZM36.5398 49.3709L36.4854 49.8702L37.5729 50.619V50.0699L36.5398 49.3709ZM36.5942 48.4225V48.9216L37.6272 49.6206V49.1214L36.5942 48.4225ZM36.6485 47.474V47.9732L37.6272 48.6221V48.073L36.6485 47.474ZM36.6485 46.5255V47.0247L37.5185 47.6238V47.0747L36.6485 46.5255ZM36.7029 45.5771L36.6485 46.0762L37.4641 46.6254V46.0762L36.7029 45.5771ZM36.7573 44.6285L36.7029 45.1278L37.4641 45.6269L37.4098 45.0778L36.7573 44.6285Z" fill="#AB9276"/>
<mask id="mask10_600_588" style="mask-type:luminance" maskUnits="userSpaceOnUse" x="20" y="31" width="6" height="8">
<path d="M20.2275 31.6992V38.3386H25.0669L25.0126 31.6992H20.2275Z" fill="white"/>
</mask>
<g mask="url(#mask10_600_588)">
<path d="M25.0126 31.6992H20.2275V38.3386H25.0126V31.6992Z" fill="url(#paint10_linear_600_588)"/>
</g>
<mask id="mask11_600_588" style="mask-type:luminance" maskUnits="userSpaceOnUse" x="21" y="26" width="4" height="6">
<path d="M22.6197 26.7572C22.3478 26.7572 22.1847 27.1067 21.9672 27.3562C21.8041 27.506 21.6954 27.6558 21.5322 27.8055V30.5012L21.6409 30.651L21.5866 31.5995H23.6528L23.5984 30.6011L24.0335 30.5012L23.9791 29.5528L23.9247 28.0052C23.6528 27.7557 23.4353 27.506 23.2179 27.2564C22.9459 27.0069 23.0548 26.7074 22.6197 26.7572Z" fill="white"/>
</mask>
<g mask="url(#mask11_600_588)">
<path d="M23.9244 26.7074H21.4775V31.5497H23.9244V26.7074Z" fill="url(#paint11_linear_600_588)"/>
</g>
<path d="M23.5444 28.6042H21.5869V29.4528H23.5444V28.6042Z" fill="#FACB13"/>
<path fill-rule="evenodd" clip-rule="evenodd" d="M22.0223 6.19019C22.8379 6.24003 23.5448 6.68931 23.4904 7.28835C23.436 7.88739 23.0555 10.683 23.0555 10.683L19.793 10.8826L20.391 7.03879C20.391 7.08875 21.2067 6.19019 22.0223 6.19019Z" fill="#EAD7B1"/>
<path d="M21.2061 7.43808C21.0974 8.48641 20.9343 9.13541 20.8799 10.1837C21.4237 10.1338 21.8586 10.1338 22.2936 10.0839C22.4024 9.08545 22.5655 8.33665 22.6743 7.33828C22.4024 6.7892 21.6411 6.83904 21.2061 7.43808Z" fill="#6E4E32"/>
<path d="M38.5522 10.1837C38.4433 9.18536 38.3346 8.43656 38.2259 7.43808C37.7908 6.83903 37.0296 6.73923 36.7578 7.33828C36.8665 8.33664 36.9752 9.08544 37.1384 10.0839C37.5734 10.1338 37.954 10.1837 38.5522 10.1837Z" fill="#6E4E32"/>
<path d="M31.8639 11.881V11.4816C31.7551 10.1837 31.6464 8.08704 29.852 8.08704C28.0577 8.08704 28.0032 10.2336 27.8945 11.5315V11.831L31.8639 11.881Z" fill="#6E4E32"/>
<path d="M29.8514 7.58782C32.1896 7.58782 32.2439 10.1337 32.407 11.7313V11.881H32.8421V11.7811C32.7877 11.3318 32.7332 10.8825 32.6789 10.4333H33.7664L33.9295 11.7811L33.9839 11.881H34.4189V11.7811L34.2558 10.4333L36.1588 10.4832L36.2133 11.0323L37.0833 11.0823C37.5727 11.1322 38.0621 11.1322 38.497 11.1821L39.802 11.282L39.7476 10.6829C40.5632 10.7328 41.3788 10.7827 42.1945 10.8825L42.5751 12.3303L42.6295 12.5799H43.0645L43.0101 12.2304L42.6838 10.9825L45.6745 11.3318L46.327 12.6797L46.3814 12.8294L46.4357 12.9294L46.9795 12.9792V12.8794L43.717 6.04038L44.8589 6.19014L46.0552 5.24161L46.9251 3.49445C47.0339 2.84545 47.0339 2.14661 46.9795 1.4976C46.327 1.3978 42.5751 0.698842 42.2489 0.698842L39.4758 1.84708V0.399321L34.7996 0.0499601L33.1683 1.44764H32.1352V0H27.459V1.44764L26.4802 1.4976L24.849 0.0998003L20.1184 0.449281V1.84708L17.4539 0.748802C17.1277 0.698842 13.4302 1.3978 12.7778 1.4976C12.7778 1.89693 12.6689 3.19493 12.832 3.49445C13.9196 5.54113 13.104 4.79233 15.0615 6.09022L15.9858 5.99042L12.7778 12.8794V13.0292L13.2671 12.9792L13.3214 12.8794L14.0827 11.282L17.0733 10.9325L16.6383 12.4301V12.7796H17.019L17.1821 12.0806L17.5084 10.9325C18.2696 10.8825 18.9765 10.7827 19.7377 10.7328L19.6833 11.282L20.934 11.1821C21.4234 11.1322 21.9127 11.1322 22.3477 11.0823L23.1633 10.9825L23.2177 10.4832C23.9245 10.4333 24.6858 10.4333 25.3926 10.3834L25.2839 11.4816L25.2295 11.9808H25.6646V11.7811L25.8277 10.3834L26.9152 10.3335L26.9696 9.93415L23.3808 10.1337L23.5983 8.73606L27.5677 8.5863C27.187 9.53471 26.9696 10.5332 26.9152 11.5815L26.8065 11.9808H27.2414V11.7811C27.459 10.1837 27.5677 7.58782 29.8514 7.58782ZM36.0501 6.5395C34.0382 6.4397 32.0807 6.38974 30.069 6.38974V4.99205C32.3527 4.99205 34.6364 5.09185 36.9202 5.24161L37.0289 5.99042L36.8658 6.04038C36.5939 6.09022 36.2677 6.28994 36.0501 6.5395ZM35.6695 7.48802C35.7239 7.78754 35.7239 8.0371 35.7783 8.28678L33.9295 8.23682L33.8208 6.78918C34.4733 6.78918 35.1258 6.83902 35.7783 6.88898L35.7239 6.98878L35.6152 7.23846L35.6695 7.48802ZM38.497 10.6829C38.0076 10.633 37.5183 10.633 37.0833 10.583L36.6482 10.5332L36.5939 10.1337C36.4851 9.23518 36.322 8.28678 36.2133 7.38822V7.23846L36.2677 7.13854C36.4308 6.83902 36.7026 6.58946 37.0833 6.48966C37.7358 6.38974 38.3883 6.63942 38.6601 7.1885L38.7146 7.2883V7.38822C38.8233 8.28678 38.9864 9.23518 39.0408 10.1337L39.0951 10.7328L38.497 10.6829ZM39.2582 7.38822L39.2039 7.1885C39.8564 7.23846 40.5089 7.2883 41.107 7.38822L41.4877 8.7859C40.7808 8.73606 40.0738 8.6861 39.367 8.5863C39.367 8.13702 39.3126 7.78754 39.2582 7.38822ZM45.4569 10.8327H45.4027C43.4995 10.583 41.5964 10.4333 39.6933 10.2835V10.1337C39.6389 9.73443 39.5845 9.3351 39.5302 8.93566C41.2701 9.08542 43.0645 9.23518 44.8044 9.48486L45.4569 10.8327ZM44.587 9.08542H44.5326L42.0313 8.7859L41.6508 7.38822L43.9345 7.63778L44.587 9.08542ZM43.717 7.23846H43.6626L38.9864 6.78918C38.6057 6.38974 38.1163 6.09022 37.5183 6.04038L37.3551 5.29157C39.2582 5.44133 41.1614 5.64093 43.0101 5.89062L43.717 7.23846ZM42.1945 1.24804V2.14661C41.6508 2.09665 41.0526 1.99685 40.5089 1.89693L42.1945 1.24804ZM34.8539 0.649002V1.4976H33.8751L34.8539 0.649002ZM24.849 0.649002L25.8277 1.4976L24.849 1.54756V0.649002ZM17.4539 1.29788L19.1939 1.99685L17.4539 2.19645V1.29788ZM13.8652 4.34305C13.104 2.99521 13.2671 3.49445 13.2671 1.89693C14.5177 1.69732 15.714 1.4976 16.9646 1.29788V2.69569C18.2151 2.54593 19.4114 2.39617 20.662 2.29637V0.848602C21.9127 0.748802 23.1089 0.649002 24.3596 0.599042V2.04669C25.5558 1.99685 26.752 1.94689 28.0026 1.89693V0.449281H31.7002V1.89693C32.9508 1.89693 34.1471 1.94689 35.3976 1.99685V0.549082C36.6482 0.599042 37.8445 0.698842 39.0951 0.798762V2.24641C40.2914 2.34621 41.542 2.49597 42.7927 2.64573V1.29788C43.9888 1.4976 45.2395 1.69732 46.4901 1.89693C46.4901 3.54429 46.6532 2.94525 45.8376 4.39301C40.3458 3.54429 34.8539 3.14497 29.362 3.14497C24.1965 3.19493 19.0308 3.59425 13.8652 4.34305ZM15.2246 5.59109C14.7352 5.29157 14.4633 5.09185 14.0283 4.74237C24.4683 3.19493 35.1801 3.19493 45.6745 4.84229L44.6413 5.6909L39.2582 4.99205C31.2108 4.24325 23.1633 4.44285 15.2246 5.59109ZM16.5296 5.94046C18.4327 5.6909 20.3902 5.49117 22.2933 5.34141L22.1301 5.99042C21.4234 5.99042 20.8251 6.28994 20.3902 6.78918L15.8771 7.23846L16.5296 5.94046ZM15.714 7.63778L17.9977 7.38822L17.6171 8.83586L15.0071 9.13538L15.714 7.63778ZM19.7921 10.1337V10.3335C17.9433 10.4832 16.0945 10.633 14.2459 10.8825L14.8984 9.48486C16.5839 9.28514 18.2696 9.08542 19.9552 8.98562C19.8464 9.38494 19.7921 9.78439 19.7921 10.1337ZM20.1184 7.38822C20.0639 7.78754 20.0095 8.18686 19.9552 8.5863L18.052 8.73606L18.4871 7.2883C19.0308 7.23846 19.5746 7.1885 20.1184 7.13854V7.38822ZM23.2177 7.43806C23.1089 8.38658 22.9458 9.28514 22.8371 10.1837L22.7826 10.583L22.2933 10.633C21.8039 10.6829 21.3145 10.6829 20.8796 10.7328L20.2271 10.7827L20.2815 10.1837C20.3902 9.28514 20.5533 8.33662 20.6077 7.43806V7.33826L20.662 7.23846C20.9883 6.68926 21.6408 6.4397 22.2933 6.5395C22.6195 6.63942 22.9458 6.83902 23.1089 7.13854L23.1633 7.23846L23.2177 7.43806ZM23.3264 6.5395C23.1089 6.28994 22.8371 6.14018 22.5652 6.04038L22.7283 5.24161C25.0121 5.09185 27.3501 4.99205 29.6339 4.99205V6.3399C27.5677 6.3399 25.447 6.38974 23.3264 6.5395ZM25.6646 8.28678C24.9577 8.28678 24.3052 8.33662 23.5983 8.38658C23.6527 8.08706 23.7071 7.78754 23.7071 7.53798L23.7614 7.2883L23.6527 6.98878L23.5983 6.93894C24.3052 6.88898 25.0664 6.88898 25.7733 6.83902L25.6646 8.28678ZM26.0995 8.28678L26.2082 6.83902C28.6008 6.78918 30.9933 6.73922 33.3857 6.83902L33.5489 8.23682L31.9176 8.18686C32.0264 8.28678 32.0807 8.43654 32.1352 8.5863L35.8326 8.73606L36.0501 10.1337L32.6245 9.98399V10.1337C32.3527 8.63614 31.7545 7.1885 29.797 7.1885C28.9814 7.13854 28.1657 7.53798 27.7308 8.18686L26.0995 8.28678Z" fill="#6E4E32"/>
<path d="M23.2727 34.0455H22.1309V35.0439H23.2727V34.0455Z" fill="#405965"/>
<path d="M24.8497 49.7704C25.0129 49.6705 25.0671 49.4709 24.9584 49.3211C24.9584 49.2711 24.904 49.2711 24.8497 49.2212H23.9253V48.7221C23.9253 48.6221 23.8166 48.5223 23.7079 48.5223H23.2185C23.1096 48.5223 23.0009 48.6221 23.0009 48.7221V49.2212H20.8803C22.3484 48.4724 23.9797 47.9233 25.6109 47.6737L26.481 47.524L25.7741 47.0247C24.5235 46.1262 22.2397 44.5288 22.0766 42.9313C22.0222 42.4321 22.1853 41.9329 22.4571 41.4836L23.2185 40.2855L21.8591 40.9345C18.1072 42.8314 18.0528 46.0264 19.7929 49.2212H19.2491V48.9217H18.5422V49.2212H17.7265C17.5091 49.3709 17.5091 49.5707 17.7265 49.7704C20.0647 50.1697 22.4571 50.1697 24.8497 49.7704ZM22.0766 41.2839C20.7172 43.4805 22.6747 45.2776 25.5565 47.3243C23.6534 47.6238 21.8591 48.2228 20.2822 49.1713C18.2159 45.3774 19.086 42.7815 22.0766 41.2839Z" fill="#405965"/>
<path d="M34.3103 28.6542C34.2015 28.6542 34.0928 28.704 34.0928 28.8039C34.0928 28.9037 34.1472 29.0035 34.2559 29.0035C34.3646 29.0035 34.4734 28.9537 34.4734 28.8538C34.4734 28.754 34.419 28.704 34.3103 28.6542Z" fill="#405965"/>
<path d="M54.0489 30.3015C54.4294 27.4061 56.6589 25.4093 59.2689 23.8618L59.7583 23.6122L51.0038 13.4784L50.8407 13.4284C49.8077 13.2288 48.7745 13.0791 47.7413 12.9293C44.5877 12.5299 42.3039 12.2803 40.3464 12.0806L38.7152 11.9808H38.6608L38.1714 11.9308H37.9539C36.7577 11.881 35.5614 11.831 34.3651 11.7811H33.5495C29.1451 11.6813 25.2846 11.831 22.5115 11.9808C21.5327 12.0308 15.3884 12.5798 14.2465 12.7296H14.0834C12.6696 12.9293 9.78774 13.3286 8.75458 13.4784L0.0546875 23.6122L0.544061 23.8618C3.15405 25.3594 5.38338 27.4061 5.76405 30.3015C6.14458 33.1968 4.35021 36.4916 3.15405 39.0874C1.5771 42.5819 0.108975 46.0264 0.108975 49.8702C0.108975 50.6689 0.217812 51.5175 0.489643 52.3163C1.35968 54.8622 3.4803 56.9089 5.76405 58.5563C8.48275 60.4034 11.3646 62.0507 14.4096 63.4484C17.509 64.946 20.6627 66.3938 23.6533 68.0412C25.6652 69.1393 28.2752 70.7867 29.3627 72.6837L29.7976 73.4824L30.2327 72.6837C31.3202 70.7867 33.9846 69.1393 35.9421 68.0412C38.9326 66.3938 42.0864 64.946 45.1858 63.4484C48.2307 62.0507 51.1127 60.4034 53.8314 58.5563C56.1151 56.9089 58.2357 54.8622 59.1058 52.3163C59.3776 51.5175 59.4863 50.7188 59.4863 49.8702C59.4863 46.0264 58.0182 42.5819 56.4414 39.0874C55.3539 36.4916 53.6682 33.1968 54.0489 30.3015ZM29.8521 72.484C25.6652 65.1457 0.598349 60.8527 0.598349 49.8702C0.598349 38.8877 13.2678 30.8007 0.761474 23.4624L8.97212 13.8777C23.7077 11.5815 37.6276 11.5815 50.732 13.8777L58.9426 23.4624C46.4363 30.8007 59.0514 38.8877 59.0514 49.8702C59.0514 60.8527 34.0389 65.1957 29.8521 72.484Z" fill="#405965"/>
<path fill-rule="evenodd" clip-rule="evenodd" d="M17.4541 2.19645L19.3029 1.99685L17.4541 1.24805V2.19645Z" fill="#EAD7B1"/>
<path d="M54.2115 39.9361C52.852 36.8911 51.1664 33.3966 51.6015 30.0519C51.9277 27.3064 53.559 25.1598 55.8427 23.4126L56.2232 23.1131L49.5896 15.5252L49.4264 15.4753C36.4309 13.3287 23.2178 13.5783 10.2221 15.4753L10.0047 15.5252L3.47972 23.1131L3.80597 23.4126C6.08972 25.1598 7.72096 27.3064 8.04721 30.0519C8.48217 33.4466 6.7965 36.8911 5.3828 39.9361C3.9691 43.131 2.50098 46.3758 2.50098 49.8703C2.50098 50.4693 2.60968 51.0683 2.77281 51.6174C4.24093 55.9605 11.3097 59.405 15.4965 61.4518C18.6503 62.9992 21.8584 64.397 24.849 66.0943C26.4803 66.9429 27.9484 67.9913 29.3621 69.1394L29.7428 69.4389L30.069 69.1394C31.4283 67.9913 32.9508 66.9429 34.5821 66.0943C37.627 64.397 40.8352 62.9494 43.9346 61.4518C48.4477 59.2552 56.9302 55.2117 56.9302 49.8703C57.0933 46.3758 55.6252 43.131 54.2115 39.9361ZM43.8258 61.0523C40.6721 62.5999 37.4639 64.0475 34.419 65.7449C32.7877 66.6434 31.2652 67.6418 29.8515 68.8399C28.4378 67.6418 26.9152 66.6434 25.284 65.7449C22.239 64.0475 19.0308 62.5999 15.8772 61.0523C11.9078 59.1054 4.78472 55.661 3.37089 51.4677C3.20776 50.9186 3.09906 50.3695 3.09906 49.8203C3.09906 46.3758 4.51276 43.181 5.92659 40.036C7.34029 36.8911 9.02596 33.3966 8.59087 29.9022C8.21034 27.0069 6.47025 24.7605 4.13222 22.9634L7.61213 18.9198L16.3121 26.8072C10.8203 35.2437 12.1253 48.8219 20.3903 54.7126C23.109 56.6594 26.4259 57.6578 29.8515 57.6078C35.8327 57.6078 40.237 54.9122 43.0102 50.9685L50.2965 57.6078C48.2301 58.8559 46.0552 60.004 43.8258 61.0523ZM31.3196 20.1677H31.4827C32.6246 20.2677 33.8209 20.5172 34.9083 20.8667L35.2346 20.9665H35.289L35.6695 21.1163L35.724 21.1662L35.9415 21.266C37.029 21.7153 38.0077 22.2644 38.932 22.9634L39.5302 23.4126L39.7477 23.6122C40.6721 24.411 41.4877 25.3096 42.1945 26.2581L42.2489 26.3079C42.3034 26.4078 42.4121 26.5076 42.4665 26.6074L42.3577 26.4577L42.4665 26.5576V26.6074C43.119 27.556 43.6626 28.5045 44.0977 29.5528H43.9889C42.5208 29.5528 41.1615 30.3016 40.4546 31.4497C40.4546 31.4997 40.237 31.7992 40.1283 31.9988C39.8565 32.4481 39.5302 32.8974 39.204 33.3467C39.2583 33.0971 39.3127 32.8475 39.3671 32.5979C39.3671 32.4981 39.3671 32.3983 39.4214 32.2485C39.4758 32.1486 39.4214 31.8491 39.4214 31.8491C39.4214 30.9505 38.932 30.1518 38.6602 29.3531C39.3127 29.2533 39.9108 29.0536 40.509 28.804C40.8352 28.5543 40.8895 28.105 40.6177 27.8055C40.6177 27.7057 40.5633 27.6059 40.5633 27.556C40.5633 27.506 40.4546 27.4062 40.4546 27.3562C40.4002 27.2564 40.2915 27.1566 40.1827 27.1067C40.0196 26.8072 39.6934 26.6074 39.3127 26.6574C38.9865 26.7572 38.7146 26.8571 38.4427 26.9569C38.1164 27.1067 37.8446 27.3064 37.5183 27.4062C37.4096 27.4562 37.3008 27.4562 37.1921 27.506C36.8114 27.2564 36.3765 27.0069 35.9415 26.8072C35.8327 26.7572 35.6695 26.7074 35.3977 26.6074L34.9083 26.4577C34.0383 26.1582 33.114 26.0084 32.1896 25.9586C31.8634 25.9586 31.5914 25.9086 31.1565 25.9086H30.6671C30.3409 25.9086 29.6884 25.8586 29.6339 26.2581C29.5796 26.6574 30.1777 26.7572 30.504 26.8571H30.5584L31.4827 27.0567C32.3528 27.2564 33.2227 27.506 34.0383 27.9054C33.5489 28.0052 33.1684 28.3048 33.0053 28.7041L32.8964 28.9538C32.7877 29.2033 32.7333 29.4529 32.679 29.7026L32.5702 30.2017L33.2227 30.0519C33.4946 30.0021 33.8209 29.9521 34.0927 29.9022C34.3646 29.9022 34.6908 29.9521 34.9628 30.0519C35.1802 30.1019 35.3977 30.2017 35.6153 30.3016H35.6695C35.8327 30.3515 35.9958 30.4514 36.1046 30.5512V30.6011C36.4309 31.3499 36.6483 32.0987 36.7571 32.8974V32.9473C36.7571 33.0471 36.8114 33.1471 36.8114 33.2968C36.8114 33.4466 36.8658 33.5963 36.8658 33.6961V33.8959C36.6483 33.8459 36.3765 33.7959 36.2133 33.7461L36.0502 33.6961H35.9958L34.6908 33.3966C34.0383 33.3966 33.3858 33.6462 32.8964 34.0955C32.7333 34.1954 32.5702 34.3451 32.4071 34.4449C32.0265 34.7445 31.6459 35.0939 31.3196 35.4433C31.2652 35.4933 31.2109 35.5432 31.1565 35.643C30.8846 35.9425 30.6671 36.2421 30.3953 36.5416L30.069 36.9909C29.9602 37.1906 29.8515 37.3403 29.7428 37.4901C29.5797 37.7397 29.4708 37.9394 29.3621 38.189H25.4471V31.4997H23.9246L23.8703 30.7009H24.3052V29.2033H23.9246V28.754H24.2508V28.2548C24.2508 27.8055 23.9246 27.4062 23.4352 27.2564V27.1067C23.4352 26.8072 23.2178 26.5576 22.8915 26.4577C22.8371 26.4577 22.7284 26.4078 22.674 26.4078H22.5109C22.1846 26.4577 21.9128 26.7572 21.9128 27.0567V27.2065C21.4777 27.3562 21.1515 27.7557 21.1515 28.205V28.7041H21.4777V29.1534H21.1515V30.651H21.6408L21.5865 31.4497H20.064V38.139H13.6477V37.4901C13.6477 37.1406 13.7022 37.0408 13.7022 36.5915V36.2421C13.7566 35.643 13.8109 35.0939 13.974 34.5447C13.974 34.4449 14.0284 34.2952 14.0284 34.1954C14.1371 33.6462 14.2459 33.2469 14.3002 32.8475C14.3546 32.6478 14.4091 32.4981 14.4634 32.2983V32.2485C14.5178 32.0488 14.5722 31.8491 14.6809 31.5495C14.7896 31.25 14.8984 30.9505 15.0071 30.651C15.0616 30.4514 15.1703 30.2516 15.279 30.0021V29.9521C15.4421 29.5028 15.6596 29.0536 15.8772 28.6542L15.9315 28.5543C16.2577 27.9054 16.6384 27.2564 17.0733 26.6574C17.3996 26.1582 17.7803 25.7089 18.1609 25.2596L18.3783 25.01L18.4328 24.9601C18.8134 24.461 19.3028 24.0117 19.7922 23.6122L19.8465 23.5624C20.499 22.9634 21.2603 22.4641 22.0215 22.0148H22.0759C22.3478 21.8151 22.674 21.6653 23.0003 21.5156C23.0547 21.4657 23.1634 21.4158 23.2178 21.4158C24.0334 21.0165 24.9033 20.7169 25.8278 20.4673H25.8821C26.2627 20.3675 26.6434 20.2677 27.0239 20.2177C28.0027 20.0679 28.9814 19.9681 29.9602 19.9681H30.7758L30.9934 20.018C30.9934 20.1179 31.1565 20.1179 31.3196 20.1677ZM13.6477 38.5883H29.0903C28.6009 38.738 28.1658 38.8878 27.6764 39.0875L27.5677 39.1375L27.1871 39.3371C27.0784 39.387 26.9152 39.4868 26.8065 39.5368C25.7734 40.036 25.1209 41.0844 25.1209 42.1327C25.1209 42.6318 25.2296 43.0811 25.3384 43.5803L25.3927 43.7301C25.4471 43.8798 25.5015 44.0796 25.6102 44.2792C25.8821 44.8782 26.154 45.4274 26.4803 46.0265L27.1871 47.2245C28.2202 49.0217 29.3621 50.8686 29.8515 52.8155C30.1777 53.9638 30.1233 55.2117 29.6884 56.3599C29.6339 56.5097 29.5797 56.6095 29.5252 56.7592C29.4708 56.909 29.4165 56.959 29.3621 57.0588C28.9814 57.0588 28.5465 57.0088 28.1658 57.0088C25.9909 56.8092 23.9246 56.1602 22.0759 55.1119C16.0946 51.6674 13.4846 44.6786 13.6477 38.5883ZM21.6953 32.4981V31.899H22.3478V32.4981H23.0003V31.899H23.6527V32.4981H24.3052V31.899H24.9577V33.1969H20.3903V31.899H21.0428V32.4981H21.6953ZM22.674 27.556C23.2721 27.556 23.7615 27.9054 23.7615 28.3048V28.4046H21.5321V28.3048C21.5865 27.8555 22.0759 27.556 22.674 27.556ZM22.2933 27.1566C22.2933 27.0069 22.4565 26.8571 22.6196 26.8571C22.7827 26.8571 22.9458 27.0069 22.9458 27.1566V27.2065H22.6196C22.5109 27.2065 22.4022 27.2065 22.2933 27.2564V27.1566ZM23.4352 28.754V29.2033H22.8915V28.754H23.4352ZM22.4565 29.2533H21.9128V28.804H22.4565V29.2533ZM23.8703 30.3514H21.5321V29.6026H23.9246L23.8703 30.3514ZM23.4352 31.4997H21.9128L21.9671 30.7009H23.3809L23.4352 31.4997ZM24.9577 35.3935H20.3903V33.5963H25.0122L24.9577 35.3935ZM24.9577 35.7928V38.139H23.2721V36.8411C23.3265 36.5416 23.109 36.2421 22.7827 36.1921C22.4565 36.1423 22.1302 36.3419 22.0759 36.6414V38.139H20.3903V35.7928H24.9577ZM29.7971 57.0588C31.2109 54.3631 30.1233 51.6174 28.7096 49.0217C27.894 47.5241 26.9697 46.0763 26.3172 44.7284C25.8821 43.8299 25.4471 42.6818 25.6102 41.6834C25.7189 40.9346 26.2083 40.2856 26.8608 39.8863C27.4046 39.5868 28.0027 39.2872 28.6009 39.0875L28.6552 39.0376L28.9272 38.9378C27.2959 41.7832 27.894 44.5288 30.4496 47.0248C31.9177 48.4226 33.984 49.1714 36.1589 49.8203L36.0502 52.9653H38.0077V52.6658C38.0077 51.9169 37.9533 51.1183 37.9533 50.3695C39.204 50.7189 40.4546 51.1681 41.5964 51.6674C38.8777 55.1618 34.4734 57.1586 29.7971 57.0588ZM37.899 44.5787L38.5515 45.1777L38.7689 44.9781L38.0621 44.2792C38.6058 44.5288 39.0409 44.8782 39.4214 45.3275V45.5272L39.2583 46.8751L38.4971 46.1762L38.3884 46.1263L38.334 46.0265C38.2795 45.5272 38.1164 45.028 37.899 44.5787ZM38.1708 46.276L37.8446 46.925C37.8446 46.326 37.7902 45.7269 37.7902 45.1279C37.9533 45.4772 38.0077 45.8267 38.1164 46.2261L38.1708 46.276ZM38.5515 44.1794L39.204 44.3791L39.3127 44.0796L38.4971 43.8299C38.8777 43.8299 39.2583 43.9298 39.639 44.0296L39.7477 44.1294L40.5633 45.4274L39.8565 45.2776C39.4758 44.8284 39.0409 44.4789 38.5515 44.1794ZM39.8565 43.7301H39.7477C39.3127 43.5803 38.8778 43.5304 38.4427 43.5304L39.3671 43.3806L39.3127 43.0811L38.2253 43.2308L39.3127 42.7317H39.4214L40.9984 42.9813L39.8565 43.7301ZM39.639 40.9346L39.2583 41.0844L39.6934 40.7848L39.639 40.9346ZM39.5302 41.3339L39.204 42.482V42.532H39.1496C38.6602 42.7317 38.1708 42.9313 37.6815 43.2308L38.7689 42.1327L38.4971 41.933L37.5728 42.9313C37.7359 42.582 37.899 42.2325 38.1164 41.883L38.1708 41.8332H38.2253L39.5302 41.3339ZM36.4852 51.8171V51.3679L37.6815 52.1666V52.6658L36.4852 51.8171ZM37.2465 52.8155H36.4852L36.4309 52.7657V52.2664L37.2465 52.8155ZM37.4639 45.2277V45.7269L36.7027 45.2277V44.7284L37.4639 45.2277ZM36.7571 44.2293V43.78L37.4096 44.1794V44.6786L36.7571 44.2293ZM37.5183 46.1762V46.6753L36.7027 46.0763V45.5772L37.5183 46.1762ZM37.5183 47.1746V47.6738L36.6483 47.0748V46.6255L37.5183 47.1746ZM37.5728 48.1729V48.6722L36.6483 48.0232V47.5739L37.5728 48.1729ZM37.5728 49.1714V49.6705L36.5396 48.9717V48.5224L37.5728 49.1714ZM37.627 50.1698V50.669L36.5396 49.9202V49.4709L37.627 50.1698ZM37.6815 51.1681V51.6674L36.5396 50.8686V50.4193L37.6815 51.1681ZM37.7902 41.7832C37.5728 42.0827 37.4096 42.3822 37.3008 42.7317V41.5336H36.9745V42.8815C36.8114 42.4322 36.594 42.0328 36.322 41.6834V41.5835L37.0834 40.2356L37.8446 41.5835V41.6334L37.7902 41.7832ZM36.5396 42.9313L35.6153 42.0827L35.3977 42.2824L36.6483 43.4306C36.1589 43.0811 35.6153 42.7816 35.017 42.582L34.9628 42.532L34.6365 41.3339L35.8871 41.8332L35.9958 41.883L36.0502 41.933C36.2133 42.2325 36.3765 42.582 36.5396 42.9313ZM34.4734 40.9346L34.419 40.7848L34.8539 41.0844L34.4734 40.9346ZM34.6365 42.8815H34.8539L35.8327 43.2808L34.9083 43.0811L34.7996 43.3806L35.724 43.5304C35.289 43.5304 34.8539 43.6303 34.419 43.7301H34.3103L33.1684 43.0312L34.6365 42.8815ZM34.419 44.1794L34.5277 44.0796C34.9083 43.9796 35.289 43.9298 35.6695 43.8798L34.7996 44.1294L34.9083 44.4289L35.6153 44.2293C35.1259 44.5288 34.7452 44.8782 34.3646 45.2776L34.3103 45.3275V45.3774L33.6033 45.5272L34.419 44.1794ZM34.7452 45.4274C35.0715 45.028 35.5064 44.6786 35.9415 44.4289L35.3433 44.9781L35.5608 45.1777L36.322 44.4789C35.9958 44.9781 35.7784 45.5272 35.6695 46.0763V46.1263L35.6153 46.1762L34.9083 46.925L34.7452 45.5772V45.4274ZM36.0502 46.0763C36.1046 45.7768 36.2133 45.4773 36.3765 45.1777L36.322 46.8251L36.0502 46.2261V46.0763ZM37.9533 50.02C37.899 49.2213 37.899 48.4226 37.8446 47.6239L38.1708 46.9749V47.8734H38.4971V47.0248L38.8233 47.8236L39.1496 47.7237L38.8233 46.8751L39.4758 47.5241L39.7477 47.3243L39.639 47.2245L39.7477 46.326L40.0196 47.2245L40.3459 47.1246L40.0739 46.276L40.6177 46.9749L40.8895 46.8251L40.237 45.9765L41.1071 46.4757L41.2702 46.2261L40.4546 45.7768L40.7264 45.8267L40.8352 45.9765L41.0527 45.8767L41.4333 45.9265L41.4877 45.627H41.3789L41.5964 45.4274L40.7808 44.5787L41.814 45.1279L41.9771 44.8782L40.8895 44.2792L42.1402 44.5288L42.1945 44.2293L41.1615 44.0296L42.1945 43.9796V43.6801L41.0527 43.7301L42.1945 43.3806L42.0858 43.0811L40.9984 43.4306L41.542 43.0811L41.9771 42.8315L41.7596 42.6318L41.4333 42.8315L40.6177 42.7317L41.7052 42.6318L41.6509 42.3323L40.4002 42.4322L41.4877 41.9829L41.3789 41.6834L40.2915 42.1327L41.2158 41.3839L40.9984 41.1342L40.0739 41.8332L40.7264 40.8846L40.4546 40.7349L40.4002 40.6351L40.0739 40.7349L40.1283 40.5851H39.9652L40.1827 40.4354L39.9652 40.1858L38.8777 40.8846L39.639 39.9361L39.3671 39.7365L38.4971 40.7349L38.9865 39.5368L38.6602 39.437L38.2795 40.4354L38.3884 39.387H38.0621L37.9533 40.5352L37.6815 39.437L37.3552 39.4868L37.627 40.6351L37.1921 39.9361L37.3552 39.6866L37.029 39.5368L36.9745 39.5868L36.6483 39.7365L36.7571 39.9361L36.4309 40.5851L36.7027 39.437L36.3765 39.387L36.1046 40.5352L35.9958 39.387L35.6695 39.437L35.7784 40.4853L35.3433 39.437L35.017 39.5368L35.5064 40.7349L34.6365 39.7365L34.3646 39.9361L35.1259 40.8846L34.0383 40.1858L33.8209 40.4354L34.0927 40.6351L33.9296 40.6849L33.984 40.7848L33.7121 40.5851L33.6578 40.7349L33.3858 40.8846L34.0383 41.8332L33.1684 41.1342L32.9508 41.3839L33.8752 42.1327L32.7333 41.6834L32.5702 41.933L33.6578 42.3822L32.4615 42.2325L32.4071 42.532L33.4946 42.6318L32.7333 42.7317L32.4071 42.582L32.2439 42.8315L32.5702 43.0312V43.131H32.679L33.2771 43.4805L32.1896 43.131L32.0808 43.4306L33.2227 43.78L32.0265 43.7301V44.0296L33.0596 44.0796L32.0265 44.2792L32.0808 44.5787L33.3315 44.3291L32.2439 44.9282L32.4071 45.1777L33.3858 44.5787L32.5702 45.3774L32.7877 45.5772H32.679L32.7333 45.8767L33.114 45.8267L33.3315 45.9265L33.4402 45.7768L33.7121 45.7269L32.8964 46.1762L33.0596 46.4258L33.9296 45.9265L33.3315 46.7253L33.6033 46.8751L34.1471 46.1762L33.9296 47.0748L34.2558 47.1746L34.5277 46.276L34.6365 47.1746L34.5277 47.2744L34.7996 47.4741L35.4521 46.8251L35.0715 47.6738L35.3977 47.7736L35.724 46.9749V47.8236H36.0502V46.925L36.322 47.4741L36.2678 49.4709C34.2014 48.8219 32.2439 48.1231 30.8302 46.7753C27.6764 43.7301 28.2202 40.9844 29.5252 38.8878L29.6884 38.5883H30.4496L45.8921 38.9378C45.8921 43.5304 44.4783 48.1729 41.7596 51.5676C40.509 51.0184 39.204 50.5193 37.8446 50.1698M40.6177 44.9282L41.2702 45.5772L40.944 45.5272L40.6177 44.9282ZM39.7477 41.6834L39.9108 41.1342L40.1827 41.0344L39.7477 41.6834ZM34.3646 41.6834L33.9296 41.0344L34.2558 41.1342L34.3646 41.6834ZM33.5489 44.9282L33.1684 45.5272L32.8421 45.5772L33.5489 44.9282ZM46.0008 38.2888H37.3552C40.237 36.6414 41.1071 34.395 42.6839 34.5447C43.5539 34.6447 44.8589 34.9442 45.6746 35.044C45.8921 36.0923 45.9464 37.1906 46.0008 38.2888ZM45.457 34.5947C45.0221 34.5447 44.6414 34.4449 44.2064 34.395C43.7715 34.3451 43.2277 34.2452 42.7383 34.1954C42.5752 34.1454 42.3577 34.1454 42.1945 34.1954C41.3246 34.3451 40.5633 35.1438 39.9652 35.693C39.1496 36.5416 38.1708 37.3403 37.1377 37.9394L36.4852 38.2888L29.7971 38.2389C30.6671 36.4916 33.2771 33.6462 34.6365 33.8459C35.289 33.9457 36.2133 34.1954 36.9203 34.3451C36.9745 35.044 37.0834 35.7928 37.1921 36.4916C37.2465 36.7413 37.2465 37.2404 37.6815 37.2404C38.1708 37.2404 38.1164 36.7413 38.1708 36.4418C38.3884 35.643 38.6602 34.8942 38.932 34.1454C40.6177 33.1471 40.6721 30.0519 43.9889 30.0021H44.3151C44.9134 31.4997 45.3483 33.0471 45.6201 34.5947H45.457ZM34.3103 28.3547L36.2678 28.0052C37.4096 28.105 38.7689 27.2065 39.3671 27.1067C39.5302 27.1067 39.6934 27.2065 39.7477 27.3064L38.6058 27.8055L38.7689 28.105L40.0196 27.556C40.1827 27.6558 40.237 27.8055 40.237 27.9553L38.8777 28.2548L38.932 28.5543L40.3459 28.2548C40.4002 28.3547 40.3459 28.5045 40.2915 28.5543C39.639 28.9038 38.8233 28.9538 38.1708 29.2033C38.4427 30.1019 39.0952 31.2002 39.0409 32.0987V32.3983L38.334 31.0005L38.0077 31.1502L38.9865 32.9473C38.932 33.2968 38.8233 33.5963 38.7146 33.9457L37.9533 31.5995L37.627 31.6993L38.5515 34.4449C38.2795 35.0939 38.0621 35.7428 37.899 36.3918C37.7902 36.9409 37.899 37.0408 37.7902 36.4418C37.4096 34.6447 37.4096 31.4497 36.4852 30.2516C36.1046 30.0519 35.6695 29.8523 35.2346 29.7026C34.9083 29.6026 34.5277 29.5528 34.1471 29.5028C33.8752 29.5528 33.4402 29.6526 33.1684 29.7026C33.1684 29.2533 33.4402 28.2548 34.3103 28.3547ZM30.6127 26.5076C29.8515 26.3079 29.8515 26.3079 30.6671 26.3079C32.0808 26.2581 33.4402 26.4078 34.7452 26.8571C35.3433 27.0567 35.8871 27.3064 36.4309 27.6059H36.322L34.6908 27.9054C33.4402 27.1067 32.0265 26.8571 30.6127 26.5076ZM50.8401 57.2585L43.3364 50.4693C48.8826 41.9829 47.4689 28.2548 39.0952 22.3643C36.4309 20.4673 33.1684 19.4689 29.7971 19.5189C23.8159 19.5189 19.4115 22.2644 16.6384 26.2581L8.1015 18.5204L10.331 15.9744C23.2721 14.0775 36.4309 13.828 49.3177 15.9744L55.5165 23.0631C53.1783 24.8603 51.4383 27.1067 51.0577 30.0021C50.6227 33.4964 52.3082 36.9909 53.7221 40.1358C55.1358 43.2808 56.5495 46.4757 56.5495 49.9202C56.5495 52.7157 53.9395 55.2616 50.8401 57.2585Z" fill="#405965"/>
<defs>
<linearGradient id="paint0_linear_600_588" x1="11.5821" y1="2.40623" x2="47.9132" y2="2.40623" gradientUnits="userSpaceOnUse">
<stop stop-color="#D8B56D"/>
<stop offset="0.51" stop-color="#EDD9B1"/>
<stop offset="0.53" stop-color="#ECD8AF"/>
<stop offset="1" stop-color="#D8B56B"/>
</linearGradient>
<linearGradient id="paint1_linear_600_588" x1="13.5932" y1="4.62507" x2="46.3629" y2="4.62507" gradientUnits="userSpaceOnUse">
<stop stop-color="#B79644"/>
<stop offset="0.51" stop-color="#C7A865"/>
<stop offset="1" stop-color="#B89642"/>
</linearGradient>
<linearGradient id="paint2_linear_600_588" x1="12.7358" y1="9.08337" x2="47.2301" y2="9.08337" gradientUnits="userSpaceOnUse">
<stop stop-color="#DBB872"/>
<stop offset="0.51" stop-color="#E0C28B"/>
<stop offset="1" stop-color="#DBB872"/>
</linearGradient>
<radialGradient id="paint3_radial_600_588" cx="0" cy="0" r="1" gradientUnits="userSpaceOnUse" gradientTransform="translate(30.0003 42.3585) scale(30.5597 27.6652)">
<stop stop-color="#01A668"/>
<stop offset="0.39" stop-color="#029D5F"/>
<stop offset="1" stop-color="#038647"/>
</radialGradient>
<radialGradient id="paint4_radial_600_588" cx="0" cy="0" r="1" gradientUnits="userSpaceOnUse" gradientTransform="translate(23.9201 36.9133) scale(22.0604 19.9635)">
<stop stop-color="#E0F0E0"/>
<stop offset="0.14" stop-color="#D7EDE1"/>
<stop offset="0.37" stop-color="#BEE5E3"/>
<stop offset="0.65" stop-color="#96D7E7"/>
<stop offset="0.99" stop-color="#5EC5ED"/>
<stop offset="1" stop-color="#5CC4ED"/>
</radialGradient>
<linearGradient id="paint5_linear_600_588" x1="11.7757" y1="47.7809" x2="43.4551" y2="47.7809" gradientUnits="userSpaceOnUse">
<stop stop-color="white"/>
<stop offset="0.18" stop-color="#FFFBF6"/>
<stop offset="0.48" stop-color="#FEEFDD"/>
<stop offset="0.86" stop-color="#FCDBB5"/>
<stop offset="1" stop-color="#FBD3A4"/>
</linearGradient>
<linearGradient id="paint6_linear_600_588" x1="12.7373" y1="47.9434" x2="34.1301" y2="47.9434" gradientUnits="userSpaceOnUse">
<stop stop-color="#00AEB4"/>
<stop offset="0.18" stop-color="#09B0B6"/>
<stop offset="0.47" stop-color="#22B5BA"/>
<stop offset="0.84" stop-color="#4ABEC2"/>
<stop offset="1" stop-color="#5EC2C6"/>
</linearGradient>
<linearGradient id="paint7_linear_600_588" x1="37.7796" y1="29.4596" x2="37.7796" y2="38.551" gradientUnits="userSpaceOnUse">
<stop stop-color="#19A576"/>
<stop offset="0.33" stop-color="#149D6D"/>
<stop offset="0.87" stop-color="#068654"/>
<stop offset="1" stop-color="#027F4D"/>
</linearGradient>
<linearGradient id="paint8_linear_600_588" x1="26.4997" y1="45.0232" x2="45.883" y2="45.0232" gradientUnits="userSpaceOnUse">
<stop stop-color="#E9B68B"/>
<stop offset="0.3" stop-color="#E4AF82"/>
<stop offset="0.8" stop-color="#D69C69"/>
<stop offset="1" stop-color="#CF935D"/>
</linearGradient>
<linearGradient id="paint9_linear_600_588" x1="41.6456" y1="34.6441" x2="41.6456" y2="38.7261" gradientUnits="userSpaceOnUse">
<stop stop-color="#19A576"/>
<stop offset="0.33" stop-color="#149D6D"/>
<stop offset="0.87" stop-color="#068654"/>
<stop offset="1" stop-color="#027F4D"/>
</linearGradient>
<linearGradient id="paint10_linear_600_588" x1="20.7934" y1="34.999" x2="25.6001" y2="34.999" gradientUnits="userSpaceOnUse">
<stop stop-color="#DBDAD9"/>
<stop offset="0.35" stop-color="#E2E2E2"/>
<stop offset="0.92" stop-color="#F7F9FB"/>
<stop offset="1" stop-color="#FAFDFF"/>
</linearGradient>
<linearGradient id="paint11_linear_600_588" x1="21.5812" y1="29.1584" x2="24.0253" y2="29.1584" gradientUnits="userSpaceOnUse">
<stop stop-color="#DBDAD9"/>
<stop offset="0.35" stop-color="#E2E2E2"/>
<stop offset="0.92" stop-color="#F7F9FB"/>
<stop offset="1" stop-color="#FAFDFF"/>
</linearGradient>
</defs>
</svg>
