<svg width="371" height="113" viewBox="0 0 371 113" fill="none" xmlns="http://www.w3.org/2000/svg">
<path d="M133.994 18.9829C118.742 18.9829 107.243 29.2399 107.243 42.8647C107.243 56.4896 118.902 66.8231 133.834 66.8231C142.778 66.8231 149.805 63.1489 154.357 57.944V56.8722L145.493 49.6772H144.455C141.74 52.5092 137.987 54.1167 133.994 54.1167C127.526 54.4229 122.016 49.6006 121.697 43.3239C121.377 37.1238 126.408 31.8423 132.956 31.5362H133.994C137.987 31.6127 141.74 33.2201 144.455 35.9757H145.493L154.357 28.704V27.7089C149.246 22.1977 141.82 18.9064 133.994 18.9829Z" fill="white"/>
<path d="M161.783 65.9046H198.675V54.3463H176.476V47.8402H193.166V37.0475H176.476V30.5411H198.675V18.9829H161.783V65.9046Z" fill="white"/>
<path d="M362.774 49.6773L356.945 37.2005L348.401 18.9829H334.906L314.383 65.9046H329.795L332.51 58.8626H350.796C351.994 61.0823 353.591 62.9959 355.508 64.6798C357.664 66.2108 360.379 66.9761 363.094 66.8231C365.569 66.8997 367.965 66.3638 370.121 65.2923L363.573 51.2847C363.333 50.8254 363.094 50.2895 362.774 49.6773ZM336.343 49.524L341.773 35.5931L346.884 49.524H336.343Z" fill="white"/>
<path d="M252.496 49.6773L246.667 37.2005L238.203 18.9829H224.707L204.185 65.9046H219.597L222.312 58.8626H240.598C241.796 61.0823 243.393 62.9959 245.309 64.6798C247.466 66.2108 250.181 66.9761 252.895 66.8231C255.371 66.8997 257.767 66.3638 259.923 65.2923L253.295 51.2847C252.975 50.8254 252.736 50.2895 252.496 49.6773ZM225.985 49.524L231.415 35.5165L236.526 49.4476L225.985 49.524Z" fill="white"/>
<path d="M299.051 47.534C304.401 45.2376 307.915 40.798 307.915 34.6745C307.915 25.1066 301.128 18.9829 288.431 18.9829H265.593V65.9046H280.286V49.4476H281.484C284.758 49.4476 287.792 55.8773 289.549 58.939C292.823 64.5268 296.017 66.8231 302.645 66.8231C305.599 66.8231 308.634 65.9046 310.151 64.7564L310.231 64.6034L299.371 47.8402C299.211 47.7636 299.131 47.6106 299.051 47.534ZM287.872 40.1091H280.286V30.5411H287.872C290.587 30.3881 292.823 32.3782 292.983 34.9808V35.44C292.983 38.5017 290.587 40.0327 287.872 40.1091Z" fill="white"/>
<path d="M122.975 82.5911C122.975 84.5048 122.176 86.4185 120.739 87.7197C119.221 89.0974 117.225 89.863 115.149 89.863C110.837 89.863 107.323 86.4949 107.323 82.3615C107.323 78.2281 110.837 74.8602 115.149 74.8602C117.544 74.8602 119.86 75.8554 121.377 77.6158V77.8455L119.142 79.6059H118.822C117.944 78.5344 116.586 77.9221 115.149 77.9221C112.753 77.9221 110.757 79.8355 110.837 82.1319V82.2851C110.757 84.6578 112.753 86.5715 115.229 86.5715C116.267 86.5715 117.305 86.2653 118.183 85.5764C118.742 85.0407 119.142 84.4282 119.301 83.6629H115.309V81.1369H122.655L122.975 81.3665V82.5911Z" fill="white"/>
<path d="M125.37 82.438C125.37 78.1516 128.964 74.9368 133.595 74.9368C138.226 74.9368 141.82 78.1516 141.82 82.438C141.82 86.7245 138.226 89.9393 133.595 89.9393C128.964 89.9393 125.37 86.7245 125.37 82.438ZM138.147 82.438C138.147 79.9887 136.15 78.075 133.595 78.075C131.04 78.075 129.043 79.9887 129.043 82.438C129.043 84.8874 131.04 86.8011 133.595 86.8011C136.07 86.8777 138.067 85.0406 138.147 82.6677V82.438Z" fill="white"/>
<path d="M158.749 75.4726L151.961 89.6333H149.885L143.098 75.4726L143.257 75.2429H146.931L150.923 84.4282L155.076 75.2429H158.589L158.749 75.4726Z" fill="white"/>
<path d="M165.137 78.0751V81.0603H170.807V83.7393H165.137V86.8012H172.484V89.6333H161.464V75.2429H172.484V78.0751H165.137Z" fill="white"/>
<path d="M188.614 89.3271L188.454 89.5567H184.861L181.826 84.1222H179.75V89.5567H176.157V75.2429H182.625C186.458 75.2429 188.454 77.0036 188.454 79.8356C188.454 81.6726 187.256 83.2801 185.5 83.8159L188.614 89.3271ZM179.75 81.8258H182.705C183.743 81.9023 184.701 81.2134 184.781 80.2184V79.9888C184.781 78.917 183.982 78.0751 182.864 78.0751H179.75V81.8258Z" fill="white"/>
<path d="M205.543 75.2429V89.7098H203.307L195.641 81.0603V89.6333H192.047V75.2429H194.283L201.869 83.8159V75.2429H205.543Z" fill="white"/>
<path d="M208.977 82.438C208.977 78.1516 212.57 74.9368 217.202 74.9368C221.833 74.9368 225.427 78.1516 225.427 82.438C225.427 86.7245 221.833 89.9393 217.202 89.9393C212.57 89.9393 208.977 86.648 208.977 82.438ZM221.753 82.438C221.753 80.0651 219.757 78.075 217.202 78.075C214.726 78.075 212.65 79.9887 212.65 82.438C212.65 84.8874 214.647 86.8011 217.202 86.8011C219.677 86.8777 221.674 85.0406 221.753 82.6677V82.438Z" fill="white"/>
<path d="M249.301 82.3615C249.301 86.7246 246.267 89.5567 241.396 89.5567H234.848V75.2429H241.396C246.267 75.2429 249.301 78.0751 249.301 82.3615ZM245.628 82.3615C245.628 79.6059 243.872 77.9985 241.236 77.9985H238.362V86.7246H241.236C243.872 86.7246 245.628 85.1171 245.628 82.3615Z" fill="white"/>
<path d="M251.858 82.438C251.858 78.1516 255.452 74.9368 260.083 74.9368C264.715 74.9368 268.308 78.1516 268.308 82.438C268.308 86.7245 264.715 89.9393 260.083 89.9393C255.452 89.9393 251.858 86.7245 251.858 82.438ZM264.635 82.438C264.635 80.0651 262.639 78.075 260.163 78.075C257.688 78.075 255.611 79.9887 255.611 82.3614C255.611 84.7344 257.608 86.7245 260.083 86.7245H260.163C262.639 86.8011 264.635 84.964 264.715 82.5911C264.635 82.5146 264.635 82.438 264.635 82.438Z" fill="white"/>
<path d="M281.324 78.0751V81.0603H286.994V83.7393H281.324V86.8012H288.751V89.6333H277.731V75.2429H288.671V78.0751H281.324Z" fill="white"/>
<path d="M291.225 87.2604V87.0307L292.981 85.0407H293.221C294.259 86.1888 295.776 86.8777 297.373 86.9541C298.891 86.9541 299.769 86.3418 299.769 85.4999C299.769 84.2752 298.332 84.1221 296.495 83.5863C294.419 82.974 291.943 81.8258 291.943 79.1466C291.943 76.6207 294.259 74.8602 297.613 74.8602C299.689 74.7836 301.765 75.5491 303.283 77.0035V77.2332L301.526 79.1466H301.286C300.328 78.2281 299.05 77.6158 297.693 77.5392C296.495 77.5392 295.697 77.9985 295.697 78.8406C295.697 79.7591 296.814 80.1418 298.092 80.601C300.647 81.3665 303.602 82.1319 303.602 85.3467C303.602 88.1789 300.967 89.7097 297.693 89.7097C295.217 89.9394 292.902 89.0208 291.225 87.2604Z" fill="white"/>
<path d="M313.665 89.6333H310.071V78.0751H305.36V75.2429H318.456V78.0751H313.665V89.6333Z" fill="white"/>
<path d="M336.022 16.1509L355.347 9.18535V8.19022L350.236 0.153076H349.198L332.109 10.1805V11.1754L334.984 16.1509H336.022Z" fill="white"/>
<path d="M333.947 89.327L333.787 89.6332H330.114L328.996 87.1073H322.608L321.49 89.6332H317.976L317.816 89.327L324.764 75.1664H327L333.947 89.327ZM328.038 84.6577L325.961 79.759L323.805 84.6577H328.038Z" fill="white"/>
<path d="M351.115 82.3615C351.115 86.7246 348.081 89.5567 343.209 89.5567H336.662V75.2429H343.209C348.081 75.2429 351.115 78.0751 351.115 82.3615ZM347.442 82.3615C347.442 79.6059 345.685 77.9985 343.13 77.9985H340.255V86.7246H343.13C345.765 86.7246 347.522 85.1171 347.442 82.3615Z" fill="white"/>
<path d="M353.75 82.438C353.75 78.1516 357.343 74.9368 361.975 74.9368C366.607 74.9368 370.2 78.1516 370.2 82.438C370.2 86.7245 366.607 89.9393 361.975 89.9393C357.343 89.9393 353.75 86.7245 353.75 82.438ZM366.527 82.438C366.527 79.9887 364.53 78.075 361.975 78.075C359.42 78.075 357.423 79.9887 357.423 82.438C357.423 84.8874 359.42 86.8011 361.975 86.8011C364.45 86.8777 366.447 85.0406 366.527 82.6677V82.438Z" fill="white"/>
<path d="M79.3743 46.4624C79.9331 42.0228 83.2072 38.961 87.0402 36.5882L87.7589 36.2054L74.9024 20.667L74.6628 20.5904C73.1457 20.2843 71.6284 20.0547 70.1112 19.8251C65.4798 19.2126 62.126 18.8299 59.2512 18.5237L56.8556 18.3707H56.7757L56.057 18.2941H55.7376C53.9809 18.2176 52.2241 18.141 50.4672 18.0644H49.3494C42.8812 17.9114 37.2117 18.141 33.1392 18.3707C31.7018 18.4473 22.6783 19.2892 20.9216 19.5188H20.6821C18.6058 19.8251 14.3736 20.4374 12.8563 20.667L0 36.2054L0.71868 36.5882C4.55164 38.8846 7.82556 42.0228 8.3846 46.4624C8.94364 50.9019 6.3882 55.9538 4.63156 59.9342C2.31568 65.2923 0.159643 70.5739 0.159643 76.4677C0.159643 77.6925 0.399203 78.9937 0.71868 80.2184C1.9964 84.1222 5.11068 87.2604 8.46452 89.7864C12.4571 92.6186 16.6893 95.1446 21.1612 97.2877C25.7128 99.584 30.3442 101.804 34.7362 104.33C37.6908 106.014 41.5238 108.54 43.1208 111.525L43.7596 112.75L44.3985 111.525C45.9955 108.54 49.9084 106.09 52.7831 104.33C57.1749 101.804 61.8065 99.584 66.3581 97.2877C70.8299 95.1446 75.0622 92.6186 79.0548 89.7864C82.4086 87.2604 85.5229 84.1222 86.8006 80.2184C87.1998 78.9937 87.3595 77.7689 87.3595 76.4677C87.3595 70.5739 85.2035 65.2923 82.8878 59.9342C81.2908 55.9538 78.8152 50.9019 79.3743 46.4624Z" fill="white"/>
<path fill-rule="evenodd" clip-rule="evenodd" d="M59.4111 2.9852L62.0463 3.36786V1.83704L59.4111 2.9852Z" fill="#EAD7B1"/>
<path fill-rule="evenodd" clip-rule="evenodd" d="M36.4131 0.995117V2.44933L37.9304 2.29631L36.4131 0.995117Z" fill="#EAD7B1"/>
<path fill-rule="evenodd" clip-rule="evenodd" d="M49.7485 2.29637L51.1859 2.37298V0.918579L49.7485 2.29637Z" fill="#EAD7B1"/>
<mask id="mask0_313_3" style="mask-type:luminance" maskUnits="userSpaceOnUse" x="19" y="0" width="50" height="8">
<path d="M40.965 0.229614C40.8053 0.229614 40.6455 0.382641 40.6455 0.535852V2.52594C39.0485 2.52594 37.4515 2.60255 35.8543 2.67897V0.688879C35.8543 0.612274 35.8543 0.535852 35.7746 0.459247C35.6947 0.382641 35.6147 0.382641 35.535 0.382641C33.7782 0.459247 31.9416 0.612274 30.1049 0.765485C29.9452 0.765485 29.8653 0.918512 29.8653 1.07154V3.06181C28.2683 3.21484 26.8309 3.36786 25.2339 3.5975V1.68402C25.2339 1.60741 25.2339 1.5308 25.154 1.45438C25.0741 1.37778 24.9944 1.37778 24.9145 1.37778C23.7167 1.5308 22.5189 1.83704 21.3211 2.06667C20.6024 2.2197 19.9636 2.37291 19.2449 2.44933C19.0851 2.44933 19.0054 2.60255 19.0054 2.75557V4.97529L19.8837 6.58272C19.9636 6.65933 20.0433 6.73593 20.1233 6.73593H20.2829C27.7892 5.58777 35.3752 4.97529 42.9614 4.89887C50.6273 4.89887 58.1334 5.7408 67.077 7.11859H67.1569C67.2367 7.11859 67.3166 7.11859 67.3166 7.04199C67.3965 6.96556 67.3965 6.88896 67.3965 6.81235V6.58272L68.1152 5.28153L68.2748 4.97529V2.75557C68.2748 2.60255 68.1949 2.52594 68.0353 2.44933L67.2367 2.29631C65.7196 1.99007 64.1224 1.68402 62.6053 1.45438C62.5254 1.45438 62.4455 1.45438 62.3657 1.5308C62.2858 1.5308 62.2858 1.60741 62.2059 1.68402V3.52108C60.9284 3.36786 59.7306 3.21484 58.5328 3.13823L57.5745 3.06181V1.14814C57.5745 0.995117 57.4946 0.918512 57.335 0.841907C55.5781 0.688879 53.7416 0.535852 51.9048 0.459247C51.8251 0.459247 51.7452 0.459247 51.6653 0.535852C51.5855 0.612274 51.5855 0.688879 51.5855 0.765485V2.67897C49.9883 2.60255 48.3913 2.60255 46.7943 2.52594V0.535852C46.7943 0.382641 46.6345 0.229614 46.4749 0.229614H40.965Z" fill="white"/>
</mask>
<g mask="url(#mask0_313_3)">
<path d="M68.4347 0.229614H19.0054V7.11859H68.4347V0.229614Z" fill="url(#paint0_linear_313_3)"/>
</g>
<mask id="mask1_313_3" style="mask-type:luminance" maskUnits="userSpaceOnUse" x="19" y="5" width="49" height="5">
<path d="M19.9634 7.04197L22.1194 9.03224C29.2263 7.9605 36.3332 7.34821 43.52 7.2716C50.8666 7.42481 58.293 7.9605 65.5595 9.03224L66.9969 7.73087L67.3963 7.04197C59.89 5.66417 52.2241 5.05188 44.5581 5.05188C36.2535 5.12849 28.1084 5.81738 19.9634 7.04197Z" fill="white"/>
</mask>
<g mask="url(#mask1_313_3)">
<path d="M67.3963 5.12854H19.9634V9.1089H67.3963V5.12854Z" fill="url(#paint1_linear_313_3)"/>
</g>
<mask id="mask2_313_3" style="mask-type:luminance" maskUnits="userSpaceOnUse" x="18" y="7" width="51" height="14">
<path d="M23.8761 8.95568L18.9253 20.2077C18.9253 20.2077 31.2228 18.8299 44.4783 18.5236C52.7033 18.3706 60.7684 18.9829 68.8337 20.2843C68.7538 20.2077 63.6431 8.87907 63.6431 8.87907C63.6431 8.87907 54.8593 7.80751 44.3986 7.57788H42.1626C36.0937 7.65449 30.025 8.11375 23.8761 8.95568Z" fill="white"/>
</mask>
<g mask="url(#mask2_313_3)">
<path d="M68.8339 7.57788H19.0054V20.3607H68.8339V7.57788Z" fill="url(#paint2_linear_313_3)"/>
</g>
<path fill-rule="evenodd" clip-rule="evenodd" d="M47.1935 18.3706L39.7671 18.4472C39.847 17.0694 39.9267 15.7681 40.2462 14.4669C40.5657 13.4717 41.2044 12.5532 42.0828 11.9409C42.8814 11.405 43.8396 11.3286 44.7979 11.5582C45.6762 11.8643 46.4748 12.4768 46.874 13.2421C47.433 14.1606 47.7525 15.1558 47.8322 16.1509C47.9121 16.9162 47.9121 17.6817 47.8322 18.4472L47.1935 18.3706Z" fill="#EAD7B1"/>
<path fill-rule="evenodd" clip-rule="evenodd" d="M54.8591 9.56801C53.6613 9.64461 52.6231 10.3335 52.7031 11.252C52.783 12.1706 53.3418 16.457 53.3418 16.457L58.133 16.7632L57.2547 10.8694C57.2547 10.8694 56.0569 9.49159 54.8591 9.56801Z" fill="#EAD7B1"/>
<mask id="mask3_313_3" style="mask-type:luminance" maskUnits="userSpaceOnUse" x="4" y="22" width="80" height="84">
<path d="M14.9324 24.341L5.82913 35.2103C9.26269 37.9659 11.8181 41.4104 12.377 45.9265C13.0159 51.2846 10.5404 56.6426 8.46429 61.4649C6.38797 66.2872 4.23193 71.2627 4.23193 76.5442C4.23193 77.3861 4.39177 78.2281 4.63133 79.0702C6.70745 85.4999 17.1682 90.7814 22.9975 93.7667C27.6291 96.1394 32.4203 98.3593 36.892 100.962C39.3675 102.263 41.6832 103.87 43.7593 105.631C45.7557 103.87 47.9917 102.263 50.3873 100.962C54.859 98.3593 59.6502 96.1394 64.2818 93.7667C70.5103 90.6282 83.1271 84.4281 83.1271 76.5442C83.1271 71.2627 81.051 66.3638 78.9747 61.5415C76.8985 56.7192 74.423 51.2846 74.9821 45.9265C75.5411 41.4104 78.0963 38.119 81.5301 35.3634L72.4268 24.341C63.2436 22.8102 53.9807 22.0447 44.6379 22.0447C34.736 22.0447 24.7544 22.8102 14.9324 24.341Z" fill="white"/>
</mask>
<g mask="url(#mask3_313_3)">
<path d="M83.0472 21.968H4.23193V105.631H83.0472V21.968Z" fill="url(#paint3_radial_313_3)"/>
</g>
<path fill-rule="evenodd" clip-rule="evenodd" d="M16.6097 38.9609L15.8111 41.2573H13.4155L15.4119 42.7117L14.6133 45.008L16.6097 43.5536L18.5262 45.008L17.8075 42.7117L19.8037 41.2573H17.3284L16.6097 38.9609Z" fill="white"/>
<path fill-rule="evenodd" clip-rule="evenodd" d="M14.5334 54.5759L13.8147 56.8723H11.3394L13.3356 58.3267L12.6169 60.623L14.5334 59.1686L16.5298 60.623L15.7312 58.3267L17.7276 56.8723H15.252L14.5334 54.5759Z" fill="white"/>
<path fill-rule="evenodd" clip-rule="evenodd" d="M11.8981 68.5835L11.1794 70.8798H8.7041L10.7003 72.3342L9.9019 74.6305L11.8981 73.1761L13.8945 74.6305L13.0959 72.3342L15.0923 70.8798H12.6168L11.8981 68.5835Z" fill="white"/>
<path fill-rule="evenodd" clip-rule="evenodd" d="M43.5202 93.0012L42.8015 95.2975L40.3262 95.2209L42.3224 96.6753L41.6037 98.9717L43.5202 97.5173L45.5166 98.9717L44.718 96.6753L46.7144 95.2209L44.3188 95.2975L43.5202 93.0012Z" fill="white"/>
<path fill-rule="evenodd" clip-rule="evenodd" d="M58.2132 87.2604L57.4146 89.5567H55.019L57.0154 91.0111L56.2168 93.3074L58.2132 91.853L60.1297 93.3074L59.411 91.0111L61.3275 89.5567H58.9319L58.2132 87.2604Z" fill="white"/>
<path fill-rule="evenodd" clip-rule="evenodd" d="M28.7474 87.2604L29.4661 89.5567H31.9416L29.9452 91.0111L30.7438 93.3074L28.7474 91.853L26.751 93.3074L27.5496 91.0111L25.5532 89.5567H27.9488L28.7474 87.2604Z" fill="white"/>
<path fill-rule="evenodd" clip-rule="evenodd" d="M17.0887 79.8356L17.8074 82.1319H20.2827L18.2865 83.5097L19.0849 85.806L17.0887 84.4282L15.0923 85.806L15.8909 83.5097L13.8945 82.1319H16.37L17.0887 79.8356Z" fill="white"/>
<mask id="mask4_313_3" style="mask-type:luminance" maskUnits="userSpaceOnUse" x="19" y="30" width="49" height="31">
<path d="M19.8834 60.2404H67.5558C67.8753 45.6969 59.8899 30.6942 43.6798 30.6942C27.4694 30.6942 19.4842 45.6969 19.8834 60.2404Z" fill="white"/>
</mask>
<g mask="url(#mask4_313_3)">
<path d="M67.8755 30.6942H19.4844V60.2402H67.8755V30.6942Z" fill="url(#paint4_radial_313_3)"/>
</g>
<path fill-rule="evenodd" clip-rule="evenodd" d="M19.8836 58.7859H33.299V59.3218H19.8037V59.2452L19.8836 58.7859Z" fill="#CAA52E"/>
<path fill-rule="evenodd" clip-rule="evenodd" d="M19.9634 56.26L33.2988 58.786L33.1392 59.3218L19.9634 56.7959V56.26Z" fill="#CAA52E"/>
<path fill-rule="evenodd" clip-rule="evenodd" d="M20.2829 53.6575L33.3789 58.786L33.1394 59.3219L20.2031 54.2699C20.2031 54.0403 20.2031 53.8107 20.2829 53.6575Z" fill="#CAA52E"/>
<path fill-rule="evenodd" clip-rule="evenodd" d="M20.7619 50.8254L33.3788 58.786L33.0593 59.2452L20.6821 51.4377C20.6821 51.2081 20.7619 51.0551 20.7619 50.8254Z" fill="#CAA52E"/>
<path fill-rule="evenodd" clip-rule="evenodd" d="M21.6403 47.7635L33.4585 58.8625L33.0593 59.2452L21.4805 48.3758L21.6403 47.7635Z" fill="#CAA52E"/>
<path fill-rule="evenodd" clip-rule="evenodd" d="M23.0778 44.2424L33.5385 58.9389L33.0594 59.2452L22.7583 44.8549L23.0778 44.2424Z" fill="#CAA52E"/>
<path fill-rule="evenodd" clip-rule="evenodd" d="M25.3133 40.3387L33.5382 58.939L32.9792 59.1686L24.9141 40.8746C25.0737 40.7216 25.1536 40.5684 25.3133 40.3387Z" fill="#CAA52E"/>
<path fill-rule="evenodd" clip-rule="evenodd" d="M28.6671 36.4349L33.5382 59.0155L32.9792 59.0921L28.188 36.8178C28.3478 36.7412 28.5075 36.5881 28.6671 36.4349Z" fill="#CAA52E"/>
<path fill-rule="evenodd" clip-rule="evenodd" d="M33.4583 33.0671L33.5382 59.0922H32.9791L32.8994 33.3734L33.4583 33.0671Z" fill="#CAA52E"/>
<path fill-rule="evenodd" clip-rule="evenodd" d="M39.288 31.077L33.5385 59.1686L32.9795 59.0922L38.7289 31.2301L39.288 31.077Z" fill="#CAA52E"/>
<path fill-rule="evenodd" clip-rule="evenodd" d="M45.7561 30.7708L33.5385 59.2452L32.9795 59.0156L45.1971 30.7708H45.7561Z" fill="#CAA52E"/>
<path fill-rule="evenodd" clip-rule="evenodd" d="M52.3041 32.3016L33.4586 59.2452L32.9795 58.939L51.7451 32.1486L52.3041 32.3016Z" fill="#CAA52E"/>
<path fill-rule="evenodd" clip-rule="evenodd" d="M57.9737 35.8227L33.3789 59.3219L32.9795 58.939L57.5744 35.4401C57.7341 35.5931 57.814 35.6697 57.9737 35.8227Z" fill="#CAA52E"/>
<path fill-rule="evenodd" clip-rule="evenodd" d="M62.3653 40.798L33.3786 59.3218L33.0591 58.8626L62.1258 40.2623C62.2055 40.492 62.2854 40.645 62.3653 40.798Z" fill="#CAA52E"/>
<path fill-rule="evenodd" clip-rule="evenodd" d="M65.24 46.6155L33.2986 59.3983L33.0591 58.8626L65.0802 46.0796C65.1601 46.2328 65.24 46.4624 65.24 46.6155Z" fill="#CAA52E"/>
<path fill-rule="evenodd" clip-rule="evenodd" d="M66.9968 52.8155L33.2988 59.3983L33.1392 58.8626L66.9171 52.2797L66.9968 52.8155Z" fill="#CAA52E"/>
<path fill-rule="evenodd" clip-rule="evenodd" d="M67.476 59.0921L33.1392 59.3218V58.7859L67.476 58.5563V59.0921Z" fill="#CAA52E"/>
<path fill-rule="evenodd" clip-rule="evenodd" d="M33.2189 50.8254C38.0101 50.8254 42.0029 54.4996 42.0029 59.0922H24.4351C24.515 54.4996 28.4277 50.8254 33.2189 50.8254Z" fill="#CAA52E"/>
<path fill-rule="evenodd" clip-rule="evenodd" d="M33.2189 51.5142C37.6109 51.4376 41.2043 54.7291 41.2842 58.9389H25.1538C25.3135 54.7291 28.9069 51.4376 33.2189 51.5142Z" fill="#FACB13"/>
<mask id="mask5_313_3" style="mask-type:luminance" maskUnits="userSpaceOnUse" x="19" y="59" width="45" height="29">
<path d="M19.8037 59.3218C19.8037 60.3933 19.8836 61.4649 19.9635 62.5366C25.4734 62.6897 32.5803 62.3834 32.74 63.3786C32.74 63.5316 33.0594 63.4552 33.299 63.3786C33.5386 63.302 33.7781 63.2255 33.6185 63.3786C31.063 66.0576 34.2572 70.7268 37.3715 73.0997C47.2734 80.448 43.68 84.6578 35.6147 86.2652C38.1701 87.1838 40.885 87.643 43.6001 87.5666C52.7833 87.5666 59.2514 82.8207 63.1641 76.1614C57.255 73.8651 47.1935 72.7169 44.7979 67.665C43.9993 65.9811 48.7905 62.8427 49.5092 61.4649C50.9465 58.8625 41.6037 59.3982 41.9232 59.2452L19.9635 59.1686C20.1232 59.1686 20.0433 59.2452 19.8037 59.3218Z" fill="white"/>
</mask>
<g mask="url(#mask5_313_3)">
<path d="M63.2442 58.8625H19.8838V87.5666H63.2442V58.8625Z" fill="url(#paint5_linear_313_3)"/>
</g>
<mask id="mask6_313_3" style="mask-type:luminance" maskUnits="userSpaceOnUse" x="19" y="58" width="26" height="30">
<path d="M19.8038 59.1686V59.0156C18.606 65.2923 21.401 75.0133 27.3101 81.0603C32.1812 86.0356 39.0485 88.1789 41.8433 87.7963H42.4023C42.7218 87.7963 42.9614 87.8727 43.0411 87.643C49.1899 76.6207 26.9109 64.2205 42.7218 59.3218C43.8397 59.0156 41.8433 58.8625 38.5694 58.8625C33.1394 58.8625 24.1159 59.1686 19.8038 59.1686Z" fill="white"/>
</mask>
<g mask="url(#mask6_313_3)">
<path d="M49.2696 58.8625H18.606V88.1789H49.2696V58.8625Z" fill="url(#paint6_linear_313_3)"/>
</g>
<mask id="mask7_313_3" style="mask-type:luminance" maskUnits="userSpaceOnUse" x="43" y="45" width="25" height="15">
<path d="M64.6014 46.0031C59.0118 46.0795 59.491 52.3562 55.5781 52.7389C54.6198 52.8155 52.3839 52.1266 50.7869 51.8204C48.6308 51.5143 44.3987 56.413 43.4404 59.0156H67.4762C67.4762 54.5759 66.6777 50.1365 65.0008 45.9265C64.9209 46.0031 64.7613 46.0031 64.6014 46.0031Z" fill="white"/>
</mask>
<g mask="url(#mask7_313_3)">
<path d="M67.4764 46.0032H43.4404V59.0922H67.4764V46.0032Z" fill="url(#paint7_linear_313_3)"/>
</g>
<path fill-rule="evenodd" clip-rule="evenodd" d="M29.7055 75.4725C26.5113 69.2724 28.1882 65.5219 32.5802 63.1489C30.5838 66.5168 33.5384 69.4256 37.6909 72.5639C34.8959 73.0231 32.181 73.9417 29.7854 75.3961L29.7055 75.4725Z" fill="white"/>
<mask id="mask8_313_3" style="mask-type:luminance" maskUnits="userSpaceOnUse" x="41" y="59" width="27" height="20">
<path d="M45.1172 71.875C49.0299 75.7788 56.2167 76.3147 61.487 78.917C65.4798 73.7121 67.476 66.6701 67.5559 59.7045V59.4749L43.5999 59.2452C41.364 62.4601 40.1662 66.8997 45.1172 71.875Z" fill="white"/>
</mask>
<g mask="url(#mask8_313_3)">
<path d="M67.4759 59.1686H40.166V78.917H67.4759V59.1686Z" fill="url(#paint8_linear_313_3)"/>
</g>
<mask id="mask9_313_3" style="mask-type:luminance" maskUnits="userSpaceOnUse" x="54" y="52" width="14" height="7">
<path d="M62.2058 52.9685C60.2096 53.1981 58.7723 56.3366 54.8594 58.7093H67.5561C67.5561 57.0255 67.3964 55.3414 67.1569 53.734C65.9591 53.581 64.0426 53.1217 62.6849 52.9685H62.2058Z" fill="white"/>
</mask>
<g mask="url(#mask9_313_3)">
<path d="M67.5561 52.9685H54.8594V58.7093H67.5561V52.9685Z" fill="url(#paint9_linear_313_3)"/>
</g>
<path d="M34.7362 43.7832H31.542V45.3906H34.7362V43.7832Z" fill="#FACB13"/>
<path fill-rule="evenodd" clip-rule="evenodd" d="M44.7177 40.3387C46.794 40.1857 48.8701 40.4153 50.7866 41.0276C52.3039 41.5635 52.8627 41.5635 54.3001 42.7883L52.224 44.0895C50.0679 41.7931 47.4328 41.4105 44.7177 40.645C43.5199 40.2623 43.5199 40.3387 44.7177 40.3387Z" fill="white"/>
<path fill-rule="evenodd" clip-rule="evenodd" d="M53.3418 42.7117C55.0187 42.8647 57.0151 41.5636 57.8137 41.4105C58.133 41.3339 58.6121 41.8698 58.3726 42.0228C57.9734 42.2525 57.4942 42.4821 57.0151 42.6351C57.4942 42.4055 57.9734 42.1758 58.5324 42.0228C58.9316 42.0994 59.1712 42.7117 59.0115 42.8647C59.0115 42.8647 57.6539 43.171 57.2547 43.4006C57.8137 43.171 58.3726 43.018 59.0115 42.8647C59.2511 42.8647 59.4906 43.5536 59.1712 43.7069C58.2129 44.3191 57.0151 44.3191 56.0569 44.7018C56.4561 46.0796 57.4143 47.7636 57.3346 49.218C57.2547 51.5144 55.977 53.6575 55.5778 55.8008C55.4181 56.6427 55.4978 56.8723 55.3382 55.8774C54.8591 53.1218 54.6195 48.1463 53.2621 46.3092C52.783 45.9266 52.2239 45.6969 51.5852 45.4673C51.0261 45.3143 50.547 45.2377 49.988 45.2377C49.5888 45.3143 48.7104 45.5439 48.311 45.6203C48.4709 44.9314 48.95 43.0944 50.3074 43.2476L53.3418 42.7117Z" fill="white"/>
<path fill-rule="evenodd" clip-rule="evenodd" d="M53.9809 67.0527L53.901 67.8182L54.9392 68.5071V67.665L53.9809 67.0527ZM53.5815 80.0652V80.8307L53.6615 80.9073H54.6996L53.5815 80.0652ZM53.5815 78.611V79.3763L55.3384 80.6777V79.9122L53.5815 78.611ZM53.6615 77.1566V77.9221L55.4183 79.1467V78.3813L53.6615 77.1566ZM53.6615 75.7022L53.5815 76.4677L55.1787 77.6158V76.7739L53.6615 75.7022ZM53.7414 74.2479V75.0133L55.2585 76.085V75.3195L53.7414 74.2479ZM53.8211 72.7935V73.5591L55.2585 74.554V73.7121L53.8211 72.7935ZM53.8211 71.3391V72.1047L55.0988 73.0232V72.1813L53.8211 71.3391ZM53.901 69.8849L53.8211 70.6503L55.0189 71.4924V70.6503L53.901 69.8849ZM53.9809 68.4305L53.901 69.196L55.0189 69.9614L54.9392 69.1194L53.9809 68.4305Z" fill="#AB9276"/>
<mask id="mask10_313_3" style="mask-type:luminance" maskUnits="userSpaceOnUse" x="29" y="48" width="8" height="11">
<path d="M29.7056 48.6055V58.7859H36.8124L36.7327 48.6055H29.7056Z" fill="white"/>
</mask>
<g mask="url(#mask10_313_3)">
<path d="M36.7327 48.6055H29.7056V58.7859H36.7327V48.6055Z" fill="url(#paint10_linear_313_3)"/>
</g>
<mask id="mask11_313_3" style="mask-type:luminance" maskUnits="userSpaceOnUse" x="31" y="41" width="5" height="8">
<path d="M33.2191 41.0276C32.8199 41.0276 32.5803 41.5634 32.2608 41.9461C32.0213 42.1757 31.8616 42.4054 31.6221 42.635V46.7684L31.7817 46.998L31.702 48.4524H34.7364L34.6564 46.9216L35.2954 46.7684L35.2155 45.3142L35.1356 42.9412C34.7363 42.5586 34.4169 42.1757 34.0976 41.7931C33.6982 41.4104 33.858 40.9512 33.2191 41.0276Z" fill="white"/>
</mask>
<g mask="url(#mask11_313_3)">
<path d="M35.1354 40.9512H31.542V48.376H35.1354V40.9512Z" fill="url(#paint11_linear_313_3)"/>
</g>
<path d="M34.5764 43.8599H31.7017V45.1611H34.5764V43.8599Z" fill="#FACB13"/>
<path fill-rule="evenodd" clip-rule="evenodd" d="M32.3408 9.49158C33.5386 9.568 34.5768 10.2569 34.4969 11.1754C34.4169 12.094 33.8581 16.3806 33.8581 16.3806L29.0669 16.6866L29.9452 10.7928C29.9452 10.8694 31.143 9.49158 32.3408 9.49158Z" fill="#EAD7B1"/>
<path d="M31.1427 11.405C30.9831 13.0124 30.7435 14.0076 30.6636 15.615C31.4622 15.5384 32.1009 15.5384 32.7397 15.462C32.8995 13.931 33.1391 12.7828 33.2987 11.252C32.8995 10.4101 31.7815 10.4865 31.1427 11.405Z" fill="#6E4E32"/>
<path d="M56.6161 15.615C56.4563 14.0842 56.2966 12.9361 56.137 11.4051C55.498 10.4865 54.3802 10.3335 53.981 11.252C54.1406 12.7829 54.3002 13.931 54.5398 15.462C55.1788 15.5384 55.7376 15.615 56.6161 15.615Z" fill="#6E4E32"/>
<path d="M46.7942 18.2176V17.6051C46.6344 15.615 46.4747 12.4001 43.8396 12.4001C41.2044 12.4001 41.1245 15.6916 40.9648 17.6817V18.141L46.7942 18.2176Z" fill="#6E4E32"/>
<path d="M43.8395 11.6347C47.2732 11.6347 47.353 15.5384 47.5925 17.9879V18.2176H48.2315V18.0644C48.1516 17.3755 48.0717 16.6866 47.9919 15.9977H49.5889L49.8285 18.0644L49.9084 18.2176H50.5472V18.0644L50.3076 15.9977L53.1024 16.0743L53.1823 16.9162L54.46 16.9928C55.1787 17.0694 55.8974 17.0694 56.5362 17.1458L58.4527 17.299L58.3727 16.3805C59.5705 16.4569 60.7683 16.5335 61.9661 16.6866L62.5252 18.9065L62.6051 19.2891H63.2439L63.1639 18.7533L62.6848 16.8398L67.0768 17.3755L68.0351 19.4422L68.115 19.6718L68.1947 19.825L68.9933 19.9014V19.7484L64.2021 9.26191L65.879 9.49154L67.6358 8.03714L68.9134 5.35816C69.0732 4.36302 69.0732 3.29146 68.9933 2.29633C68.0351 2.1433 62.5252 1.07156 62.0461 1.07156L57.9735 2.8322V0.612292L51.1062 0.0766054L48.7106 2.21972H47.1933V0H40.326V2.21972L38.8886 2.29633L36.493 0.153027L29.5458 0.688898V2.8322L25.6329 1.14816C25.1538 1.07156 19.7238 2.1433 18.7656 2.29633C18.7656 2.90862 18.6058 4.89889 18.8453 5.35816C20.4425 8.49641 19.2447 7.34824 22.1194 9.33833L23.4769 9.1853L18.7656 19.7484V19.978L19.4843 19.9014L19.564 19.7484L20.6821 17.299L25.0739 16.7632L24.4351 19.0595V19.5954H24.9942L25.2337 18.5236L25.7128 16.7632C26.8307 16.6866 27.8689 16.5335 28.9868 16.4569L28.9069 17.299L30.7436 17.1458C31.4623 17.0694 32.181 17.0694 32.8197 16.9928L34.0175 16.8398L34.0974 16.0743C35.1354 15.9977 36.2535 15.9977 37.2915 15.9213L37.1318 17.6051L37.0519 18.3706H37.6908V18.0644L37.9304 15.9213L39.5274 15.8446L39.6073 15.2324L34.337 15.5384L34.6563 13.3953L40.4857 13.1657C39.9266 14.6199 39.6073 16.1509 39.5274 17.7583L39.3678 18.3706H40.0065V18.0644C40.326 15.615 40.4857 11.6347 43.8395 11.6347ZM52.9428 10.0272C49.9881 9.8742 47.1134 9.7976 44.159 9.7976V7.65448C47.5128 7.65448 50.8666 7.80751 54.2205 8.03714L54.3801 9.1853L54.1406 9.26191C53.7414 9.33833 53.2622 9.64457 52.9428 10.0272ZM52.3837 11.4816C52.4637 11.9409 52.4637 12.3236 52.5436 12.7064L49.8285 12.6298L49.6688 10.4101C50.6271 10.4101 51.5853 10.4865 52.5436 10.5631L52.4637 10.7161L52.304 11.099L52.3837 11.4816ZM56.5362 16.3805C55.8175 16.3039 55.0988 16.3039 54.46 16.2273L53.8211 16.1509L53.7414 15.5384C53.5815 14.1606 53.342 12.7064 53.1823 11.3286V11.099L53.2622 10.9458C53.5018 10.4865 53.901 10.1038 54.46 9.95081C55.4183 9.7976 56.3765 10.1804 56.7757 11.0224L56.8556 11.1754V11.3286C57.0153 12.7064 57.2549 14.1606 57.3348 15.5384L57.4145 16.4569L56.5362 16.3805ZM57.6541 11.3286L57.5743 11.0224C58.5326 11.099 59.4908 11.1754 60.3691 11.3286L60.9282 13.4717C59.89 13.3953 58.8519 13.3187 57.8139 13.1657C57.8139 12.4768 57.734 11.9409 57.6541 11.3286ZM66.7573 16.6102H66.6776C63.8826 16.2273 61.0878 15.9977 58.293 15.768V15.5384C58.2131 14.9261 58.1332 14.3138 58.0534 13.7014C60.6087 13.931 63.2439 14.1606 65.7991 14.5435L66.7573 16.6102ZM65.4798 13.931H65.3999L61.7266 13.4717L61.1677 11.3286L64.5216 11.7113L65.4798 13.931ZM64.2021 11.099H64.1222L57.2549 10.4101C56.6958 9.7976 55.9771 9.33833 55.0988 9.26191L54.8593 8.11375C57.6541 8.34338 60.4491 8.64943 63.1639 9.03228L64.2021 11.099ZM61.9661 1.91367V3.29146C61.1677 3.21486 60.2892 3.06183 59.4908 2.90862L61.9661 1.91367ZM51.1859 0.995136V2.29633H49.7486L51.1859 0.995136ZM36.493 0.995136L37.9304 2.29633L36.493 2.37293V0.995136ZM25.6329 1.99009L28.1882 3.06183L25.6329 3.36788V1.99009ZM20.3626 6.65935C19.2447 4.59265 19.4843 5.35816 19.4843 2.90862C21.3208 2.60256 23.0777 2.29633 24.9142 1.99009V4.13339C26.7508 3.90375 28.5076 3.67412 30.3442 3.52109V1.30119C32.181 1.14816 33.9376 0.995136 35.7744 0.91853V3.13825C37.531 3.06183 39.2878 2.98522 41.1244 2.90862V0.688898H46.5546V2.90862C48.3911 2.90862 50.148 2.98522 51.9845 3.06183V0.841925C53.8211 0.91853 55.5779 1.07156 57.4145 1.22477V3.44449C59.1713 3.59752 61.0079 3.82715 62.8446 4.05678V1.99009C64.6013 2.29633 66.438 2.60256 68.2746 2.90862C68.2746 5.43458 68.5142 4.51605 67.3164 6.73595C59.2513 5.43458 51.1859 4.82228 43.1208 4.82228C35.5348 4.89889 27.9486 5.51118 20.3626 6.65935ZM22.359 8.57301C21.6403 8.11375 21.2409 7.80751 20.6022 7.27164C35.934 4.89889 51.6651 4.89889 67.0768 7.42485L65.5595 8.72604L57.6541 7.65448C45.8359 6.50632 34.0175 6.81237 22.359 8.57301ZM24.2755 9.1087C27.0703 8.72604 29.945 8.4198 32.7398 8.19017L32.5003 9.1853C31.4623 9.1853 30.5838 9.64457 29.945 10.4101L23.3172 11.099L24.2755 9.1087ZM23.0777 11.7113L26.4315 11.3286L25.8725 13.5483L22.0395 14.0076L23.0777 11.7113ZM29.0667 15.5384V15.8446C26.3516 16.0743 23.6365 16.3039 20.9216 16.6866L21.8799 14.5435C24.3552 14.2372 26.8307 13.931 29.3062 13.778C29.1464 14.3902 29.0667 15.0027 29.0667 15.5384ZM29.5458 11.3286C29.4659 11.9409 29.386 12.5532 29.3062 13.1657L26.5113 13.3953L27.1502 11.1754C27.9486 11.099 28.7472 11.0224 29.5458 10.9458V11.3286ZM34.0974 11.405C33.9376 12.8594 33.6981 14.2372 33.5384 15.615L33.4585 16.2273L32.7398 16.3039C32.0211 16.3805 31.3025 16.3805 30.6637 16.4569L29.7054 16.5335L29.7854 15.615C29.945 14.2372 30.1846 12.7828 30.2645 11.405V11.252L30.3442 11.099C30.8233 10.2569 31.7816 9.8742 32.7398 10.0272C33.2189 10.1804 33.6981 10.4865 33.9376 10.9458L34.0175 11.099L34.0974 11.405ZM34.2571 10.0272C33.9376 9.64457 33.5384 9.41494 33.1392 9.26191L33.3788 8.03714C36.7326 7.80751 40.1662 7.65448 43.52 7.65448V9.72117C40.4856 9.72117 37.3714 9.7976 34.2571 10.0272ZM37.6908 12.7064C36.6527 12.7064 35.6944 12.7828 34.6563 12.8594C34.7362 12.4002 34.8161 11.9409 34.8161 11.5582L34.8959 11.1754L34.7362 10.7161L34.6563 10.6397C35.6944 10.5631 36.8123 10.5631 37.8505 10.4865L37.6908 12.7064ZM38.3296 12.7064L38.4893 10.4865C42.0029 10.4101 45.5164 10.3335 49.0299 10.4865L49.2695 12.6298L46.8739 12.5532C47.0337 12.7064 47.1134 12.936 47.1933 13.1657L52.6233 13.3953L52.9428 15.5384L47.912 15.3088V15.5384C47.5128 13.2421 46.6343 11.0224 43.7596 11.0224C42.5618 10.9458 41.364 11.5582 40.7252 12.5532L38.3296 12.7064Z" fill="#6E4E32"/>
<path d="M34.1774 52.2032H32.5005V53.7341H34.1774V52.2032Z" fill="#405965"/>
<path d="M36.4929 76.3146C36.7324 76.1614 36.8121 75.8553 36.6525 75.6257C36.6525 75.5491 36.5726 75.5491 36.4929 75.4725H35.1352V74.7071C35.1352 74.5539 34.9756 74.4009 34.8159 74.4009H34.0973C33.9374 74.4009 33.7778 74.5539 33.7778 74.7071V75.4725H30.6635C32.8195 74.3243 35.2151 73.4824 37.6107 73.0997L38.8885 72.8701L37.8503 72.1046C36.0137 70.7268 32.6599 68.2774 32.4203 65.8279C32.3404 65.0626 32.58 64.2971 32.9792 63.6082L34.0973 61.7711L32.1009 62.7663C26.591 65.6749 26.5111 70.5738 29.0665 75.4725H28.2679V75.0132H27.2297V75.4725H26.0319C25.7127 75.7021 25.7127 76.0083 26.0319 76.3146C29.4657 76.9269 32.9792 76.9269 36.4929 76.3146ZM32.4203 63.3019C30.4239 66.67 33.2987 69.4256 37.5308 72.5639C34.736 73.0231 32.1009 73.9416 29.7852 75.396C26.7506 69.5786 28.0283 65.5983 32.4203 63.3019Z" fill="#405965"/>
<path d="M50.3873 43.9364C50.2275 43.9364 50.0679 44.0128 50.0679 44.166C50.0679 44.3191 50.1478 44.4721 50.3074 44.4721C50.4671 44.4721 50.6269 44.3957 50.6269 44.2425C50.6269 44.0894 50.547 44.0128 50.3873 43.9364Z" fill="#405965"/>
<path d="M79.3744 46.4624C79.9333 42.0228 83.2074 38.961 87.0404 36.5882L87.759 36.2054L74.9025 20.667L74.663 20.5904C73.1459 20.2843 71.6286 20.0547 70.1113 19.8251C65.48 19.2126 62.1261 18.8299 59.2514 18.5237L56.8558 18.3707H56.7759L56.0572 18.2941H55.7377C53.9811 18.2176 52.2242 18.141 50.4674 18.0644H49.2696C42.8015 17.9114 37.132 18.141 33.0594 18.3707C31.6221 18.4473 22.5987 19.2892 20.9218 19.5188H20.6822C18.6059 19.8251 14.3738 20.4374 12.8565 20.667L0.0800781 36.2054L0.798758 36.5882C4.63172 38.8846 7.90564 42.0228 8.46468 46.4624C9.02352 50.9019 6.38836 55.9538 4.63172 59.9342C2.31584 65.2923 0.159804 70.5739 0.159804 76.4677C0.159804 77.6925 0.319638 78.9937 0.718841 80.2184C1.99656 84.1222 5.11084 87.2604 8.46468 89.7864C12.4573 92.6186 16.6894 95.1446 21.1614 97.2877C25.713 99.584 30.3444 101.804 34.7364 104.33C37.691 106.014 41.524 108.54 43.121 111.448L43.7597 112.673L44.3987 111.448C45.9957 108.54 49.9086 106.014 52.7833 104.33C57.1751 101.804 61.8066 99.584 66.3583 97.2877C70.83 95.1446 75.0624 92.6186 79.055 89.7864C82.4088 87.2604 85.5231 84.1222 86.8008 80.2184C87.2 78.9937 87.3597 77.7689 87.3597 76.4677C87.3597 70.5739 85.2036 65.2923 82.8879 59.9342C81.2909 55.9538 78.8154 50.9019 79.3744 46.4624ZM43.8396 111.142C37.691 99.8902 0.878484 93.3075 0.878484 76.4677C0.878484 59.6279 19.4844 47.2278 1.11804 35.9758L13.176 21.2793C34.8163 17.7584 55.2586 17.7584 74.5033 21.2793L86.5612 35.9758C68.1949 47.2278 86.7209 59.6279 86.7209 76.4677C86.7209 93.3075 49.9883 99.9668 43.8396 111.142Z" fill="#405965"/>
<path fill-rule="evenodd" clip-rule="evenodd" d="M25.6328 3.36791L28.3479 3.06186L25.6328 1.9137V3.36791Z" fill="#EAD7B1"/>
<path d="M79.6139 61.2353C77.6175 56.5663 75.1419 51.2081 75.7809 46.0796C76.26 41.8698 78.6556 38.5783 82.0095 35.8993L82.5683 35.4401L72.8263 23.8052L72.5867 23.7288C53.5018 20.4373 34.0975 20.82 15.0124 23.7288L14.6931 23.8052L5.1107 35.4401L5.58982 35.8993C8.94366 38.5783 11.3393 41.8698 11.8184 46.0796C12.4571 51.2847 9.98163 56.5663 7.9055 61.2353C5.82938 66.1342 3.67334 71.1095 3.67334 76.4677C3.67334 77.3862 3.83298 78.3048 4.07254 79.1467C6.22858 85.806 16.6096 91.0876 22.7582 94.226C27.3898 96.5987 32.1011 98.742 36.4931 101.345C38.8887 102.646 41.0447 104.253 43.1208 106.014L43.6799 106.473L44.159 106.014C46.1552 104.253 48.3911 102.646 50.7867 101.345C55.2585 98.742 59.9699 96.5223 64.5216 94.226C71.1493 90.8579 83.6065 84.6579 83.6065 76.4677C83.846 71.1095 81.69 66.1342 79.6139 61.2353ZM64.3618 93.6135C59.7304 95.9865 55.0189 98.2062 50.5472 100.809C48.1516 102.187 45.9156 103.717 43.8395 105.554C41.7634 103.717 39.5274 102.187 37.1318 100.809C32.6601 98.2062 27.9486 95.9865 23.3173 93.6135C17.4879 90.6283 7.02718 85.3468 4.95087 78.917C4.71131 78.0751 4.55166 77.2332 4.55166 76.3911C4.55166 71.1095 6.62779 66.2108 8.7041 61.3885C10.7802 56.5663 13.2557 51.2081 12.6168 45.8499C12.0579 41.4105 9.50251 37.966 6.06894 35.2104L11.1794 29.0103L23.956 41.1043C15.8909 54.0403 17.8074 74.8603 29.945 83.8925C33.9376 86.8778 38.8087 88.4086 43.8395 88.332C52.6233 88.332 59.0914 84.1986 63.164 78.1517L73.8644 88.332C70.8299 90.2456 67.6359 92.0061 64.3618 93.6135ZM45.9955 30.9238H46.2351C47.912 31.077 49.6689 31.4597 51.2659 31.9956L51.745 32.1486H51.8249L52.3838 32.3782L52.4637 32.4548L52.7831 32.6079C54.3801 33.2968 55.8175 34.1387 57.175 35.2104L58.0535 35.8993L58.3728 36.2054C59.7304 37.4301 60.9282 38.8079 61.9662 40.2623L62.0461 40.3388C62.126 40.492 62.2856 40.645 62.3655 40.798L62.2057 40.5684L62.3655 40.7216V40.798C63.3238 42.2524 64.1222 43.7068 64.7611 45.3143H64.6013C62.4453 45.3143 60.4491 46.4624 59.4109 48.2229C59.4109 48.2995 59.0914 48.7588 58.9318 49.0648C58.5326 49.7537 58.0535 50.4426 57.5743 51.1315C57.6541 50.7488 57.734 50.3662 57.8139 49.9833C57.8139 49.8303 57.8139 49.6773 57.8936 49.4476C57.9735 49.2944 57.8936 48.8352 57.8936 48.8352C57.8936 47.4574 57.1749 46.2328 56.7757 45.008C57.734 44.855 58.6123 44.5488 59.4908 44.1661C59.9699 43.7833 60.0497 43.0944 59.6505 42.6351C59.6505 42.4821 59.5706 42.329 59.5706 42.2524C59.5706 42.1758 59.4109 42.0228 59.4109 41.9462C59.331 41.7932 59.1713 41.6401 59.0117 41.5635C58.7721 41.1043 58.293 40.798 57.734 40.8746C57.2549 41.0277 56.8557 41.1809 56.4563 41.3339C55.9772 41.5635 55.5779 41.8698 55.0988 42.0228C54.9392 42.0994 54.7793 42.0994 54.6197 42.1758C54.0607 41.7932 53.4219 41.4105 52.7831 41.1043C52.6233 41.0277 52.3837 40.9512 51.9845 40.798L51.2659 40.5684C49.9881 40.1091 48.6307 39.8795 47.2733 39.8031C46.7941 39.8031 46.3947 39.7265 45.756 39.7265H45.0373C44.5582 39.7265 43.5999 39.6499 43.52 40.2623C43.4403 40.8746 44.3186 41.0277 44.7977 41.1809H44.8777L46.2351 41.4869C47.5128 41.7932 48.7903 42.1758 49.9881 42.7883C49.2695 42.9413 48.7106 43.4006 48.4711 44.0129L48.3112 44.3957C48.1516 44.7784 48.0717 45.1611 47.9919 45.5439L47.8321 46.3092L48.7903 46.0796C49.1897 46.0032 49.6689 45.9266 50.0681 45.8499C50.4673 45.8499 50.9464 45.9266 51.3458 46.0796C51.6651 46.1562 51.9845 46.3092 52.304 46.4624H52.3838C52.6233 46.5388 52.8629 46.6921 53.0227 46.8451V46.9217C53.5018 48.0699 53.8211 49.218 53.9809 50.4426V50.5192C53.9809 50.6722 54.0607 50.8254 54.0607 51.0551C54.0607 51.2847 54.1406 51.5143 54.1406 51.6674V51.9736C53.8211 51.897 53.4219 51.8204 53.1823 51.744L52.9428 51.6674H52.8629L50.9464 51.2081C49.9881 51.2081 49.0299 51.5908 48.3112 52.2797C48.0717 52.4329 47.8321 52.6625 47.5925 52.8155C47.0337 53.2748 46.4747 53.8107 45.9955 54.3464C45.9156 54.423 45.8359 54.4996 45.756 54.6526C45.3568 55.1119 45.0373 55.5711 44.6381 56.0304L44.159 56.7193C43.9991 57.0255 43.8395 57.2552 43.6799 57.4848C43.4403 57.8674 43.2805 58.1737 43.1208 58.5563H37.3714V48.2995H35.1354L35.0557 47.0747H35.6945V44.7784H35.1354V44.0895H35.6145V43.324C35.6145 42.6351 35.1354 42.0228 34.4167 41.7932V41.5635C34.4167 41.1043 34.0975 40.7216 33.6183 40.5684C33.5384 40.5684 33.3788 40.492 33.2989 40.492H33.0593C32.5802 40.5684 32.181 41.0277 32.181 41.4869V41.7166C31.542 41.9462 31.0629 42.5587 31.0629 43.2476V44.0129H31.542V44.7018H31.0629V46.9981H31.7816L31.7019 48.2229H29.4659V58.4797H20.0431V57.4848C20.0431 56.9489 20.1231 56.7959 20.1231 56.107V55.5711C20.203 54.6526 20.2827 53.8107 20.5223 52.9686C20.5223 52.8155 20.6022 52.5859 20.6022 52.4329C20.7618 51.5908 20.9217 50.9785 21.0014 50.3662C21.0813 50.0599 21.1612 49.8303 21.2409 49.5241V49.4476C21.3209 49.1414 21.4008 48.8352 21.5604 48.3759C21.7201 47.9166 21.8799 47.4574 22.0395 46.9981C22.1195 46.6921 22.2791 46.3858 22.4387 46.0032V45.9266C22.6783 45.2377 22.9978 44.5488 23.3173 43.9365L23.397 43.7833C23.8761 42.7883 24.4351 41.7932 25.0739 40.8746C25.553 40.1091 26.1121 39.4202 26.6711 38.7313L26.9904 38.3487L27.0703 38.2721C27.6293 37.5068 28.348 36.8179 29.0667 36.2054L29.1464 36.129C30.1047 35.2104 31.2227 34.4449 32.3406 33.756H32.4205C32.8197 33.4498 33.2989 33.2202 33.778 32.9905C33.8579 32.9141 34.0175 32.8375 34.0975 32.8375C35.2953 32.2252 36.5728 31.7659 37.9304 31.3831H38.0101C38.5692 31.2301 39.1282 31.077 39.6871 31.0004C41.1244 30.7708 42.5618 30.6178 43.9991 30.6178H45.1969L45.5164 30.6942C45.5164 30.8474 45.756 30.8474 45.9955 30.9238ZM20.0431 59.1686H42.7216C42.0029 59.3983 41.364 59.6279 40.6453 59.9341L40.4857 60.0107L39.9266 60.3168C39.767 60.3934 39.5274 60.5464 39.3678 60.623C37.8505 61.3885 36.8923 62.996 36.8923 64.6034C36.8923 65.3687 37.0519 66.0576 37.2117 66.8231L37.2915 67.0528C37.3714 67.2824 37.4513 67.5886 37.6109 67.8947C38.0101 68.8132 38.4095 69.6553 38.8887 70.5738L39.9266 72.4109C41.4439 75.1665 43.1208 77.9985 43.8395 80.9837C44.3186 82.7444 44.2387 84.6579 43.5999 86.4185C43.52 86.6481 43.4403 86.8012 43.3604 87.0308C43.2805 87.2604 43.2007 87.337 43.1208 87.4901C42.5618 87.4901 41.923 87.4134 41.364 87.4134C38.17 87.1074 35.1354 86.1123 32.4205 84.5048C23.6365 79.2233 19.8036 68.5072 20.0431 59.1686ZM31.8615 49.8303V48.9118H32.8197V49.8303H33.778V48.9118H34.7362V49.8303H35.6945V48.9118H36.6527V50.9019H29.945V48.9118H30.9033V49.8303H31.8615ZM33.2989 42.2524C34.1772 42.2524 34.8959 42.7883 34.8959 43.4006V43.5536H31.6219V43.4006C31.7019 42.7117 32.4205 42.2524 33.2989 42.2524ZM32.7398 41.6401C32.7398 41.4105 32.9794 41.1809 33.2189 41.1809C33.4585 41.1809 33.6981 41.4105 33.6981 41.6401V41.7166H33.2189C33.0593 41.7166 32.8997 41.7166 32.7398 41.7932V41.6401ZM34.4167 44.0895V44.7784H33.6183V44.0895H34.4167ZM32.9794 44.855H32.181V44.1661H32.9794V44.855ZM35.0557 46.5388H31.6219V45.3907H35.1354L35.0557 46.5388ZM34.4167 48.2995H32.181L32.2607 47.0747H34.337L34.4167 48.2995ZM36.6527 54.2699H29.945V51.5143H36.7326L36.6527 54.2699ZM36.6527 54.8822V58.4797H34.1772V56.4897C34.2571 56.0304 33.9376 55.5711 33.4585 55.4945C32.9794 55.4181 32.5003 55.7242 32.4205 56.1834V58.4797H29.945V54.8822H36.6527ZM43.7596 87.4901C45.8359 83.3567 44.2387 79.1467 42.1626 75.1665C40.9648 72.8702 39.6073 70.6503 38.6491 68.5836C38.0101 67.2058 37.3714 65.4453 37.6109 63.9145C37.7706 62.7663 38.4893 61.7712 39.4475 61.1589C40.2461 60.6996 41.1244 60.2404 42.0029 59.9341L42.0827 59.8575L42.4821 59.7045C40.0865 64.0675 40.9648 68.2775 44.7178 72.1047C46.8739 74.248 49.9084 75.3961 53.1024 76.3911L52.9428 81.2134H55.8175V80.7541C55.8175 79.6059 55.7376 78.3814 55.7376 77.2332C57.5743 77.7689 59.4109 78.4578 61.0878 79.2233C57.0952 84.5814 50.6271 87.6431 43.7596 87.4901ZM55.6579 68.3539L56.6161 69.2725L56.9354 68.9664L55.8974 67.8947C56.6958 68.2775 57.3348 68.8132 57.8936 69.5021V69.8083L57.6541 71.875L56.5362 70.8035L56.3765 70.7269L56.2966 70.5738C56.2167 69.8083 55.9771 69.0428 55.6579 68.3539ZM56.0571 70.9565L55.5779 71.9516C55.5779 71.0331 55.498 70.1146 55.498 69.196C55.7376 69.7317 55.8175 70.2676 55.9772 70.8799L56.0571 70.9565ZM56.6161 67.7416L57.5743 68.0479L57.734 67.5886L56.5362 67.2058C57.0952 67.2058 57.6541 67.359 58.2131 67.512L58.3728 67.665L59.5706 69.6553L58.5326 69.4257C57.9735 68.7368 57.3348 68.2009 56.6161 67.7416ZM58.5326 67.0528H58.3728C57.734 66.8231 57.0952 66.7465 56.4563 66.7465L57.8139 66.5169L57.734 66.0576L56.137 66.2872L57.734 65.5219H57.8936L60.2095 65.9046L58.5326 67.0528ZM58.2131 62.7663L57.6541 62.996L58.293 62.5367L58.2131 62.7663ZM58.0535 63.3786L57.5743 65.1391V65.2157H57.4944C56.7757 65.5219 56.0571 65.828 55.3384 66.2872L56.9354 64.6034L56.5362 64.2972L55.1787 65.828C55.4183 65.2923 55.6579 64.7564 55.9772 64.2206L56.0571 64.1441H56.137L58.0535 63.3786ZM53.5816 79.4529V78.764L55.3384 79.9888V80.7541L53.5816 79.4529ZM54.6996 80.9837H53.5816L53.5018 80.9073V80.1418L54.6996 80.9837ZM55.0189 69.3491V70.1146L53.901 69.3491V68.5836L55.0189 69.3491ZM53.9809 67.8183V67.1294L54.9392 67.7416V68.5072L53.9809 67.8183ZM55.0988 70.8035V71.5688L53.901 70.6503V69.8849L55.0988 70.8035ZM55.0988 72.3343V73.0998L53.8211 72.1813V71.4924L55.0988 72.3343ZM55.1787 73.8651V74.6306L53.8211 73.6355V72.9466L55.1787 73.8651ZM55.1787 75.3961V76.1615L53.6615 75.0899V74.401L55.1787 75.3961ZM55.2585 76.927V77.6925L53.6615 76.5443V75.8554L55.2585 76.927ZM55.3384 78.4578V79.2233L53.6615 77.9985V77.3096L55.3384 78.4578ZM55.498 64.0675C55.1787 64.5268 54.9392 64.9861 54.7794 65.5219V63.6849H54.3002V65.7516C54.0607 65.0627 53.7414 64.4502 53.342 63.9145V63.7613L54.4601 61.6946L55.5779 63.7613V63.8379L55.498 64.0675ZM53.6615 65.828L52.304 64.5268L51.9845 64.833L53.8211 66.5935C53.1024 66.0576 52.304 65.5983 51.4255 65.2923L51.3458 65.2157L50.8667 63.3786L52.7032 64.1441L52.8629 64.2206L52.9428 64.2972C53.1823 64.7564 53.4219 65.2923 53.6615 65.828ZM50.6271 62.7663L50.5472 62.5367L51.186 62.996L50.6271 62.7663ZM50.8667 65.7516H51.186L52.6233 66.3639L51.2659 66.0576L51.1062 66.5169L52.4637 66.7465C51.8249 66.7465 51.1859 66.8997 50.5472 67.0528H50.3875L48.7106 65.9812L50.8667 65.7516ZM50.5472 67.7416L50.7068 67.5886C51.2659 67.4354 51.8249 67.359 52.3838 67.2824L51.1062 67.665L51.2659 68.1243L52.304 67.8183C51.5853 68.2775 51.0263 68.8132 50.4673 69.4257L50.3875 69.5021V69.5787L49.3494 69.8083L50.5472 67.7416ZM51.0263 69.6553C51.5054 69.0428 52.1442 68.5072 52.7831 68.1243L51.9046 68.9664L52.2241 69.2725L53.342 68.2009C52.8629 68.9664 52.5436 69.8083 52.3838 70.6503V70.7269L52.304 70.8035L51.2659 71.9516L51.0263 69.8849V69.6553ZM52.9428 70.6503C53.0227 70.191 53.1823 69.7317 53.4219 69.2725L53.342 71.7984L52.9428 70.8799V70.6503ZM55.7376 76.6973C55.6579 75.4726 55.6579 74.248 55.5779 73.0232L56.0571 72.0281V73.4059H56.5362V72.1047L57.0153 73.3294L57.4944 73.1762L57.0153 71.875L57.9735 72.8702L58.3728 72.5639L58.2131 72.4109L58.3728 71.0331L58.7721 72.4109L59.2513 72.2577L58.8519 70.9565L59.6505 72.0281L60.0497 71.7984L59.0914 70.4972L60.3691 71.2627L60.6087 70.8799L59.4109 70.191L59.8101 70.2676L59.9699 70.4972L60.2892 70.3442L60.8483 70.4206L60.9282 69.9614H60.7684L61.0878 69.6553L59.89 68.3539L61.4073 69.196L61.6469 68.8132L60.0497 67.8947L61.8864 68.2775L61.9662 67.8183L60.4491 67.512L61.9662 67.4354V66.9761L60.2892 67.0528L61.9662 66.5169L61.8065 66.0576L60.2095 66.5935L61.0079 66.0576L61.6469 65.675L61.3274 65.3687L60.8483 65.675L59.6505 65.5219L61.2475 65.3687L61.1677 64.9095L59.331 65.0627L60.9282 64.3738L60.7684 63.9145L59.1713 64.6034L60.5288 63.4552L60.2095 63.0724L58.8519 64.1441L59.8101 62.6897L59.4109 62.4601L59.331 62.3071L58.8519 62.4601L58.9318 62.2305H58.6922L59.0117 62.0008L58.6922 61.6182L57.0952 62.6897L58.2131 61.2353L57.8139 60.9293L56.5362 62.4601L57.2549 60.623L56.7757 60.47L56.2167 62.0008L56.3765 60.3934H55.8974L55.7376 62.1539L55.3384 60.47L54.8593 60.5464L55.2585 62.3071L54.6197 61.2353L54.8593 60.8527L54.3801 60.623L54.3002 60.6996L53.8211 60.9293L53.9809 61.2353L53.5018 62.2305L53.901 60.47L53.4219 60.3934L53.0227 62.1539L52.8629 60.3934L52.3838 60.47L52.5436 62.0774L51.9046 60.47L51.4255 60.623L52.1442 62.4601L50.8667 60.9293L50.4673 61.2353L51.5853 62.6897L49.9881 61.6182L49.6689 62.0008L50.0681 62.3071L49.8285 62.3835L49.9084 62.5367L49.509 62.2305L49.4293 62.4601L49.0299 62.6897L49.9881 64.1441L48.7106 63.0724L48.3911 63.4552L49.7486 64.6034L48.0717 63.9145L47.8321 64.2972L49.4293 64.9861L47.6725 64.7564L47.5925 65.2157L49.1897 65.3687L48.0717 65.5219L47.5925 65.2923L47.353 65.675L47.8321 65.9812V66.1342H47.9919L48.8703 66.6701L47.2733 66.1342L47.1134 66.5935L48.7903 67.1294L47.0337 67.0528V67.512L48.5508 67.5886L47.0337 67.8947L47.1134 68.3539L48.9502 67.9713L47.353 68.8898L47.5925 69.2725L49.0299 68.3539L47.8321 69.5787L48.1516 69.8849H47.9919L48.0717 70.3442L48.6307 70.2676L48.9502 70.4206L49.1098 70.191L49.509 70.1146L48.3112 70.8035L48.5508 71.1861L49.8285 70.4206L48.9502 71.6454L49.3494 71.875L50.148 70.8035L49.8285 72.1813L50.3076 72.3343L50.7068 70.9565L50.8667 72.3343L50.7068 72.4873L51.1062 72.7936L52.0645 71.7984L51.5054 73.0998L51.9845 73.2528L52.4637 72.0281V73.3294H52.9428V71.9516L53.342 72.7936L53.2623 75.8554C50.2277 74.8603 47.353 73.7887 45.2769 71.722C40.6453 67.0528 41.4439 62.8428 43.3604 59.6279L43.5999 59.1686H44.7178L67.3963 59.7045C67.3963 66.7465 65.32 73.8651 61.3274 79.0703C59.4908 78.2281 57.5743 77.4628 55.5779 76.927M59.6505 68.8898L60.6087 69.8849L60.1296 69.8083L59.6505 68.8898ZM58.3728 63.9145L58.6123 63.0724L59.0117 62.9194L58.3728 63.9145ZM50.4673 63.9145L49.8285 62.9194L50.3076 63.0724L50.4673 63.9145ZM49.2695 68.8898L48.7106 69.8083L48.2315 69.8849L49.2695 68.8898ZM67.5559 58.7094H54.8593C59.0914 56.1834 60.3691 52.7389 62.6848 52.9686C63.9625 53.1218 65.879 53.581 67.0768 53.7341C67.3963 55.3415 67.476 57.0255 67.5559 58.7094ZM66.7574 53.0452C66.1186 52.9686 65.5595 52.8155 64.9208 52.7389C64.282 52.6625 63.4834 52.5093 62.7647 52.4329C62.5252 52.3563 62.2057 52.3563 61.9662 52.4329C60.6886 52.6625 59.5705 53.8871 58.6922 54.7292C57.4944 56.0304 56.0571 57.2552 54.5398 58.1737L53.5816 58.7094L43.7596 58.6329C45.0373 55.9538 48.8703 51.5908 50.8667 51.897C51.8249 52.05 53.1823 52.4329 54.2205 52.6625C54.3002 53.7341 54.4601 54.8822 54.6197 55.9538C54.6996 56.3366 54.6996 57.1019 55.3384 57.1019C56.0571 57.1019 55.9771 56.3366 56.0571 55.8774C56.3765 54.6526 56.7757 53.5044 57.175 52.3563C59.6505 50.8254 59.7304 46.0796 64.6013 46.0032H65.0804C65.9589 48.2995 66.5977 50.6722 66.9969 53.0452H66.7574ZM50.3875 43.4772L53.2623 42.9413C54.9392 43.0944 56.9354 41.7166 57.8139 41.5635C58.0535 41.5635 58.293 41.7166 58.3728 41.8698L56.6958 42.6351L56.9354 43.0944L58.7721 42.2524C59.0117 42.4055 59.0914 42.6351 59.0914 42.8647L57.0952 43.324L57.175 43.7833L59.2513 43.324C59.331 43.4772 59.2513 43.7068 59.1713 43.7833C58.2131 44.3191 57.0153 44.3957 56.0571 44.7784C56.4563 46.1562 57.4145 47.8402 57.3348 49.218V49.6773L56.2966 47.534L55.8175 47.7636L57.2549 50.5192C57.1749 51.0551 57.0153 51.5143 56.8557 52.05L55.7376 48.4525L55.2585 48.6055L56.6161 52.8155C56.2167 53.8107 55.8974 54.8056 55.6579 55.8008C55.498 56.6427 55.6579 56.7959 55.498 55.8774C54.9392 53.1218 54.9392 48.2229 53.5816 46.3858C53.0227 46.0796 52.3837 45.7735 51.745 45.5439C51.2659 45.3907 50.7068 45.3143 50.148 45.2377C49.7486 45.3143 49.1098 45.4673 48.7106 45.5439C48.7106 44.855 49.1098 43.324 50.3875 43.4772ZM44.9574 40.645C43.8395 40.3388 43.8395 40.3388 45.0373 40.3388C47.1134 40.2623 49.1098 40.492 51.0263 41.1809C51.9046 41.4869 52.7032 41.8698 53.5018 42.329H53.342L50.9464 42.7883C49.1098 41.5635 47.0337 41.1809 44.9574 40.645ZM74.6628 87.7963L63.6431 77.3862C71.7881 64.3738 69.712 43.324 57.4145 34.2919C53.5018 31.3831 48.7106 29.8523 43.7596 29.9289C34.9758 29.9289 28.5077 34.1387 24.4351 40.2623L11.8981 28.3979L15.1722 24.4941C34.1772 21.5855 53.5018 21.2028 72.4271 24.4941L81.5303 35.3635C78.0966 38.119 75.5413 41.5635 74.9823 46.0032C74.3435 51.3611 76.8189 56.7193 78.8952 61.5416C80.9713 66.3639 83.0474 71.2627 83.0474 76.5443C83.0474 80.8307 79.2145 84.7345 74.6628 87.7963Z" fill="#405965"/>
<defs>
<linearGradient id="paint0_linear_313_3" x1="17.0091" y1="3.6895" x2="70.3639" y2="3.6895" gradientUnits="userSpaceOnUse">
<stop stop-color="#D8B56D"/>
<stop offset="0.51" stop-color="#EDD9B1"/>
<stop offset="0.53" stop-color="#ECD8AF"/>
<stop offset="1" stop-color="#D8B56B"/>
</linearGradient>
<linearGradient id="paint1_linear_313_3" x1="19.9626" y1="7.09192" x2="68.0872" y2="7.09192" gradientUnits="userSpaceOnUse">
<stop stop-color="#B79644"/>
<stop offset="0.51" stop-color="#C7A865"/>
<stop offset="1" stop-color="#B89642"/>
</linearGradient>
<linearGradient id="paint2_linear_313_3" x1="18.7034" y1="13.9278" x2="69.3608" y2="13.9278" gradientUnits="userSpaceOnUse">
<stop stop-color="#DBB872"/>
<stop offset="0.51" stop-color="#E0C28B"/>
<stop offset="1" stop-color="#DBB872"/>
</linearGradient>
<radialGradient id="paint3_radial_313_3" cx="0" cy="0" r="1" gradientUnits="userSpaceOnUse" gradientTransform="translate(44.0573 64.9495) scale(44.8792 42.4199)">
<stop stop-color="#01A668"/>
<stop offset="0.39" stop-color="#029D5F"/>
<stop offset="1" stop-color="#038647"/>
</radialGradient>
<radialGradient id="paint4_radial_313_3" cx="0" cy="0" r="1" gradientUnits="userSpaceOnUse" gradientTransform="translate(35.1284 56.6004) scale(32.3973 30.6108)">
<stop stop-color="#E0F0E0"/>
<stop offset="0.14" stop-color="#D7EDE1"/>
<stop offset="0.37" stop-color="#BEE5E3"/>
<stop offset="0.65" stop-color="#96D7E7"/>
<stop offset="0.99" stop-color="#5EC5ED"/>
<stop offset="1" stop-color="#5CC4ED"/>
</radialGradient>
<linearGradient id="paint5_linear_313_3" x1="17.2928" y1="73.264" x2="63.8161" y2="73.264" gradientUnits="userSpaceOnUse">
<stop stop-color="white"/>
<stop offset="0.18" stop-color="#FFFBF6"/>
<stop offset="0.48" stop-color="#FEEFDD"/>
<stop offset="0.86" stop-color="#FCDBB5"/>
<stop offset="1" stop-color="#FBD3A4"/>
</linearGradient>
<linearGradient id="paint6_linear_313_3" x1="18.7049" y1="73.5131" x2="50.1218" y2="73.5131" gradientUnits="userSpaceOnUse">
<stop stop-color="#00AEB4"/>
<stop offset="0.18" stop-color="#09B0B6"/>
<stop offset="0.47" stop-color="#22B5BA"/>
<stop offset="0.84" stop-color="#4ABEC2"/>
<stop offset="1" stop-color="#5EC2C6"/>
</linearGradient>
<linearGradient id="paint7_linear_313_3" x1="55.4821" y1="45.1715" x2="55.4821" y2="59.1118" gradientUnits="userSpaceOnUse">
<stop stop-color="#19A576"/>
<stop offset="0.33" stop-color="#149D6D"/>
<stop offset="0.87" stop-color="#068654"/>
<stop offset="1" stop-color="#027F4D"/>
</linearGradient>
<linearGradient id="paint8_linear_313_3" x1="38.9165" y1="69.0354" x2="67.3821" y2="69.0354" gradientUnits="userSpaceOnUse">
<stop stop-color="#E9B68B"/>
<stop offset="0.3" stop-color="#E4AF82"/>
<stop offset="0.8" stop-color="#D69C69"/>
<stop offset="1" stop-color="#CF935D"/>
</linearGradient>
<linearGradient id="paint9_linear_313_3" x1="61.1598" y1="53.121" x2="61.1598" y2="59.3801" gradientUnits="userSpaceOnUse">
<stop stop-color="#19A576"/>
<stop offset="0.33" stop-color="#149D6D"/>
<stop offset="0.87" stop-color="#068654"/>
<stop offset="1" stop-color="#027F4D"/>
</linearGradient>
<linearGradient id="paint10_linear_313_3" x1="30.5366" y1="53.6651" x2="37.5956" y2="53.6651" gradientUnits="userSpaceOnUse">
<stop stop-color="#DBDAD9"/>
<stop offset="0.35" stop-color="#E2E2E2"/>
<stop offset="0.92" stop-color="#F7F9FB"/>
<stop offset="1" stop-color="#FAFDFF"/>
</linearGradient>
<linearGradient id="paint11_linear_313_3" x1="31.6942" y1="44.7094" x2="35.2836" y2="44.7094" gradientUnits="userSpaceOnUse">
<stop stop-color="#DBDAD9"/>
<stop offset="0.35" stop-color="#E2E2E2"/>
<stop offset="0.92" stop-color="#F7F9FB"/>
<stop offset="1" stop-color="#FAFDFF"/>
</linearGradient>
</defs>
</svg>
