<svg width="27" height="29" viewBox="0 0 27 29" fill="none" xmlns="http://www.w3.org/2000/svg">
<path d="M14.3323 0C14.9226 0.09512 15.5216 0.15776 16.1021 0.29116C18.5382 0.85376 20.5583 2.01376 21.9647 4.01244C22.6054 4.9242 22.9846 5.93224 23.0951 7.02148C23.1135 7.20244 23.1724 7.29408 23.3626 7.36368C24.4009 7.743 25.0354 8.61068 25.0452 9.65932C25.0562 10.7729 25.0759 11.8877 25.0403 13.0001C25.0047 14.0754 24.461 14.8666 23.3798 15.283C23.1908 15.3572 22.9748 15.3839 22.7674 15.399C22.5084 15.4187 22.2458 15.406 21.9856 15.4048C21.0222 15.399 20.6896 15.1995 20.2564 14.3411C19.5237 16.2504 18.5014 17.9475 16.8188 19.2316C17.1649 20.0216 17.6288 20.7292 18.332 21.2802C18.656 21.5342 19.0254 21.6781 19.4415 21.7523C21.4861 22.1177 23.4841 22.6165 25.3336 23.5538C26.0724 23.9285 26.5621 24.4656 26.6946 25.2451C26.8149 25.9515 26.8922 26.6638 26.9634 27.376C26.9978 27.7136 26.9757 28.0558 26.9757 28.3956C26.9757 28.8411 26.8161 28.9942 26.3498 28.9954C25.7276 28.9965 25.1053 28.9954 24.4831 28.9954C16.5549 28.9954 8.62674 28.9942 0.698556 29C0.405238 29.0012 0.169601 28.9466 0.00146484 28.7123C0.00146484 28.1277 0.00146484 27.5419 0.00146484 26.9572C0.0616012 26.5188 0.12051 26.0803 0.181874 25.643C0.324238 24.6384 0.815147 23.8693 1.83869 23.4517C2.09519 23.3473 2.33942 23.2139 2.59592 23.1084C4.13615 22.4762 5.7451 22.0481 7.39701 21.7825C8.11619 21.6665 8.65865 21.3347 9.12256 20.8394C9.57174 20.3615 9.90433 19.8186 10.1584 19.2212C10.0172 19.111 9.8761 19.0078 9.7411 18.8952C9.43306 18.6377 9.16919 18.27 8.8096 18.1424C8.44142 18.0125 7.97874 18.1122 7.55778 18.1134C6.19306 18.1146 5.32783 17.4882 4.99401 16.2458C4.9216 15.9744 4.87742 15.696 4.82587 15.4512C4.41965 15.4036 4.01096 15.421 3.65383 15.3027C2.57383 14.9466 1.93074 14.0418 1.92706 12.9549C1.92215 11.8981 1.92828 10.8425 1.92706 9.78576C1.92583 8.62808 2.51247 7.79172 3.65751 7.35092C3.81337 7.2906 3.85633 7.21636 3.87106 7.06672C3.95451 6.1944 4.20487 5.36152 4.6516 4.59128C6.01142 2.24692 8.18001 0.9222 10.8763 0.29116C11.4556 0.15428 12.0557 0.09512 12.6461 0C13.2081 0 13.7702 0 14.3323 0ZM26.0393 28.0778C25.9742 27.3377 25.8981 26.6348 25.8552 25.9306C25.8012 25.0398 25.3066 24.4957 24.4586 24.1326C22.9993 23.5086 21.4824 23.0666 19.9176 22.7673C19.1297 22.6165 18.3431 22.4947 17.7024 21.9716C16.7832 21.2222 16.188 20.2722 15.7449 19.227C15.6467 18.9938 15.7793 18.8268 15.9744 18.6679C16.4211 18.306 16.8838 17.9522 17.2753 17.5404C18.3934 16.3664 19.0487 14.9454 19.5765 13.4746C20.195 11.7496 20.3312 9.96672 20.0956 8.16524C19.9496 7.04352 19.5347 6.00648 18.8082 5.09588C16.5819 2.30608 12.3135 2.13556 9.7546 3.71432C7.8106 4.91376 6.96378 6.69088 6.80547 8.80556C6.64715 10.9237 7.02147 12.963 7.98487 14.8874C8.3506 15.6171 8.81574 16.3038 9.24406 17.0056C9.29437 17.0868 9.39992 17.1924 9.48092 17.1947C10.1682 17.2098 10.8567 17.2028 11.5366 17.2028C11.6986 16.5462 12.0017 16.3142 12.678 16.3084C12.9185 16.3061 13.1603 16.3073 13.4008 16.3096C14.0169 16.3131 14.4501 16.6843 14.4514 17.2086C14.4526 17.7376 14.028 18.118 13.4131 18.1204C12.4902 18.1238 11.5661 18.1169 10.6431 18.1134C10.5413 18.1134 10.4406 18.1134 10.3388 18.1134C10.5548 18.3512 10.7806 18.5206 11.015 18.6818C11.2384 18.8349 11.3181 19.0228 11.2114 19.2711C10.8162 20.1886 10.3069 21.0378 9.54719 21.7372C9.04892 22.1966 8.46965 22.5063 7.77624 22.6397C6.95274 22.7975 6.12801 22.9645 5.31678 23.171C4.16437 23.4645 3.04633 23.8461 2.00192 24.4064C1.55642 24.6454 1.29256 24.9818 1.21524 25.4469C1.14037 25.9028 1.06306 26.361 1.02869 26.8204C0.996783 27.238 1.02256 27.6579 1.02256 28.0778C9.3361 28.0778 17.6521 28.0778 26.0393 28.0778ZM22.1402 7.20476C22.1427 7.18968 22.1488 7.17112 22.1476 7.15256C22.1439 7.105 22.1378 7.0586 22.1316 7.0122C21.8862 5.1504 20.94 3.64704 19.3617 2.54272C16.388 0.46052 13.1186 0.16472 9.70674 1.40012C7.6081 2.15992 6.05683 3.52408 5.21983 5.5332C4.99278 6.07724 4.86392 6.64216 4.82342 7.2558C5.05169 7.2558 5.25419 7.23608 5.44933 7.2616C5.64078 7.28596 5.8261 7.35556 6.01878 7.40776C6.98219 4.01012 9.27965 2.00912 13.0302 1.84904C17.1906 1.67272 19.8403 3.63312 20.9522 7.35556C21.3523 7.30452 21.734 7.25696 22.1402 7.20476ZM5.78315 11.346C5.78315 10.5061 5.7856 9.66628 5.78437 8.8276C5.78315 8.32764 5.59537 8.15596 5.05537 8.15596C4.86515 8.15596 4.67124 8.17916 4.48469 8.15364C3.73237 8.05156 2.92728 8.71856 2.90396 9.57116C2.87328 10.7312 2.88187 11.8923 2.90151 13.0523C2.91256 13.7193 3.35928 14.3028 4.00483 14.4559C4.3546 14.5383 4.74119 14.4942 5.1106 14.4965C5.58801 14.5012 5.77947 14.3214 5.78192 13.8655C5.7856 13.0256 5.78315 12.1858 5.78315 11.346ZM21.1916 11.3262C21.1916 12.1846 21.1928 13.043 21.1916 13.9014C21.1916 14.1601 21.2799 14.4327 21.5524 14.4548C22.0531 14.4942 22.5906 14.5325 23.0619 14.4049C23.732 14.2228 24.0572 13.6741 24.0744 13.0326C24.1039 11.8923 24.099 10.7497 24.0769 9.60828C24.0609 8.7928 23.3209 8.0446 22.4741 8.15016C22.2765 8.17452 22.074 8.15248 21.8727 8.15248C21.383 8.15364 21.1916 8.33576 21.1916 8.80788C21.1903 9.64656 21.1916 10.4864 21.1916 11.3262ZM6.71097 14.4629C6.53178 14.6647 6.33787 14.9605 6.06542 15.1624C5.85924 15.3143 5.7991 15.4361 5.8396 15.6646C6.06174 16.8989 6.67292 17.3884 8.09778 17.1657C7.62774 16.2493 7.15033 15.3201 6.71097 14.4629Z" fill="white"/>
</svg>
