<svg width="31" height="30" viewBox="0 0 31 30" fill="none" xmlns="http://www.w3.org/2000/svg">
<path d="M26.9103 0H4.41035C2.33658 0 0.65625 1.68033 0.65625 3.7541V18.7541C0.65625 20.8279 2.33658 22.5082 4.41035 22.5082H10.0333L17.5333 30.0082V22.5082H26.9103C28.9841 22.5082 30.6644 20.8279 30.6644 18.7541V3.7541C30.6562 1.68033 28.9759 0 26.9103 0ZM28.7792 18.7541C28.7792 19.7869 27.9349 20.6311 26.9022 20.6311H15.6562V25.4836L10.8038 20.6311H4.41035C3.37756 20.6311 2.5333 19.7869 2.5333 18.7541V3.7541C2.5333 2.72131 3.37756 1.87705 4.41035 1.87705H26.9103C27.9431 1.87705 28.7874 2.72131 28.7874 3.7541V18.7541H28.7792ZM6.2792 7.5H25.0333V5.62295H6.2792V7.5ZM6.2792 11.2541H25.0333V9.37705H6.2792V11.2541ZM6.2792 15H17.5333V13.123H6.2792V15Z" fill="#545454"/>
</svg>
